<svg id="_15x15_photo_back" data-name="15x15 photo back" xmlns="http://www.w3.org/2000/svg" xmlns:xlink="http://www.w3.org/1999/xlink" width="18" height="18" viewBox="0 0 18 18">
  <defs>
    <clipPath id="clip-path">
      <rect id="Rectangle_4561" data-name="Rectangle 4561" width="18" height="18" fill="none"/>
    </clipPath>
  </defs>
  <g id="Mask_Group_903" data-name="Mask Group 903" clip-path="url(#clip-path)">
    <g id="inforamtion" transform="translate(-1.479 -1.479)">
      <path id="Path_23994" data-name="Path 23994" d="M15.866,9.2a7.151,7.151,0,0,0-7.2-7.076A7.072,7.072,0,0,0,4.1,14.661L3.6,18.586a.167.167,0,0,0,.262.154l3.467-2.593A7.192,7.192,0,0,0,15.866,9.2ZM7.808,8.672A.7.7,0,0,1,8.5,7.978H8.83a.7.7,0,0,1,.694.694v4.057a.694.694,0,0,1-.694.691H8.5a.694.694,0,0,1-.694-.691Zm.858-1.991a.936.936,0,1,1,0-1.873A.936.936,0,1,1,8.666,6.681Z" fill="#8d8d8d"/>
      <path id="Path_23995" data-name="Path 23995" d="M19.478,12.9a4.384,4.384,0,0,0-3.055-4.175,7.645,7.645,0,0,1-4.469,7.4,4.5,4.5,0,0,0,3.847,1.1L17.906,18.8a.164.164,0,0,0,.259-.151l-.3-2.377A4.348,4.348,0,0,0,19.478,12.9Z" fill="#8d8d8d"/>
    </g>
  </g>
</svg>
