<svg xmlns="http://www.w3.org/2000/svg" width="25" height="25" viewBox="0 0 25 25" class="object-contain"><rect width="25" height="25" rx="5" fill="#404040"></rect><g id="Mask_Group_613" data-name="Mask Group 613"><path id="wallet-2" d="M24.166,13.827V8.75a1.231,1.231,0,0,0-.417-.922V4.584a1.25,1.25,0,0,0-1.25-1.25H19.676a5.369,5.369,0,0,0-6.524-1.576A5.409,5.409,0,0,0,4.167,3.334H2.5A2.508,2.508,0,0,0,0,5.834V22.5A2.5,2.5,0,0,0,2.5,25H22.916a1.25,1.25,0,0,0,1.25-1.25V18.673A1.25,1.25,0,0,0,25,17.5V15a1.25,1.25,0,0,0-.833-1.173Zm-1.25-9.243V7.5H20.761a5.442,5.442,0,0,0,.071-.833,5.382,5.382,0,0,0-.611-2.5H22.5A.417.417,0,0,1,22.916,4.584Zm-3.776-.59A4.476,4.476,0,0,1,19.916,7.5h-9A4.579,4.579,0,0,1,19.14,3.994ZM9.166.834A4.57,4.57,0,0,1,12.4,2.169,5.343,5.343,0,0,0,10.071,7.5H5.091A4.572,4.572,0,0,1,9.166.834Zm-8.333,5A1.673,1.673,0,0,1,2.5,4.167H3.9A5.369,5.369,0,0,0,4.164,7.5H2.587A1.732,1.732,0,0,1,.837,5.987a1.282,1.282,0,0,1,0-.15ZM22.916,24.166H2.5A1.667,1.667,0,0,1,.833,22.5V19.166H3.579a.839.839,0,0,1,.642.3l.677.815a1.692,1.692,0,1,0,.642-.531l-.679-.816a1.667,1.667,0,0,0-1.284-.6H.833V16.666H7.976a1.667,1.667,0,1,0,0-.833H.833V14.167H3.579a1.67,1.67,0,0,0,1.283-.6l.68-.817a1.647,1.647,0,0,0,.708.167,1.678,1.678,0,1,0-1.351-.7l-.676.813a.84.84,0,0,1-.644.3H.833V7.667a2.642,2.642,0,0,0,1.754.667H22.916a.417.417,0,0,1,.417.417v5H21.249a2.5,2.5,0,0,0,0,5h2.083v5A.417.417,0,0,1,22.916,24.166ZM6.25,20.416a.833.833,0,1,1-.833.833A.833.833,0,0,1,6.25,20.416Zm2.5-4.167a.833.833,0,1,1,.833.833A.833.833,0,0,1,8.75,16.25Zm-3.333-5a.833.833,0,1,1,.833.833A.833.833,0,0,1,5.416,11.25ZM24.166,17.5a.417.417,0,0,1-.417.417h-2.5a1.667,1.667,0,0,1,0-3.333h2.5a.417.417,0,0,1,.417.417Z" transform="translate(0 0)" fill="#F4F5F5"></path></g></svg>