<svg id="Group_15482" data-name="Group 15482" xmlns="http://www.w3.org/2000/svg" xmlns:xlink="http://www.w3.org/1999/xlink" width="70" height="70" viewBox="0 0 70 70">
  <defs>
    <clipPath id="clip-path">
      <circle id="Ellipse_679" data-name="Ellipse 679" cx="30" cy="30" r="30" fill="none"/>
    </clipPath>
  </defs>
  <g id="Group_15450" data-name="Group 15450">
    <g id="Ellipse_674" data-name="Ellipse 674" fill="none" stroke="#8d8d8d" stroke-width="0.5">
      <circle cx="35" cy="35" r="35" stroke="none"/>
      <circle cx="35" cy="35" r="34.75" fill="none"/>
    </g>
    <g id="Mask_Group_887" data-name="Mask Group 887" transform="translate(5 5)" clip-path="url(#clip-path)">
      <g id="logo-amazon" transform="translate(0 20.975)">
        <path id="Path_23941" data-name="Path 23941" d="M12.769,4.308v5.8a.355.355,0,0,1-.355.355H10.582a.355.355,0,0,1-.355-.355V.671a.355.355,0,0,1,.355-.355h1.7a.355.355,0,0,1,.355.355V2a2.732,2.732,0,0,1,2.4-1.9,2.447,2.447,0,0,1,2.5,1.76A2.687,2.687,0,0,1,19.984.1,2.529,2.529,0,0,1,22.717,2.77l.021,1.558v5.8a.355.355,0,0,1-.355.355H20.551a.355.355,0,0,1-.355-.355L20.179,3.8c.052-1.434-1.108-1.33-1.108-1.33-1.46.026-1.319,1.857-1.319,1.857v5.8a.355.355,0,0,1-.355.355H15.565a.355.355,0,0,1-.355-.355V3.943s.107-1.486-1.2-1.486C14.014,2.457,12.723,2.288,12.769,4.308ZM60,4.291v5.8a.355.355,0,0,1-.355.355l-1.906.037a.355.355,0,0,1-.355-.355V3.943s.107-1.486-1.2-1.486c0,0-1.245-.061-1.245,2.269v5.387a.355.355,0,0,1-.355.355H52.756a.355.355,0,0,1-.355-.355V.671a.355.355,0,0,1,.355-.355h1.7a.355.355,0,0,1,.355.355V2a2.732,2.732,0,0,1,2.4-1.9,2.372,2.372,0,0,1,2.576,1.723A7.213,7.213,0,0,1,60,4.291ZM46.77.065c-2.343,0-4.243,1.975-4.243,5.3,0,2.926,1.466,5.3,4.243,5.3,2.62,0,4.243-2.372,4.243-5.3,0-3.265-1.9-5.3-4.243-5.3Zm1.479,5.416A9.267,9.267,0,0,1,48.093,7.4C47.87,8.72,46.91,8.722,46.768,8.715S45.647,8.707,45.447,7.4a9.267,9.267,0,0,1-.156-1.916V5.273a9.267,9.267,0,0,1,.156-1.916c.2-1.31,1.169-1.324,1.322-1.318s1.1-.005,1.324,1.318a9.267,9.267,0,0,1,.156,1.916ZM41.464,1.988V.633a.355.355,0,0,0-.355-.355H35.053A.355.355,0,0,0,34.7.633V1.977a.355.355,0,0,0,.355.355h3.159L34.472,7.757a.914.914,0,0,0-.142.463v1.65s-.024.566.617.237A6.318,6.318,0,0,1,38,9.418a6.889,6.889,0,0,1,3.145.748s.522.237.522-.285V8.445s.047-.38-.451-.617a6.654,6.654,0,0,0-3.347-.665ZM8.813,8.779l-.574-.873a1.474,1.474,0,0,1-.169-.691V3.187C8.148-.293,4.29.007,4.29.007.86.007.353,2.676.353,2.676c-.143.537.273.55.273.55L2.3,3.4a.338.338,0,0,0,.39-.275A1.465,1.465,0,0,1,4.147,1.956,1.181,1.181,0,0,1,5.476,3.109v.965a8.778,8.778,0,0,0-3.923.834A3.189,3.189,0,0,0,0,7.71a2.735,2.735,0,0,0,2.894,2.907A4.04,4.04,0,0,0,5.841,9.261a5.507,5.507,0,0,0,.926,1.121.429.429,0,0,0,.613.052l1.356-1.16A.334.334,0,0,0,8.813,8.779ZM3.8,8.741c-.871,0-1.194-.865-1.05-1.715s.9-1.519,2.727-1.5v.517c.065,2.258-.953,2.7-1.678,2.7Zm29.364.038-.573-.873a1.475,1.475,0,0,1-.17-.691V3.187c.078-3.48-3.78-3.18-3.78-3.18-3.43,0-3.937,2.669-3.937,2.669-.143.537.273.55.273.55l1.676.17a.338.338,0,0,0,.39-.275A1.465,1.465,0,0,1,28.5,1.956a1.181,1.181,0,0,1,1.329,1.153v.965a8.778,8.778,0,0,0-3.923.834,3.189,3.189,0,0,0-1.551,2.8,2.735,2.735,0,0,0,2.894,2.907A4.04,4.04,0,0,0,30.19,9.261a5.515,5.515,0,0,0,.925,1.121.429.429,0,0,0,.613.052l1.356-1.16a.334.334,0,0,0,.078-.5Zm-5.015-.038c-.871,0-1.194-.865-1.05-1.715s.9-1.519,2.727-1.5v.517c.065,2.258-.953,2.7-1.678,2.7Z" transform="translate(0 0)"/>
        <g id="Group_15446" data-name="Group 15446" transform="translate(8.46 10.905)">
          <path id="Path_23942" data-name="Path 23942" d="M37.775,16.4s-.153.267.035.326a.482.482,0,0,0,.478-.163A6.759,6.759,0,0,0,40.27,11.8s.014-.384-.14-.489c0,0-.606-.536-2.786-.373a5.774,5.774,0,0,0-2.937,1.049.284.284,0,0,0-.093.186s-.022.226.548.128a15.118,15.118,0,0,1,3.03-.128s.583.07.746.268c0,0,.268.221.128.956A13.967,13.967,0,0,1,37.775,16.4Z" transform="translate(-8.46 -10.905)" fill="#f3971b"/>
          <path id="Path_23943" data-name="Path 23943" d="M37.392,13.45a.461.461,0,0,1-.174.685,22.226,22.226,0,0,1-13.1,3.912,23.389,23.389,0,0,1-15.511-6s-.247-.217-.094-.419c0,0,.137-.186.493.016a31.911,31.911,0,0,0,15.36,4.137,31.7,31.7,0,0,0,12.279-2.424s.5-.257.75.089Z" transform="translate(-8.46 -10.905)" fill="#f3971b"/>
        </g>
      </g>
    </g>
  </g>
</svg>
