<svg xmlns="http://www.w3.org/2000/svg" width="22.5" height="14.999" viewBox="0 0 22.5 14.999">
  <g id="profile" transform="translate(-1.05 -9.45)">
    <path id="Path_24012" data-name="Path 24012" d="M21.792,24.449H2.808a1.727,1.727,0,0,1-1.251-.522,1.83,1.83,0,0,1-.507-1.287V11.259a1.83,1.83,0,0,1,.507-1.287A1.727,1.727,0,0,1,2.808,9.45H21.792a1.727,1.727,0,0,1,1.251.522,1.83,1.83,0,0,1,.507,1.287V22.641A1.786,1.786,0,0,1,21.792,24.449ZM2.808,10.173a1.047,1.047,0,0,0-1.055,1.085V22.641a1.047,1.047,0,0,0,1.055,1.085H21.792a1.071,1.071,0,0,0,1.055-1.085V11.259a1.047,1.047,0,0,0-1.055-1.085Z" transform="translate(0)" fill="#1d1d1d"/>
    <g id="Group_15521" data-name="Group 15521" transform="translate(3.67 12.008)">
      <path id="Path_24013" data-name="Path 24013" d="M45.256,15.58H29.388c-.463,0-.838-.163-.838-.365s.375-.365.838-.365H45.256c.463,0,.838.163.838.365S45.719,15.58,45.256,15.58Z" transform="translate(-28.55 -14.85)" fill="#1d1d1d"/>
      <path id="Path_24014" data-name="Path 24014" d="M34.026,20.28H28.915a.365.365,0,1,1,0-.73h5.111a.365.365,0,1,1,0,.73Z" transform="translate(-28.55 -17.262)" fill="#1d1d1d"/>
      <path id="Path_24015" data-name="Path 24015" d="M44.709,24.98H40.635c-.544,0-.985-.163-.985-.365s.441-.365.985-.365h4.073c.544,0,.985.163.985.365S45.253,24.98,44.709,24.98Z" transform="translate(-28.151 -19.675)" fill="#1d1d1d"/>
      <path id="Path_24016" data-name="Path 24016" d="M32.761,24.98H28.915a.365.365,0,1,1,0-.73h3.846a.365.365,0,0,1,0,.73Z" transform="translate(-28.55 -19.675)" fill="#1d1d1d"/>
      <path id="Path_24017" data-name="Path 24017" d="M42.492,29.68H34.025c-.373,0-.675-.163-.675-.365s.3-.365.675-.365h8.466c.373,0,.675.163.675.365S42.865,29.68,42.492,29.68Z" transform="translate(-25.623 -22.087)" fill="#1d1d1d"/>
      <path id="Path_24018" data-name="Path 24018" d="M29.645,29.68h-.73a.365.365,0,1,1,0-.73h.73a.365.365,0,1,1,0,.73Z" transform="translate(-28.55 -22.087)" fill="#1d1d1d"/>
    </g>
    <path id="Path_24019" data-name="Path 24019" d="M33.54,34.38H28.915a.365.365,0,1,1,0-.73H33.54a.365.365,0,1,1,0,.73Z" transform="translate(-24.88 -12.491)" fill="#1d1d1d"/>
  </g>
</svg>
