<svg id="_25x25_Back" data-name="25x25 Back" xmlns="http://www.w3.org/2000/svg" xmlns:xlink="http://www.w3.org/1999/xlink" width="25" height="25" viewBox="0 0 25 25">
  <defs>
    <clipPath id="clip-path">
      <rect id="Rectangle_4609" data-name="Rectangle 4609" width="25" height="25" fill="none"/>
    </clipPath>
  </defs>
  <g id="Mask_Group_872" data-name="Mask Group 872" clip-path="url(#clip-path)">
    <g id="smartphone-5" transform="translate(0.018)">
      <g id="Group_15325" data-name="Group 15325">
        <path id="Path_23842" data-name="Path 23842" d="M24.117,18.478,20.467,23.6a2.478,2.478,0,0,1-3.967.514L.961,7.784a2.121,2.121,0,0,1,.7-2.883L9.117,1.943s1.285-.459,3.232,1.892C13.993,5.82,21.672,14.3,24.024,16.892a1.267,1.267,0,0,1,.093,1.587Z" fill="#a7c6ff"/>
        <path id="Path_23843" data-name="Path 23843" d="M23.321,19.595l-2.854,4a2.478,2.478,0,0,1-3.967.514L.961,7.784a2.121,2.121,0,0,1,.7-2.883L7.573,2.556C9.581,6.6,14.789,15.512,23.321,19.595Z" fill="#a7c6ff"/>
        <path id="Path_23844" data-name="Path 23844" d="M22.939,18.235c-.652.914-3.372,4.73-3.376,4.736a.9.9,0,0,1-1.431.138L3.114,6.694a.9.9,0,0,1,.332-1.443l.772-.306.452.384a1.267,1.267,0,0,0,1.353.185L8,4.6a1.267,1.267,0,0,0,.7-1.433l.4-.159s1.185-.422,2.979,1.745C13.6,6.582,20.7,14.416,22.855,16.793A1.151,1.151,0,0,1,22.939,18.235Z" fill="#fff"/>
        <path id="Path_23845" data-name="Path 23845" d="M22.329,19.091c-2.838,3.982-2.762,3.874-2.766,3.881a.9.9,0,0,1-1.431.138L3.114,6.694a.9.9,0,0,1,.332-1.443l.772-.306.452.384a1.267,1.267,0,0,0,1.353.185L8,4.6a1.27,1.27,0,0,0,.453-.353C10.8,8.511,15.4,15.363,22.329,19.091Z" fill="#fff"/>
        <path id="Path_23846" data-name="Path 23846" d="M8.22,21.988c-1.244,2.6-4.207,3.733-6.289,2.244A4.622,4.622,0,0,1,.843,18.46a4.621,4.621,0,0,1,5.177-2.776c2.478.689,3.44,3.713,2.2,6.3Z" fill="#edd15a"/>
        <path id="Path_23847" data-name="Path 23847" d="M7.107,21.455a4.621,4.621,0,0,1-5.176,2.776A4.622,4.622,0,0,1,.843,18.46a4.621,4.621,0,0,1,5.177-2.776A4.621,4.621,0,0,1,7.107,21.455Z" fill="#fae26b"/>
        <ellipse id="Ellipse_671" data-name="Ellipse 671" cx="3.289" cy="2.328" rx="3.289" ry="2.328" transform="matrix(0.431, -0.902, 0.902, 0.431, 0.058, 21.892)" fill="#edd15a"/>
        <path id="Path_23848" data-name="Path 23848" d="M22.248,14.826a1.308,1.308,0,0,1-.11.536,15.981,15.981,0,0,1-4.024,5.06,1.307,1.307,0,0,1-2.145-.714C14.5,12.555,10.792,9.19,8.909,7.9A1.3,1.3,0,0,1,8.6,6.048a27.855,27.855,0,0,1,5.923-5.7,1.307,1.307,0,0,1,1.759.216c5.565,6.572,5.95,12.876,5.963,14.262Z" fill="#79e9b3"/>
        <path id="Path_23849" data-name="Path 23849" d="M22.248,14.826a1.308,1.308,0,0,1-.11.536,15.981,15.981,0,0,1-4.024,5.06,1.309,1.309,0,0,1-1.838-.1c1.882-8.343-.584-16.16-2.045-19.757q.155-.114.295-.215a1.307,1.307,0,0,1,1.759.216C21.85,7.136,22.234,13.44,22.248,14.826Z" fill="#14d2aa"/>
        <path id="Path_23850" data-name="Path 23850" d="M20.662,14.968a15.061,15.061,0,0,1-2.325,2.674c-.381-1.052-1.823-.9-1.84-.922a19.8,19.8,0,0,0-5.534-8.868,2.128,2.128,0,0,0-.116-2.68,17.609,17.609,0,0,1,2.979-2.948,2.181,2.181,0,0,0,2.674.065A29.048,29.048,0,0,1,21.094,12.1a2.516,2.516,0,0,0-.431,2.867Z" fill="#b4ffc6"/>
        <path id="Path_23851" data-name="Path 23851" d="M20.662,14.968a15.061,15.061,0,0,1-2.325,2.674,1.577,1.577,0,0,0-1.5-.914A34.965,34.965,0,0,0,15.024,2.707,2.253,2.253,0,0,0,16.5,2.289,29.048,29.048,0,0,1,21.094,12.1a2.516,2.516,0,0,0-.431,2.867Z" fill="#79e9b3"/>
        <path id="Path_23852" data-name="Path 23852" d="M23.373,8.147c-1.77,1.412-4.539.556-5.713-1.9C16.535,3.895,17.471,1.34,19.474.688a4.072,4.072,0,0,1,4.743,2.423A4.142,4.142,0,0,1,23.373,8.147Z" fill="#edd15a"/>
        <path id="Path_23853" data-name="Path 23853" d="M23.373,8.147a4.073,4.073,0,0,1-4.742-2.424A4.143,4.143,0,0,1,19.474.688a4.072,4.072,0,0,1,4.743,2.423A4.142,4.142,0,0,1,23.373,8.147Z" fill="#fae26b"/>
        <ellipse id="Ellipse_672" data-name="Ellipse 672" cx="2.069" cy="2.923" rx="2.069" ry="2.923" transform="matrix(0.902, -0.431, 0.431, 0.902, 18.651, 2.687)" fill="#edd15a"/>
      </g>
      <g id="Group_15326" data-name="Group 15326">
        <path id="Path_23854" data-name="Path 23854" d="M22.352,14.89c0-.022,0-.044,0-.066a19.369,19.369,0,0,0-1.126-5.9,3.269,3.269,0,0,0,1.594-.313c1.86-.889,2.529-3.379,1.491-5.55A4.73,4.73,0,0,0,22,.758a3.348,3.348,0,0,0-4.384,1.325C17.223,1.546,16.8,1.013,16.365.5a1.419,1.419,0,0,0-1.9-.233,30.318,30.318,0,0,0-3.021,2.486c-1.42-1.22-2.324-.918-2.366-.9C1.291,4.934,1.617,4.8,1.606,4.81A2.235,2.235,0,0,0,.869,7.835c.01.018,15.557,16.353,15.564,16.359a2.909,2.909,0,0,0,2.332.769,2.894,2.894,0,0,0,1.79-1.308L24.2,18.539a1.38,1.38,0,0,0-.1-1.719c-.429-.472-1.035-1.141-1.75-1.93ZM21.915.951a4.52,4.52,0,0,1,2.207,2.207c.988,2.066.363,4.43-1.392,5.269S18.743,8.268,17.755,6.2a4.52,4.52,0,0,1-.332-3.1A3.164,3.164,0,0,1,21.915.951ZM19.83,8.577a31.619,31.619,0,0,1,1.147,3.5,2.614,2.614,0,0,0-.434,2.884,14.813,14.813,0,0,1-2.169,2.506,1.879,1.879,0,0,0-1.8-.849A19.97,19.97,0,0,0,11.1,7.84a2.2,2.2,0,0,0-.126-2.665,17.355,17.355,0,0,1,2.849-2.819,2.26,2.26,0,0,0,2.646.075c.229.307.454.627.672.952A4.907,4.907,0,0,0,19.83,8.577ZM14.587.434a1.208,1.208,0,0,1,1.617.2c.456.539.894,1.1,1.3,1.656a3.9,3.9,0,0,0-.3.81c-.2-.3-.412-.591-.624-.872A.105.105,0,0,0,16.44,2.2a2.081,2.081,0,0,1-2.552-.062.105.105,0,0,0-.128,0,17.564,17.564,0,0,0-3,2.966.105.105,0,0,0,0,.127,2.025,2.025,0,0,1,.118,2.553.105.105,0,0,0,.011.142,19.754,19.754,0,0,1,5.5,8.819.106.106,0,0,0,.1.077c.648-.014,1.475.123,1.739.852a.105.105,0,0,0,.17.041,14.884,14.884,0,0,0,2.341-2.693.105.105,0,0,0,.009-.1,2.422,2.422,0,0,1,.411-2.754.105.105,0,0,0,.025-.1,31.776,31.776,0,0,0-1.1-3.386,3.813,3.813,0,0,0,.9.22,19.212,19.212,0,0,1,1.145,5.917,1.209,1.209,0,0,1-.1.493,15.9,15.9,0,0,1-4,5.023,1.2,1.2,0,0,1-1.973-.657c-1.2-5.843-4.059-9.788-7.1-11.873a1.2,1.2,0,0,1-.282-1.7,28.084,28.084,0,0,1,5.9-5.678ZM8.826,3.23l.315-.125a1.893,1.893,0,0,1,1.5.43,24.289,24.289,0,0,0-2.12,2.449,1.406,1.406,0,0,0,.332,2c2,1.371,5.576,4.72,7.016,11.741a1.411,1.411,0,0,0,2.318.772,17.154,17.154,0,0,0,3.779-4.535l.814.9a1.052,1.052,0,0,1,.076,1.31c-3.531,4.953-3.375,4.733-3.38,4.743a.793.793,0,0,1-1.263.121L3.191,6.623a.794.794,0,0,1,.293-1.274L4.2,5.067l.4.343a1.375,1.375,0,0,0,1.466.2l1.98-.917A1.379,1.379,0,0,0,8.826,3.23ZM24.031,18.417c-3.667,5.144-3.651,5.12-3.655,5.127a2.733,2.733,0,0,1-1.65,1.212,2.673,2.673,0,0,1-2.155-.722L1.048,7.722a2.783,2.783,0,0,1-.28-1.008A1.741,1.741,0,0,1,1.706,5L9.151,2.043c.008,0,.831-.263,2.139.852q-.249.237-.5.489a2.051,2.051,0,0,0-1.721-.475l-.4.159a.105.105,0,0,0-.064.121A1.167,1.167,0,0,1,7.959,4.5l-1.98.917A1.164,1.164,0,0,1,4.738,5.25l-.452-.384a.1.1,0,0,0-.107-.018l-.772.306a1,1,0,0,0-.371,1.612L18.055,23.18a1,1,0,0,0,1.6-.156c-.021.032.133-.187,3.37-4.728a1.263,1.263,0,0,0-.092-1.573l-.868-.957q.089-.179.169-.361a1.415,1.415,0,0,0,.08-.241l1.631,1.8a1.168,1.168,0,0,1,.085,1.455Z"/>
        <path id="Path_23855" data-name="Path 23855" d="M6.644,15.806a3.89,3.89,0,0,0-3.3.018A5.309,5.309,0,0,0,.748,18.414C-.417,20.85.333,23.644,2.419,24.641c2.144,1.025,4.764-.24,5.9-2.608C9.48,19.6,8.73,16.8,6.644,15.806Zm1.482,6.136c-1.082,2.263-3.578,3.483-5.616,2.509C.528,23.5-.177,20.836.938,18.505a5.1,5.1,0,0,1,2.49-2.489A3.687,3.687,0,0,1,6.553,16C8.535,16.944,9.24,19.611,8.126,21.942Z"/>
        <path id="Path_23856" data-name="Path 23856" d="M4.8,23.76a.105.105,0,0,0,.108.18,6.283,6.283,0,0,0,2.853-5.5.105.105,0,0,0-.21.012A6.073,6.073,0,0,1,4.8,23.76Z"/>
        <path id="Path_23857" data-name="Path 23857" d="M6.174,18.53a2.144,2.144,0,0,0-1.128-1.657c-1.211-.579-2.853.324-3.661,2.013S.906,22.42,2.116,23a2.156,2.156,0,0,0,2-.162A4.409,4.409,0,0,0,6.174,18.53ZM4.012,22.653a1.941,1.941,0,0,1-1.8.156C1.1,22.28.817,20.561,1.575,18.977c.728-1.523,2.234-2.462,3.38-1.914a1.941,1.941,0,0,1,1.012,1.5A4.2,4.2,0,0,1,4.012,22.653Z"/>
        <path id="Path_23858" data-name="Path 23858" d="M20.6,7.992a.105.105,0,0,0,.108-.18A5.386,5.386,0,0,1,18.264,3.1a.105.105,0,1,0-.21-.012A5.6,5.6,0,0,0,20.6,7.992Z"/>
        <path id="Path_23859" data-name="Path 23859" d="M21.3,7.012a1.926,1.926,0,0,0,1.787.144c1.082-.517,1.376-2.164.656-3.671s-2.187-2.312-3.269-1.794S19.1,3.855,19.821,5.362A3.7,3.7,0,0,0,21.3,7.012Zm-.115-5.269a2.923,2.923,0,0,1,2.367,1.833c.67,1.4.421,2.923-.557,3.39a1.714,1.714,0,0,1-1.593-.138,3.492,3.492,0,0,1-1.4-1.557c-.814-1.7-.252-3.528,1.178-3.528Z"/>
      </g>
    </g>
  </g>
</svg>
