<svg id="Group_7932" data-name="Group 7932" xmlns="http://www.w3.org/2000/svg" width="14.584" height="4.759" viewBox="0 0 14.584 4.759">
  <path id="Path_16118" data-name="Path 16118" d="M-.358-6.405a.142.142,0,0,1-.1-.045.142.142,0,0,1,.006-.2A13.311,13.311,0,0,1,1.489-8.1a11.217,11.217,0,0,1,2.016-1,6.867,6.867,0,0,1,2.359-.458,7.176,7.176,0,0,1,2.395.457,12.344,12.344,0,0,1,2.1,1,15.272,15.272,0,0,1,2.062,1.452.142.142,0,0,1,.014.2.142.142,0,0,1-.2.014,14.98,14.98,0,0,0-2.024-1.424A12.051,12.051,0,0,0,8.16-8.839a6.892,6.892,0,0,0-2.3-.44,6.585,6.585,0,0,0-2.261.44,10.934,10.934,0,0,0-1.964.975A13.264,13.264,0,0,0-.26-6.444.142.142,0,0,1-.358-6.405Z" transform="translate(1.309 9.562)" fill="#555"/>
  <path id="Path_19225" data-name="Path 19225" d="M.951.284a.667.667,0,1,0,.667.667A.667.667,0,0,0,.951.284M.951,0A.951.951,0,1,1,0,.951.951.951,0,0,1,.951,0Z" transform="translate(0 2.857)" fill="#555"/>
  <path id="Path_19226" data-name="Path 19226" d="M.951,0A.951.951,0,1,1,0,.951.951.951,0,0,1,.951,0Z" transform="translate(12.681 2.857)" fill="#555"/>
  <path id="Path_19226_-_Outline" data-name="Path 19226 - Outline" d="M.951.284a.667.667,0,1,0,.667.667A.667.667,0,0,0,.951.284M.951,0A.951.951,0,1,1,0,.951.951.951,0,0,1,.951,0Z" transform="translate(12.681 2.857)" fill="#555"/>
</svg>
