<svg xmlns="http://www.w3.org/2000/svg" width="20" height="20" viewBox="0 0 20 20">
  <g id="Group_15267" data-name="Group 15267" transform="translate(-363 -851)">
    <g id="add-post" transform="translate(363 851)">
      <path id="Path_23800" data-name="Path 23800" d="M15.333,2V5.333A2.667,2.667,0,0,0,18,8h3.992q.008.1.008.2v8.464A5.333,5.333,0,0,1,16.666,22H7.333A5.333,5.333,0,0,1,2,16.666V7.333A5.333,5.333,0,0,1,7.333,2Z" transform="translate(-2 -2)" fill="#8d8d8d" fill-rule="evenodd"/>
      <path id="Path_23801" data-name="Path 23801" d="M46,2.742V5.828a1.333,1.333,0,0,0,1.333,1.333h3.513a2.665,2.665,0,0,0-.361-.414L46.7,3.212A2.666,2.666,0,0,0,46,2.742Z" transform="translate(-31.334 -2.495)" fill="#8d8d8d"/>
    </g>
    <path id="Path_23812" data-name="Path 23812" d="M1.155-1.531a.642.642,0,0,1-.474-.186A.622.622,0,0,1,.5-2.174a.594.594,0,0,1,.186-.449A.659.659,0,0,1,1.155-2.8H8.1a.642.642,0,0,1,.474.186.622.622,0,0,1,.186.457.594.594,0,0,1-.186.449.659.659,0,0,1-.474.178ZM4.609,2.008a.718.718,0,0,1-.516-.2A.675.675,0,0,1,3.881,1.3V-5.7a.7.7,0,0,1,.212-.525.739.739,0,0,1,.533-.2.682.682,0,0,1,.516.2.727.727,0,0,1,.195.525V1.28a.7.7,0,0,1-.728.728Z" transform="translate(368.168 859.289) rotate(45)" fill="#fcfcfc"/>
  </g>
</svg>
