<svg xmlns="http://www.w3.org/2000/svg" xmlns:xlink="http://www.w3.org/1999/xlink" width="16" height="16" viewBox="0 0 16 16">
  <defs>
    <clipPath id="clip-path">
      <rect id="Rectangle_4561" data-name="Rectangle 4561" width="16" height="16" fill="none"/>
    </clipPath>
  </defs>
  <g id="Mask_Group_864" data-name="Mask Group 864" clip-path="url(#clip-path)">
    <g id="money-12" transform="translate(0 2.106)">
      <path id="Path_23774" data-name="Path 23774" d="M15.522,6.464h-.613a.941.941,0,0,0-.669-1.155L3.139,2.342a.942.942,0,0,0-1.155.669L.5,8.559a.944.944,0,0,0,.669,1.158l1.917.512v2.924a.946.946,0,0,0,.945.944H15.522a.946.946,0,0,0,.945-.944V7.409a.946.946,0,0,0-.945-.945ZM1.306,9.2a.411.411,0,0,1-.292-.5L2.5,3.148A.408.408,0,0,1,2.69,2.9.4.4,0,0,1,3,2.857L14.1,5.825a.408.408,0,0,1,.29.5l-.036.137H4.031a.946.946,0,0,0-.945.945V9.676Zm14.627,3.951a.412.412,0,0,1-.411.411H4.031a.412.412,0,0,1-.412-.412V7.409A.412.412,0,0,1,4.031,7H15.522a.412.412,0,0,1,.411.411Z" transform="translate(-0.467 -2.31)" fill="#513aaf"/>
      <path id="Path_23775" data-name="Path 23775" d="M8.905,7.238a2.339,2.339,0,1,0,2.339,2.339A2.339,2.339,0,0,0,8.905,7.238Zm0,4.144a1.806,1.806,0,1,1,1.805-1.806,1.806,1.806,0,0,1-1.805,1.806Z" transform="translate(0.404 -1.606)" fill="#513aaf"/>
      <path id="Path_23776" data-name="Path 23776" d="M12.442,8.254a1.178,1.178,0,1,0,1.178,1.178,1.178,1.178,0,0,0-1.178-1.178Zm0,1.822a.645.645,0,1,1,.645-.644A.645.645,0,0,1,12.442,10.076Z" transform="translate(1.075 -1.46)" fill="#513aaf"/>
      <path id="Path_23777" data-name="Path 23777" d="M5.078,10.61A1.178,1.178,0,1,0,3.9,9.432,1.178,1.178,0,0,0,5.078,10.61Zm0-1.822a.645.645,0,1,1-.644.644A.645.645,0,0,1,5.078,8.787Z" transform="translate(0.024 -1.46)" fill="#513aaf"/>
      <path id="Path_23778" data-name="Path 23778" d="M4.185,11.258H4.044a.267.267,0,0,0,0,.533h.141a.267.267,0,0,0,0-.533Z" transform="translate(0.006 -1.031)" fill="#513aaf"/>
      <path id="Path_23779" data-name="Path 23779" d="M7.13,11.258H4.755a.267.267,0,0,0,0,.533H7.13a.267.267,0,0,0,0-.533Z" transform="translate(0.108 -1.031)" fill="#513aaf"/>
    </g>
  </g>
</svg>
