<svg xmlns="http://www.w3.org/2000/svg" xmlns:xlink="http://www.w3.org/1999/xlink" width="25.102" height="30.463" viewBox="0 0 25.102 30.463">
  <defs>
    <filter id="Path_15854" x="2.975" y="7.918" width="22.127" height="22.545" filterUnits="userSpaceOnUse">
      <feOffset dy="3" input="SourceAlpha"/>
      <feGaussianBlur stdDeviation="3" result="blur"/>
      <feFlood flood-opacity="0.161"/>
      <feComposite operator="in" in2="blur"/>
      <feComposite in="SourceGraphic"/>
    </filter>
    <filter id="Path_15855" x="0" y="0" width="25.102" height="25.102" filterUnits="userSpaceOnUse">
      <feOffset dy="3" input="SourceAlpha"/>
      <feGaussianBlur stdDeviation="3" result="blur-2"/>
      <feFlood flood-opacity="0.161"/>
      <feComposite operator="in" in2="blur-2"/>
      <feComposite in="SourceGraphic"/>
    </filter>
  </defs>
  <g id="pie-chart" transform="translate(1.341 6)">
    <path id="Path_15853" data-name="Path 15853" d="M12.2,13.143a7.2,7.2,0,0,1-4.856,1.883A7.435,7.435,0,0,1,0,7.519,7.44,7.44,0,0,1,6.889.03V3.171A4.382,4.382,0,0,0,7.348,11.9a4.209,4.209,0,0,0,2.688-.97Z" transform="translate(0 -0.03)" fill="#fcfcfc"/>
    <g transform="matrix(1, 0, 0, 1, -1.34, -6)" filter="url(#Path_15854)">
      <path id="Path_15854-2" data-name="Path 15854" d="M21.577,12.75a7.466,7.466,0,0,1-1.886,4.545L17.45,15.054a4.36,4.36,0,0,0,.95-2.3Z" transform="translate(-5.47 1.17)" fill="#fcfcfc"/>
    </g>
    <g transform="matrix(1, 0, 0, 1, -1.34, -6)" filter="url(#Path_15855)">
      <path id="Path_15855-2" data-name="Path 15855" d="M19.852,7.132H16.675A4.418,4.418,0,0,0,12.75,3.208V.03A7.587,7.587,0,0,1,19.852,7.132Z" transform="translate(-3.75 5.97)" fill="#fcfcfc"/>
    </g>
  </g>
</svg>
