<svg xmlns="http://www.w3.org/2000/svg" width="20" height="20" viewBox="0 0 20 20">
  <path id="copy-4" d="M23.25,7.536V17.821a3.139,3.139,0,0,1-1.737,2.811c.011-.171.023-.343.023-.526V9.821a4.868,4.868,0,0,0-4.857-4.857H7.113a3.148,3.148,0,0,1,2.8-1.714h9.051A4.287,4.287,0,0,1,23.25,7.536Zm-6.571-.857H6.393A3.145,3.145,0,0,0,3.25,9.821V20.107A3.145,3.145,0,0,0,6.393,23.25H16.679a3.145,3.145,0,0,0,3.143-3.143V9.821A3.145,3.145,0,0,0,16.679,6.679Z" transform="translate(-3.25 -3.25)" fill="#404040"/>
</svg>
