<svg id="delete" xmlns="http://www.w3.org/2000/svg" width="16.244" height="20" viewBox="0 0 16.244 20">
  <path id="Path_14710" data-name="Path 14710" d="M222.812,154.7a.414.414,0,0,0-.414.414v7.822a.414.414,0,1,0,.828,0v-7.822A.414.414,0,0,0,222.812,154.7Zm0,0" transform="translate(-211.907 -149.674)" fill="#ff5f61"/>
  <path id="Path_14711" data-name="Path 14711" d="M104.812,154.7a.414.414,0,0,0-.414.414v7.822a.414.414,0,1,0,.828,0v-7.822A.414.414,0,0,0,104.812,154.7Zm0,0" transform="translate(-99.474 -149.674)" fill="#ff5f61"/>
  <path id="Path_14712" data-name="Path 14712" d="M1.327,5.953v11.54a2.584,2.584,0,0,0,.687,1.782A2.307,2.307,0,0,0,3.688,20H12.55a2.306,2.306,0,0,0,1.674-.724,2.584,2.584,0,0,0,.687-1.782V5.953a1.789,1.789,0,0,0-.459-3.519h-2.4V1.849A1.84,1.84,0,0,0,10.2,0H6.039a1.84,1.84,0,0,0-1.855,1.85v.585h-2.4a1.789,1.789,0,0,0-.459,3.519ZM12.55,19.062H3.688a1.483,1.483,0,0,1-1.424-1.569V5.994h11.71v11.5A1.483,1.483,0,0,1,12.55,19.062ZM5.121,1.849A.9.9,0,0,1,6.039.936H10.2a.9.9,0,0,1,.918.913v.585h-6ZM1.786,3.371H14.451a.843.843,0,1,1,0,1.686H1.786a.843.843,0,1,1,0-1.686Zm0,0" transform="translate(0.003 0.001)" fill="#ff5f61"/>
  <path id="Path_14713" data-name="Path 14713" d="M163.812,154.7a.414.414,0,0,0-.414.414v7.822a.414.414,0,1,0,.828,0v-7.822A.414.414,0,0,0,163.812,154.7Zm0,0" transform="translate(-155.69 -149.674)" fill="#ff5f61"/>
</svg>
