<svg xmlns="http://www.w3.org/2000/svg" xmlns:xlink="http://www.w3.org/1999/xlink" width="16" height="16" viewBox="0 0 16 16">
  <defs>
    <clipPath id="clip-path">
      <rect id="Rectangle_6679" data-name="Rectangle 6679" width="16" height="16" fill="none"/>
    </clipPath>
  </defs>
  <g id="Mask_Group_877" data-name="Mask Group 877" clip-path="url(#clip-path)">
    <g id="paper-plane" transform="translate(0.792 0)">
      <path id="Path_23910" data-name="Path 23910" d="M18.1,14.939c.017-.135-.819-10.167-1.084-10.414-.3-.28-1.271.414-2.469,1.271-.358.256-.736.526-1.122.789-.542.369-1.071.733-1.523,1.045l-.333.231.333.361.517.56.517.56.517.56.517.56.517.56.517.56.517.56.517.56.517.56.517.56Zm-7.68-12.17c-.031-.046-.053-.083-.067-.109A.617.617,0,0,1,10.423,2.768ZM8.887,7.675c.094.058.442.329.951.736.3.236.646.518,1.033.83l.517.417.761.615h0c.929.751,1.936,1.566,2.854,2.3l.517.413.517.411.517.407c.185.145.358.28.517.4a6.737,6.737,0,0,0,1.033.73c-.257.5-14.1-6.846-14.228-7.077S8.887,7.675,8.887,7.675Z" transform="translate(-3.797 0.927)" fill="#37ef9a" fill-rule="evenodd"/>
      <path id="Path_23911" data-name="Path 23911" d="M15.278,18.873c-.05-.3-.112-.658-.183-1.047-.148-.812-.333-1.753-.517-2.539a8.514,8.514,0,0,0-.449-1.507c.09.135.248.349.449.612.687.9,1.878,2.374,2.556,3.2-.542.369-1.071.733-1.523,1.045Z" transform="translate(-7.504 -10.085)" fill="#fff"/>
      <path id="Path_23912" data-name="Path 23912" d="M14.226,6.888c.071.389.133.749.183,1.047l.333.361.517.56.517.56.517.56.517.56.517.56.517.56.517.56.517.56.517.56.517.56,1.033,1.119a6.737,6.737,0,0,1-1.033-.73c-.159-.122-.332-.257-.517-.4l-.517-.407-.517-.411-.517-.413c-.918-.735-1.925-1.55-2.854-2.3h0l-.761-.615-.517-.417c-.387-.312-.737-.594-1.033-.83-.509-.407-.857-.678-.951-.736.135-.727.336-1.723.552-2.639.131-.558.268-1.085.4-1.5.2-.645.388-1.033.517-.874.014.026.036.063.067.109a8.514,8.514,0,0,1,.449,1.507c.184.786.369,1.727.517,2.539Z" transform="translate(-6.635 0.853)" fill="#fff"/>
      <g id="Group_15399" data-name="Group 15399">
        <path id="Path_23913" data-name="Path 23913" d="M3.89,11.283h0Zm.079.056.08.05c.108.066.262.156.458.267.391.222.943.525,1.6.882,1.32.713,3.069,1.637,4.823,2.538s3.511,1.779,4.846,2.4c.667.311,1.228.557,1.628.709.128.049.239.087.331.116l-.042-.03a7.909,7.909,0,0,1-.744-.535c-.131-.124-.272-.234-.421-.351-.007,0-.1-.031-.1-.072v0L16,16.967h0a.075.075,0,0,1-.074-.062l-.455-.362a.075.075,0,0,1-.057-.045l-.48-.384a.075.075,0,0,1-.026-.02c-.915-.733-1.918-1.544-2.842-2.292h0l0,0-.728-.589a.075.075,0,0,1-.048-.039l-.48-.388a.076.076,0,0,1-.03-.024c-.367-.3-.7-.565-.986-.793a.075.075,0,0,1-.056-.045c-.245-.2-.451-.358-.608-.48s-.246-.188-.3-.221h-.2l-.581,0c-.48,0-1.119,0-1.753.01s-1.264.025-1.726.053c-.231.014-.419.031-.543.051Zm4.958-.23c.134-.722.331-1.693.542-2.587.131-.557.268-1.083.4-1.5a4.228,4.228,0,0,1,.28-.724.378.378,0,0,1,.1-.129l0,0,0,0c.015.028.037.063.064.1a8.555,8.555,0,0,1,.441,1.486c.183.784.368,1.724.516,2.536.071.389.133.748.183,1.046l0,.022,6.136,6.648c-.147-.109-.323-.242-.521-.395-.158-.122-.331-.257-.516-.4l-.516-.407-.516-.41-.516-.413c-.917-.735-1.924-1.55-2.853-2.3h0l0,0-.758-.613-.517-.417c-.387-.312-.737-.594-1.033-.83-.255-.2-.469-.373-.632-.5-.125-.1-.222-.17-.283-.213ZM17.974,18.2l-6.332-6.861.263-.182c.452-.312.981-.676,1.523-1.045.387-.264.766-.535,1.123-.79h0c.6-.429,1.138-.814,1.564-1.057a2.346,2.346,0,0,1,.535-.242c.142-.036.224-.022.271.019h0a.2.2,0,0,1,.01.023.964.964,0,0,1,.027.1c.02.084.042.2.066.351.048.3.1.708.16,1.2.115.976.244,2.257.364,3.535s.231,2.552.311,3.515c.04.482.072.885.094,1.173.008.105.014.195.019.267ZM16.92,8.043h0ZM11.583,11.2l.236-.164c.433-.3.938-.646,1.456-1-.686-.84-1.835-2.265-2.506-3.143l-.129-.17c.085.279.174.624.262,1,.184.788.369,1.73.517,2.543C11.481,10.609,11.537,10.927,11.583,11.2Zm-1.138-5c.089.133.244.344.443.6.672.88,1.826,2.311,2.511,3.15.366-.25.724-.506,1.064-.75l0,0c.6-.426,1.141-.816,1.574-1.063a2.485,2.485,0,0,1,.572-.257.43.43,0,0,1,.414.057.142.142,0,0,1,.028.039.347.347,0,0,1,.018.042,1.117,1.117,0,0,1,.032.113c.021.09.044.212.069.362.048.3.1.714.161,1.2.116.978.244,2.26.365,3.538s.231,2.553.311,3.516c.04.482.072.886.094,1.174.011.144.019.259.024.34,0,.041,0,.073.006.1s0,.022,0,.03a.177.177,0,0,1,0,.024l0,.013-.006.012a.113.113,0,0,1-.062.054.2.2,0,0,1-.066.012.669.669,0,0,1-.156-.021,4,4,0,0,1-.489-.16c-.406-.154-.97-.4-1.638-.713-1.337-.623-3.1-1.5-4.851-2.4s-3.506-1.826-4.826-2.54c-.66-.357-1.213-.661-1.605-.883-.2-.111-.352-.2-.462-.269-.055-.033-.1-.061-.13-.083L3.8,11.4l-.016-.014a.107.107,0,0,1-.018-.023.091.091,0,0,1-.011-.058.1.1,0,0,1,.023-.049.158.158,0,0,1,.06-.039A.794.794,0,0,1,4,11.181c.132-.022.325-.039.558-.053.466-.028,1.1-.044,1.733-.053s1.275-.01,1.755-.01l.581,0h.158c.135-.722.331-1.689.541-2.581.132-.558.269-1.088.4-1.509a4.355,4.355,0,0,1,.292-.753.5.5,0,0,1,.151-.184.152.152,0,0,1,.109-.023.163.163,0,0,1,.1.061.678.678,0,0,1,.074.119ZM8.089,9.384a.075.075,0,0,0,0-.106L6.7,7.939a.075.075,0,1,0-.1.108L7.983,9.385A.075.075,0,0,0,8.089,9.384ZM14.644,7.52a.075.075,0,0,0,.031-.1L12.891,4.037a.075.075,0,1,0-.133.07l1.784,3.381a.075.075,0,0,0,.1.031ZM8.084,7.51A.075.075,0,0,0,8.092,7.4l-.161-.188c-.5-.58-1.76-2.061-2.33-2.679a.075.075,0,1,0-.11.1c.567.615,1.829,2.092,2.325,2.673l.162.189A.075.075,0,0,0,8.084,7.51Zm4.02-.716a.075.075,0,0,0,.038-.1c-.011-.026-.044-.084-.091-.164s-.113-.191-.191-.323l-.326-.544-.282-.47c-.478-.8-1.063-1.782-1.532-2.614a.075.075,0,1,0-.131.074c.47.834,1.056,1.82,1.534,2.618l.282.47.326.543c.078.131.143.24.19.321s.076.133.083.149a.075.075,0,0,0,.1.038Z" transform="translate(-3.754 -2.541)" fill-rule="evenodd"/>
      </g>
    </g>
  </g>
</svg>
