<svg xmlns="http://www.w3.org/2000/svg" width="20" height="20" viewBox="0 0 20 20">
  <g id="Group_15491" data-name="Group 15491" transform="translate(-120 -851)">
    <path id="download-5" d="M2,12C2,7.286,2,4.929,3.464,3.464S7.286,2,12,2s7.071,0,8.535,1.464S22,7.286,22,12s0,7.071-1.465,8.535S16.714,22,12,22s-7.071,0-8.536-1.464S2,16.714,2,12Z" transform="translate(118 849)" fill="#404040" fill-rule="evenodd"/>
    <path id="Path_23909" data-name="Path 23909" d="M9.146,14.788a1.562,1.562,0,0,1-1.074-.428L3.98,10.487A1.563,1.563,0,0,1,6.129,8.218l2.927,2.771L13.783,5.73a1.562,1.562,0,1,1,2.324,2.089l-5.8,6.451a1.563,1.563,0,0,1-1.1.517Zm0,0" transform="translate(120 851)" fill="#37ef9a" stroke="#404040" stroke-width="1.5"/>
  </g>
</svg>
