<svg xmlns="http://www.w3.org/2000/svg" width="20" height="20" viewBox="0 0 20 20">
  <path id="download-5" d="M2,12C2,7.286,2,4.929,3.464,3.464S7.286,2,12,2s7.071,0,8.535,1.464S22,7.286,22,12s0,7.071-1.465,8.535S16.714,22,12,22s-7.071,0-8.536-1.464S2,16.714,2,12ZM12,6.25a.75.75,0,0,1,.75.75v5.189l1.72-1.72A.75.75,0,0,1,15.53,11.53l-3,3a.75.75,0,0,1-1.061,0l-3-3A.75.75,0,0,1,9.53,10.47l1.72,1.72V7A.75.75,0,0,1,12,6.25Zm-4,10a.75.75,0,1,0,0,1.5h8a.75.75,0,1,0,0-1.5Z" transform="translate(-2 -2)" fill="#404040" fill-rule="evenodd"/>
</svg>
