<svg id="_20x20" data-name="20x20" xmlns="http://www.w3.org/2000/svg" xmlns:xlink="http://www.w3.org/1999/xlink" width="18" height="18" viewBox="0 0 18 18">
  <defs>
    <clipPath id="clip-path">
      <rect id="Rectangle_4612" data-name="Rectangle 4612" width="18" height="18" fill="none"/>
    </clipPath>
  </defs>
  <g id="Mask_Group_923" data-name="Mask Group 923" clip-path="url(#clip-path)">
    <path id="compliance" d="M17.53,2.27h-.415a1.485,1.485,0,0,0-1.463-1.252H5.009A1.489,1.489,0,0,0,3.522,2.5v6.51A4.571,4.571,0,0,1,2.4,9.157H1.565a.549.549,0,0,0-.548.548v4.025a5.31,5.31,0,0,0,4.527,5.277.6.6,0,0,0,.09.007.59.59,0,0,0,.09-.007,5.455,5.455,0,0,0,.561-.119,1.488,1.488,0,0,0,.6.13H17.53a1.489,1.489,0,0,0,1.487-1.487V3.757A1.489,1.489,0,0,0,17.53,2.27ZM3.991,2.5A1.019,1.019,0,0,1,5.009,1.487H15.652a1.017,1.017,0,0,1,.987.783H6.887A1.489,1.489,0,0,0,5.4,3.757V8.066a.552.552,0,0,0-.116.065,4.581,4.581,0,0,1-1.293.735ZM5.4,14.7a.548.548,0,0,1-.775,0L3.305,13.38a.235.235,0,0,1,.332-.332l1.325,1.325a.066.066,0,0,0,.111,0l2.615-2.615a.235.235,0,0,1,.332.332L5.4,14.7ZM18.548,17.53a1.019,1.019,0,0,1-1.017,1.017H7.215a5.288,5.288,0,0,0,2.814-3.287H16.9a.235.235,0,0,0,0-.47H10.145a5.43,5.43,0,0,0,.107-1.062v-.347H16.9a.235.235,0,0,0,0-.47H10.252V11.5H16.9a.235.235,0,0,0,0-.47H10.252V9.7A.549.549,0,0,0,9.7,9.157H8.874A4.594,4.594,0,0,1,5.986,8.131a.552.552,0,0,0-.116-.065V3.757A1.019,1.019,0,0,1,6.887,2.739H17.53a1.019,1.019,0,0,1,1.017,1.017ZM15.887,6.887a.235.235,0,0,1-.235.235H8.765a.235.235,0,0,1,0-.47h6.887A.235.235,0,0,1,15.887,6.887Zm-6.1-1.878a.235.235,0,0,1,.235-.235H14.4a.235.235,0,1,1,0,.47H10.017A.235.235,0,0,1,9.783,5.009Z" transform="translate(-1.018 -1.018)" fill="#1d1d1d"/>
  </g>
</svg>
