<svg xmlns="http://www.w3.org/2000/svg" width="22" height="14.999" viewBox="0 0 22 14.999">
  <g id="profile" transform="translate(-1.05 -9.45)">
    <g id="Group_15520" data-name="Group 15520" transform="translate(2.851 11.765)">
      <path id="Ellipse_683" data-name="Ellipse 683" d="M1.66-.75A2.41,2.41,0,1,1-.75,1.66,2.412,2.412,0,0,1,1.66-.75Zm0,4.089A1.679,1.679,0,1,0-.02,1.66,1.681,1.681,0,0,0,1.66,3.339Z" transform="translate(3.33 0.75)" fill="#388cff"/>
      <path id="Path_24011" data-name="Path 24011" d="M14.121,30.107H5.358a.365.365,0,0,1-.346-.25,5.2,5.2,0,0,1-.262-1.576,2.938,2.938,0,0,1,1.556-2.8A7.278,7.278,0,0,1,9.74,24.85a7.3,7.3,0,0,1,3.453.628,2.939,2.939,0,0,1,1.536,2.8,5.2,5.2,0,0,1-.262,1.576A.365.365,0,0,1,14.121,30.107Zm-8.49-.73h8.219a4.389,4.389,0,0,0,.15-1.1c0-1.919-1.234-2.7-4.259-2.7a6.627,6.627,0,0,0-3.089.541,2.2,2.2,0,0,0-1.17,2.161A4.389,4.389,0,0,0,5.63,29.377Z" transform="translate(-4.75 -19.739)" fill="#388cff"/>
    </g>
    <path id="Path_24012" data-name="Path 24012" d="M21.331,24.449H2.769a1.67,1.67,0,0,1-1.223-.522,1.853,1.853,0,0,1-.5-1.287V11.259a1.853,1.853,0,0,1,.5-1.287A1.67,1.67,0,0,1,2.769,9.45H21.331a1.67,1.67,0,0,1,1.223.522,1.853,1.853,0,0,1,.5,1.287V22.641A1.767,1.767,0,0,1,21.331,24.449ZM2.769,10.173a1.036,1.036,0,0,0-1.031,1.085V22.641a1.036,1.036,0,0,0,1.031,1.085H21.331a1.06,1.06,0,0,0,1.031-1.085V11.259a1.036,1.036,0,0,0-1.031-1.085Z" transform="translate(0)" fill="#388cff"/>
    <g id="Group_15522" data-name="Group 15522" transform="translate(13.071 12.009)">
      <g id="Group_15521" data-name="Group 15521" transform="translate(0 0)">
        <path id="Path_24013" data-name="Path 24013" d="M35.828,15.58H28.915a.365.365,0,0,1,0-.73h6.912a.365.365,0,0,1,0,.73Z" transform="translate(-28.55 -14.85)" fill="#388cff"/>
        <path id="Path_24014" data-name="Path 24014" d="M34.026,20.28H28.915a.365.365,0,1,1,0-.73h5.111a.365.365,0,1,1,0,.73Z" transform="translate(-28.55 -17.262)" fill="#388cff"/>
        <path id="Path_24015" data-name="Path 24015" d="M41.524,24.98H40.015a.365.365,0,1,1,0-.73h1.509a.365.365,0,0,1,0,.73Z" transform="translate(-34.247 -19.674)" fill="#388cff"/>
        <path id="Path_24016" data-name="Path 24016" d="M32.761,24.98H28.915a.365.365,0,1,1,0-.73h3.846a.365.365,0,0,1,0,.73Z" transform="translate(-28.55 -19.674)" fill="#388cff"/>
        <path id="Path_24017" data-name="Path 24017" d="M38.291,29.68H33.715a.365.365,0,0,1,0-.73h4.576a.365.365,0,0,1,0,.73Z" transform="translate(-31.013 -22.086)" fill="#388cff"/>
        <path id="Path_24018" data-name="Path 24018" d="M29.645,29.68h-.73a.365.365,0,1,1,0-.73h.73a.365.365,0,1,1,0,.73Z" transform="translate(-28.55 -22.086)" fill="#388cff"/>
      </g>
      <path id="Path_24019" data-name="Path 24019" d="M33.54,34.38H28.915a.365.365,0,1,1,0-.73H33.54a.365.365,0,1,1,0,.73Z" transform="translate(-28.55 -24.498)" fill="#388cff"/>
    </g>
  </g>
</svg>
