<svg xmlns="http://www.w3.org/2000/svg" width="14" height="14" viewBox="0 0 14 14">
  <g id="Group_15474" data-name="Group 15474" transform="translate(-130.001 -132.001)">
    <g id="Group_14013" data-name="Group 14013" transform="translate(130.268 131.906)">
      <path id="hidden" d="M9.372,8.335a2.5,2.5,0,0,0-2.2-3.665,1.226,1.226,0,0,0-.228.014L6.028,3.314a7.335,7.335,0,0,1,1.141-.086,8.463,8.463,0,0,1,6.717,3.744c.014.029.029.057.043.093a.357.357,0,0,1,0,.2.27.27,0,0,1-.043.093c-.007.007-.007.014-.014.021a9.19,9.19,0,0,1-3.223,2.867ZM.409,7.065C.423,7.03.438,7,.452,6.973a8.968,8.968,0,0,1,4.007-3.23L2.594.945a.357.357,0,0,1,.593-.4l8.557,12.835a.357.357,0,0,1-.1.494.352.352,0,0,1-.2.06.357.357,0,0,1-.3-.159L9.178,10.821a7.4,7.4,0,0,1-2.009.28,8.455,8.455,0,0,1-6.7-3.722C.459,7.372.459,7.365.452,7.358a.27.27,0,0,1-.043-.093.357.357,0,0,1,0-.2ZM4.916,8.237a2.5,2.5,0,0,0,3.326,1.18l-.4-.606a1.773,1.773,0,0,1-1.931-2.9l-.4-.6a2.484,2.484,0,0,0-.59,2.926ZM8.952,7.165A1.778,1.778,0,0,0,7.419,5.4L8.895,7.614A1.845,1.845,0,0,0,8.952,7.165Z" transform="translate(-0.21 -0.299)" fill="#8d8d8d"/>
      <rect id="Rectangle_4561" data-name="Rectangle 4561" width="14" height="14" transform="translate(-0.267 0.094)" fill="none"/>
    </g>
  </g>
</svg>
