<svg xmlns="http://www.w3.org/2000/svg" xmlns:xlink="http://www.w3.org/1999/xlink" width="18" height="18" viewBox="0 0 18 18">
  <defs>
    <clipPath id="clip-path">
      <rect id="Rectangle_4561" data-name="Rectangle 4561" width="18" height="18" fill="none"/>
    </clipPath>
  </defs>
  <g id="Group_15509" data-name="Group 15509" transform="translate(-392 -373)">
    <g id="Mask_Group_911" data-name="Mask Group 911" transform="translate(392 373)" clip-path="url(#clip-path)">
      <g id="folder-history" transform="translate(0 0.486)">
        <path id="Path_24006" data-name="Path 24006" d="M16.428,8.229a5.2,5.2,0,0,0-.816-.513V3.8a1.284,1.284,0,0,0-1.026-1.257V1.827a.741.741,0,0,0-.741-.741H2.364a.743.743,0,0,0-.741.741V4.164A1.284,1.284,0,0,0,.6,5.421v8.352a1.283,1.283,0,0,0,1.284,1.281H8.166a5.5,5.5,0,0,0,8.262,1.932,5.5,5.5,0,0,0,0-8.757Zm-3.633,4.38V9.432a.3.3,0,1,1,.6,0v3.051l1.476,1.479a.3.3,0,0,1,0,.423.3.3,0,0,1-.423,0l-1.566-1.566A.29.29,0,0,1,12.795,12.609Zm-5.208,0a4.575,4.575,0,0,0,.024.5,1.653,1.653,0,0,0,.018.171c0,.033.006.066.012.1a1.687,1.687,0,0,0,.027.171c.012.078.027.153.045.231.024.114.054.231.087.345.015.057.033.114.051.171l.027.081.027.078H1.884a.683.683,0,0,1-.684-.681V5.421a.686.686,0,0,1,.684-.684h.009a.1.1,0,0,0,.03,0h5.8A1.132,1.132,0,0,0,8,4.707c.03-.006.06-.015.09-.024a1.277,1.277,0,0,0,.534-.318l1.047-1.05a.692.692,0,0,1,.486-.2h4.17a.686.686,0,0,1,.684.684V7.446l-.078-.027-.1-.036c-.057-.018-.114-.036-.171-.051a4.68,4.68,0,0,0-.7-.162c-.078-.012-.156-.024-.237-.033-.018,0-.036,0-.054-.006-.081-.009-.162-.015-.246-.018C13.32,7.1,13.209,7.1,13.1,7.1a5.514,5.514,0,0,0-5.508,5.508Z" transform="translate(-0.6 -1.086)" fill="#8d8d8d"/>
        <path id="Path_24007" data-name="Path 24007" d="M6.807,5.544h-4.4a.569.569,0,0,0-.567.57v1.7a.569.569,0,0,0,.567.57h4.4a.569.569,0,0,0,.567-.57v-1.7A.569.569,0,0,0,6.807,5.544Z" transform="translate(-0.6 -1.086)" fill="#8d8d8d"/>
      </g>
    </g>
  </g>
</svg>
