<svg xmlns="http://www.w3.org/2000/svg" xmlns:xlink="http://www.w3.org/1999/xlink" width="25" height="25" viewBox="0 0 25 25">
  <defs>
    <clipPath id="clip-path">
      <rect id="Rectangle_4612" data-name="Rectangle 4612" width="25" height="25" transform="translate(0 0.382)" fill="none"/>
    </clipPath>
  </defs>
  <g id="Group_12882" data-name="Group 12882" transform="translate(0 -0.382)">
    <g id="Mask_Group_604" data-name="Mask Group 604" transform="translate(0 0)" clip-path="url(#clip-path)">
      <g id="digital-wallet-2" transform="translate(-0.102 3.068)">
        <circle id="Ellipse_661" data-name="Ellipse 661" cx="0.953" cy="0.953" r="0.953" transform="translate(19.86 8.757)" fill="#404040"/>
        <path id="Path_22787" data-name="Path 22787" d="M42.081,21.2H37.324a2.868,2.868,0,0,0,0,5.737h4.757a1.166,1.166,0,0,0,1.165-1.165V22.367A1.166,1.166,0,0,0,42.081,21.2Zm-3.23,4.457A1.589,1.589,0,1,1,40.44,24.07,1.591,1.591,0,0,1,38.851,25.659Z" transform="translate(-18.038 -14.36)" fill="#404040"/>
        <path id="Path_22788" data-name="Path 22788" d="M17.674,17.342a3.508,3.508,0,0,1,3.5-3.5h4V9.644a2.015,2.015,0,0,0-2.012-2.012H3.9A2.015,2.015,0,0,0,1.891,9.644v4.414H4.372L5.2,12.124a.318.318,0,0,1,.293-.193H7.613a1.59,1.59,0,1,1,0,.636H5.7L4.875,14.5a.318.318,0,0,1-.293.193H1.891v2.33h5.72a1.589,1.589,0,1,1,0,.636H1.891v2.33H4.583a.318.318,0,0,1,.293.193L5.7,22.117H7.61a1.588,1.588,0,1,1,0,.636H5.489a.318.318,0,0,1-.293-.193l-.824-1.934H1.891v4.414A2.015,2.015,0,0,0,3.9,27.052H23.161a2.015,2.015,0,0,0,2.012-2.012V20.845h-4A3.508,3.508,0,0,1,17.674,17.342Z" transform="translate(-1.891 -7.632)" fill="#404040"/>
        <circle id="Ellipse_662" data-name="Ellipse 662" cx="0.953" cy="0.953" r="0.953" transform="translate(6.324 13.841)" fill="#404040"/>
        <circle id="Ellipse_663" data-name="Ellipse 663" cx="0.953" cy="0.953" r="0.953" transform="translate(6.324 3.673)" fill="#404040"/>
        <circle id="Ellipse_664" data-name="Ellipse 664" cx="0.953" cy="0.953" r="0.953" transform="translate(6.324 8.757)" fill="#404040"/>
      </g>
    </g>
  </g>
</svg>
