<svg xmlns="http://www.w3.org/2000/svg" width="19.998" height="19.998" viewBox="0 0 19.998 19.998">
  <g id="Group_15524" data-name="Group 15524" transform="translate(-203 -599)">
    <g id="Group_15523" data-name="Group 15523" transform="translate(203 599)">
      <g id="Group_15514" data-name="Group 15514">
        <g id="Group_15216" data-name="Group 15216">
          <path id="Path_23802" data-name="Path 23802" d="M4.666,2A2.666,2.666,0,0,0,2,4.666V7.333a.667.667,0,0,0,1.333,0V4.666A1.333,1.333,0,0,1,4.666,3.333H7.333A.667.667,0,0,0,7.333,2Z" transform="translate(-2 -2)" fill="#1d1d1d"/>
          <path id="Path_23803" data-name="Path 23803" d="M44.667,2a.667.667,0,0,0,0,1.333h2.666a1.333,1.333,0,0,1,1.333,1.333V7.333a.667.667,0,0,0,1.333,0V4.666A2.666,2.666,0,0,0,47.333,2Z" transform="translate(-30.001 -2)" fill="#1d1d1d"/>
          <path id="Path_23804" data-name="Path 23804" d="M3.333,44.667a.667.667,0,0,0-1.333,0v2.666A2.666,2.666,0,0,0,4.666,50H7.333a.667.667,0,0,0,0-1.333H4.666a1.333,1.333,0,0,1-1.333-1.333Z" transform="translate(-2 -30.001)" fill="#1d1d1d"/>
          <path id="Path_23805" data-name="Path 23805" d="M50,44.667a.667.667,0,0,0-1.333,0v2.666a1.333,1.333,0,0,1-1.333,1.333H44.667a.667.667,0,0,0,0,1.333h2.666A2.666,2.666,0,0,0,50,47.333Z" transform="translate(-30.001 -30.001)" fill="#1d1d1d"/>
        </g>
      </g>
      <g id="profile" transform="translate(3.091 5.523)">
        <g id="Group_15520" data-name="Group 15520" transform="translate(1.065 1.411)">
          <path id="Ellipse_683" data-name="Ellipse 683" d="M.675-.75A1.425,1.425,0,1,1-.75.675,1.427,1.427,0,0,1,.675-.75Zm0,2.418A.993.993,0,1,0-.318.675.994.994,0,0,0,.675,1.668Z" transform="translate(2.276 0.75)"/>
          <path id="Path_24011" data-name="Path 24011" d="M10.291,27.959H5.11a.216.216,0,0,1-.2-.148,3.073,3.073,0,0,1-.155-.932,1.737,1.737,0,0,1,.92-1.658A4.3,4.3,0,0,1,7.7,24.85a4.315,4.315,0,0,1,2.042.371,1.738,1.738,0,0,1,.909,1.658,3.073,3.073,0,0,1-.155.932A.216.216,0,0,1,10.291,27.959Zm-5.021-.432h4.86a2.6,2.6,0,0,0,.089-.648c0-1.135-.73-1.6-2.519-1.6a3.919,3.919,0,0,0-1.827.32,1.3,1.3,0,0,0-.692,1.278A2.6,2.6,0,0,0,5.271,27.527Z" transform="translate(-4.75 -21.827)"/>
        </g>
        <path id="Path_24012" data-name="Path 24012" d="M13.788,18.4H2.129A1.064,1.064,0,0,1,1.05,17.323V10.529A1.064,1.064,0,0,1,2.129,9.45H13.788a1.064,1.064,0,0,1,1.079,1.079v6.794A1.081,1.081,0,0,1,13.788,18.4ZM2.129,9.882a.633.633,0,0,0-.648.648v6.794a.633.633,0,0,0,.648.648H13.788a.648.648,0,0,0,.648-.648V10.529a.633.633,0,0,0-.648-.648Z" transform="translate(-1.05 -9.45)"/>
        <g id="Group_15522" data-name="Group 15522" transform="translate(7.916 1.554)">
          <g id="Group_15521" data-name="Group 15521" transform="translate(0 0)">
            <path id="Path_24013" data-name="Path 24013" d="M32.854,15.282H28.766a.216.216,0,1,1,0-.432h4.088a.216.216,0,1,1,0,.432Z" transform="translate(-28.55 -14.85)"/>
            <path id="Path_24014" data-name="Path 24014" d="M31.788,19.982H28.766a.216.216,0,1,1,0-.432h3.023a.216.216,0,1,1,0,.432Z" transform="translate(-28.55 -18.197)"/>
            <path id="Path_24015" data-name="Path 24015" d="M40.758,24.682h-.892a.216.216,0,0,1,0-.432h.892a.216.216,0,0,1,0,.432Z" transform="translate(-36.455 -21.544)"/>
            <path id="Path_24016" data-name="Path 24016" d="M31.04,24.682H28.766a.216.216,0,1,1,0-.432H31.04a.216.216,0,0,1,0,.432Z" transform="translate(-28.55 -21.544)"/>
            <path id="Path_24017" data-name="Path 24017" d="M36.272,29.382H33.566a.216.216,0,0,1,0-.432h2.706a.216.216,0,0,1,0,.432Z" transform="translate(-31.968 -24.891)"/>
            <path id="Path_24018" data-name="Path 24018" d="M29.2,29.382h-.432a.216.216,0,1,1,0-.432H29.2a.216.216,0,1,1,0,.432Z" transform="translate(-28.55 -24.891)"/>
          </g>
          <path id="Path_24019" data-name="Path 24019" d="M31.5,34.082H28.766a.216.216,0,1,1,0-.432H31.5a.216.216,0,0,1,0,.432Z" transform="translate(-28.55 -28.238)"/>
        </g>
      </g>
    </g>
  </g>
</svg>
