<svg xmlns="http://www.w3.org/2000/svg" width="14.996" height="14.996" viewBox="0 0 14.996 14.996">
  <g id="Group_15480" data-name="Group 15480" transform="translate(-382.002 -236)">
    <path id="qr-code-9" d="M4.374,6.873H2.5A2.5,2.5,0,0,1,0,4.374V2.5A2.5,2.5,0,0,1,2.5,0H4.374a2.5,2.5,0,0,1,2.5,2.5V4.374A2.5,2.5,0,0,1,4.374,6.873Zm-1.875-5a.626.626,0,0,0-.625.625V4.374A.626.626,0,0,0,2.5,5H4.374A.626.626,0,0,0,5,4.374V2.5a.626.626,0,0,0-.625-.625Zm10,5H10.622a2.5,2.5,0,0,1-2.5-2.5V2.5a2.5,2.5,0,0,1,2.5-2.5H12.5A2.5,2.5,0,0,1,15,2.5V4.374A2.5,2.5,0,0,1,12.5,6.873Zm-1.875-5A.625.625,0,0,0,10,2.5V4.374A.625.625,0,0,0,10.622,5H12.5a.625.625,0,0,0,.625-.625V2.5a.625.625,0,0,0-.625-.625ZM4.374,15H2.5A2.5,2.5,0,0,1,0,12.5V10.622a2.5,2.5,0,0,1,2.5-2.5H4.374a2.5,2.5,0,0,1,2.5,2.5V12.5A2.5,2.5,0,0,1,4.374,15ZM2.5,10a.626.626,0,0,0-.625.625V12.5a.626.626,0,0,0,.625.625H4.374A.626.626,0,0,0,5,12.5V10.622A.626.626,0,0,0,4.374,10Zm8.123-.312V9.06a.938.938,0,0,0-.937-.937H9.06a.938.938,0,0,0-.937.937v.625a.938.938,0,0,0,.937.937h.625A.938.938,0,0,0,10.622,9.685ZM12.5,11.559a.937.937,0,1,0-.937.937A.938.938,0,0,0,12.5,11.559Zm-1.875,2.5v-.625a.938.938,0,0,0-.937-.937H9.06a.938.938,0,0,0-.937.937v.625A.938.938,0,0,0,9.06,15h.625A.938.938,0,0,0,10.622,14.059ZM15,9.685V9.06a.938.938,0,0,0-.937-.937h-.625a.938.938,0,0,0-.937.937v.625a.938.938,0,0,0,.937.937h.625A.938.938,0,0,0,15,9.685Z" transform="translate(382.002 236)" fill="#fcfcfc"/>
  </g>
</svg>
