<svg xmlns="http://www.w3.org/2000/svg" xmlns:xlink="http://www.w3.org/1999/xlink" width="18" height="18" viewBox="0 0 18 18">
  <defs>
    <clipPath id="clip-path">
      <rect id="Rectangle_4609" data-name="Rectangle 4609" width="18" height="18" fill="none"/>
    </clipPath>
  </defs>
  <g id="Mask_Group_669" data-name="Mask Group 669" clip-path="url(#clip-path)">
    <g id="translate">
      <path id="Path_22904" data-name="Path 22904" d="M18.147,10.2H11.369A1.942,1.942,0,0,0,9.43,12.138v3.683L7.674,17.075a.527.527,0,0,0,0,.858L9.451,19.2a1.942,1.942,0,0,0,1.918,1.653h6.778a1.942,1.942,0,0,0,1.939-1.939V12.138A1.942,1.942,0,0,0,18.147,10.2Zm-2.279,7.41c-.124,0-.22-.039-.248-.147l-.215-.751H14.112l-.215.751c-.028.107-.124.147-.249.147-.2,0-.463-.124-.463-.3a.326.326,0,0,1,.011-.057l1.09-3.553a.459.459,0,0,1,.469-.249c.215,0,.424.079.474.249l1.09,3.553a.25.25,0,0,1,.011.057C16.332,17.479,16.066,17.609,15.868,17.609Zm0,0" transform="translate(-2.087 -2.856)" fill="#867cff"/>
      <path id="Path_22905" data-name="Path 22905" d="M16.913,17.768H17.9L17.4,16.034Zm0,0" transform="translate(-4.736 -4.49)" fill="#8d8d8d"/>
      <path id="Path_22906" data-name="Path 22906" d="M6.288,9.282a2.979,2.979,0,0,1,.66-1.872A2.83,2.83,0,0,1,5.328,6.9a2.829,2.829,0,0,1-1.62.508.3.3,0,0,1,0-.595A2.239,2.239,0,0,0,4.862,6.5a2.837,2.837,0,0,1-.744-1.635h-.41a.3.3,0,1,1,0-.595H5.031V3.544a.3.3,0,1,1,.595,0v.722H6.949a.3.3,0,1,1,0,.595h-.41A2.837,2.837,0,0,1,5.8,6.5a2.236,2.236,0,0,0,1.153.319.3.3,0,0,1,.3.276,2.983,2.983,0,0,1,2.038-.8h1.374V5.035l1.756-1.254a.527.527,0,0,0,0-.858L10.636,1.653A1.943,1.943,0,0,0,8.718,0H1.939A1.942,1.942,0,0,0,0,1.939V8.718a1.942,1.942,0,0,0,1.939,1.939H6.288Zm0,0" fill="#11a011"/>
      <path id="Path_22907" data-name="Path 22907" d="M7.163,8.015a2.245,2.245,0,0,0,.611-1.264H6.552A2.247,2.247,0,0,0,7.163,8.015Zm0,0" transform="translate(-1.835 -1.891)" fill="#8d8d8d"/>
    </g>
  </g>
</svg>
