<svg id="_20x20" data-name="20x20" xmlns="http://www.w3.org/2000/svg" xmlns:xlink="http://www.w3.org/1999/xlink" width="18" height="18" viewBox="0 0 18 18">
  <defs>
    <clipPath id="clip-path">
      <rect id="Rectangle_4612" data-name="Rectangle 4612" width="18" height="18" fill="none"/>
    </clipPath>
  </defs>
  <g id="Mask_Group_896" data-name="Mask Group 896" clip-path="url(#clip-path)">
    <g id="gavel" transform="translate(-0.287 -0.273)">
      <path id="XMLID_27_" d="M7.366,9.418a.028.028,0,0,1,.028.028L10.43,6.41,10.4,6.382,6.916,2.9a.028.028,0,0,1-.028-.028L3.852,5.9l.028.028Z" fill="#8d8d8d"/>
      <path id="XMLID_783_" d="M4.976,11.808a.867.867,0,0,0,1.181,0c.112-.225,1.659-1.153.815-2L3.486,6.326a.867.867,0,0,0-1.181,0l-.815.815a.867.867,0,0,0,0,1.181Z" fill="#8d8d8d"/>
      <path id="XMLID_784_" d="M10.8,5.988a.867.867,0,0,0,1.181,0l.815-.815a.84.84,0,0,0,0-1.181L9.306.506a.867.867,0,0,0-1.181,0l-.815.843a.867.867,0,0,0,0,1.181Z" fill="#8d8d8d"/>
      <path id="XMLID_818_" d="M17.543,14.338l-7.366-6.86L8.462,9.193l6.86,7.394a1.582,1.582,0,1,0,2.221-2.249Z" fill="#8d8d8d"/>
      <path id="XMLID_819_" d="M10.374,15.969a1.014,1.014,0,0,0,.169-.562.967.967,0,0,0-.928-.984H2.643a.949.949,0,0,0-.928.984.892.892,0,0,0,.169.562A2.147,2.147,0,0,0,.506,17.993a.282.282,0,0,0,.281.281H11.5a.3.3,0,0,0,.281-.281A2.213,2.213,0,0,0,10.374,15.969Z" fill="#8d8d8d"/>
    </g>
  </g>
</svg>
