<svg xmlns="http://www.w3.org/2000/svg" width="20" height="20" viewBox="0 0 20 20">
  <g id="Group_15515" data-name="Group 15515" transform="translate(-202 -524)">
    <g id="Group_15514" data-name="Group 15514" transform="translate(202 524)">
      <g id="Group_15216" data-name="Group 15216">
        <path id="Path_23802" data-name="Path 23802" d="M4.667,2A2.667,2.667,0,0,0,2,4.667V7.333a.667.667,0,0,0,1.333,0V4.667A1.333,1.333,0,0,1,4.667,3.333H7.333A.667.667,0,0,0,7.333,2Z" transform="translate(-2 -2)" fill="#1d1d1d"/>
        <path id="Path_23803" data-name="Path 23803" d="M44.667,2a.667.667,0,0,0,0,1.333h2.667a1.333,1.333,0,0,1,1.333,1.333V7.333a.667.667,0,0,0,1.333,0V4.667A2.667,2.667,0,0,0,47.333,2Z" transform="translate(-30 -2)" fill="#1d1d1d"/>
        <path id="Path_23804" data-name="Path 23804" d="M3.333,44.667a.667.667,0,0,0-1.333,0v2.667A2.667,2.667,0,0,0,4.667,50H7.333a.667.667,0,0,0,0-1.333H4.667a1.333,1.333,0,0,1-1.333-1.333Z" transform="translate(-2 -30)" fill="#1d1d1d"/>
        <path id="Path_23805" data-name="Path 23805" d="M50,44.667a.667.667,0,0,0-1.333,0v2.667a1.333,1.333,0,0,1-1.333,1.333H44.667a.667.667,0,0,0,0,1.333h2.667A2.667,2.667,0,0,0,50,47.333Z" transform="translate(-30 -30)" fill="#1d1d1d"/>
      </g>
      <path id="Fill-23" d="M11,14.257a.65.65,0,0,1-.65-.65v-2.6a.65.65,0,0,1,1.3,0v2.6a.65.65,0,0,1-.65.65m7.8,0a.65.65,0,0,1-.65-.65v-2.6a.65.65,0,0,1,1.3,0v2.6a.65.65,0,0,1-.65.65m-5.2,2.6a.65.65,0,0,1,0-1.3.651.651,0,0,0,.65-.65v-3.9a.65.65,0,0,1,1.3,0v3.9a1.952,1.952,0,0,1-1.95,1.95m1.3,3.9a5.065,5.065,0,0,1-3.71-1.49.651.651,0,1,1,.92-.92,3.746,3.746,0,0,0,2.79,1.11,3.746,3.746,0,0,0,2.79-1.11.651.651,0,1,1,.92.92,5.065,5.065,0,0,1-3.71,1.49" transform="translate(-4.504 -5.556)" fill="#1d1d1d" fill-rule="evenodd"/>
    </g>
  </g>
</svg>
