<svg xmlns="http://www.w3.org/2000/svg" width="25.504" height="25.504" viewBox="0 0 25.504 25.504">
  <g id="Group_15506" data-name="Group 15506" transform="translate(-98.749 -72.749)">
    <path id="Path_23996" data-name="Path 23996" d="M20.231.413a72.528,72.528,0,0,0-15.46,0A5.315,5.315,0,0,0,.413,4.771a72.528,72.528,0,0,0,0,15.46,5.315,5.315,0,0,0,4.358,4.358,72.528,72.528,0,0,0,15.46,0,5.315,5.315,0,0,0,4.358-4.358,72.528,72.528,0,0,0,0-15.46A5.314,5.314,0,0,0,20.231.413Z" transform="translate(99 73)" fill="none" stroke="#ff5f61" stroke-width="0.5"/>
    <path id="padlock-2" d="M14.391,6.509h-.542V4.339a4.339,4.339,0,0,0-8.679,0v2.17H4.627A1.629,1.629,0,0,0,3,8.136V15.73a1.629,1.629,0,0,0,1.627,1.627h9.763a1.629,1.629,0,0,0,1.627-1.627V8.136A1.629,1.629,0,0,0,14.391,6.509ZM6.616,4.339a2.893,2.893,0,0,1,5.786,0v2.17H6.616Zm3.616,7.754v1.647a.723.723,0,1,1-1.446,0V12.094a1.446,1.446,0,1,1,1.446,0Z" transform="translate(101.993 76.825)" fill="#1d1d1d"/>
  </g>
</svg>
