<svg xmlns="http://www.w3.org/2000/svg" xmlns:xlink="http://www.w3.org/1999/xlink" width="18" height="18" viewBox="0 0 18 18">
  <defs>
    <clipPath id="clip-path">
      <rect id="Rectangle_4609" data-name="Rectangle 4609" width="18" height="18" transform="translate(-0.496)" fill="none"/>
    </clipPath>
  </defs>
  <g id="Group_15507" data-name="Group 15507" transform="translate(-380.506 -76)">
    <g id="Mask_Group_908" data-name="Mask Group 908" transform="translate(381.002 76)" clip-path="url(#clip-path)">
      <g id="Layer_6" data-name="Layer 6" transform="translate(-0.001 -0.179)">
        <path id="Path_23996" data-name="Path 23996" d="M14.31.292a51.3,51.3,0,0,0-10.936,0A3.76,3.76,0,0,0,.292,3.375a51.3,51.3,0,0,0,0,10.936,3.76,3.76,0,0,0,3.082,3.082,51.3,51.3,0,0,0,10.936,0,3.76,3.76,0,0,0,3.082-3.082,51.3,51.3,0,0,0,0-10.936A3.759,3.759,0,0,0,14.31.292Z" transform="translate(0 0)" fill="#ff5f61"/>
        <path id="Path_23998" data-name="Path 23998" d="M9.164,4.913a1,1,0,1,1,2,0V8.648a1,1,0,0,1-2,0Zm4.993,9.49A5.645,5.645,0,0,1,6.175,6.42,1,1,0,0,1,7.591,7.836a3.642,3.642,0,1,0,5.15,0A1,1,0,0,1,14.157,6.42a5.645,5.645,0,0,1,0,7.983Z" transform="translate(-1.324 -1.144)" fill="#fff"/>
      </g>
    </g>
  </g>
</svg>
