<svg xmlns="http://www.w3.org/2000/svg" xmlns:xlink="http://www.w3.org/1999/xlink" width="15" height="15" viewBox="0 0 15 15">
  <defs>
    <clipPath id="clip-path">
      <rect id="Rectangle_4612" data-name="Rectangle 4612" width="15" height="15" transform="translate(-0.047 -0.342)" fill="none"/>
    </clipPath>
  </defs>
  <g id="Mask_Group_907" data-name="Mask Group 907" transform="translate(0.047 0.342)" clip-path="url(#clip-path)">
    <path id="high-quality" d="M8.833,1.021l.929.7a1.479,1.479,0,0,0,.838.3l1.158.064a1.522,1.522,0,0,1,1.415,1.187L13.437,4.4a1.478,1.478,0,0,0,.446.772l.846.794a1.522,1.522,0,0,1,.321,1.819l-.523,1.035a1.479,1.479,0,0,0-.155.878l.138,1.152a1.522,1.522,0,0,1-.924,1.6l-1.066.457a1.478,1.478,0,0,0-.683.573l-.635.971a1.522,1.522,0,0,1-1.736.632l-1.11-.336a1.479,1.479,0,0,0-.892,0l-1.11.336a1.522,1.522,0,0,1-1.736-.632l-.635-.971a1.479,1.479,0,0,0-.683-.573l-1.066-.457a1.522,1.522,0,0,1-.924-1.6L1.448,9.7a1.479,1.479,0,0,0-.155-.878L.77,7.787a1.522,1.522,0,0,1,.321-1.819l.846-.794A1.478,1.478,0,0,0,2.382,4.4l.265-1.129A1.522,1.522,0,0,1,4.062,2.085L5.22,2.021a1.479,1.479,0,0,0,.838-.3l.929-.7a1.522,1.522,0,0,1,1.847,0ZM7.317,8.328,6.31,7.32a.669.669,0,0,0-.946.946L6.846,9.748a.669.669,0,0,0,.946,0c.893-.893,1.776-1.8,2.666-2.694a.668.668,0,1,0-.947-.941ZM7.91,2.949a4.981,4.981,0,1,0,3.522,1.459A4.966,4.966,0,0,0,7.91,2.949Zm3.178,1.8A4.494,4.494,0,1,0,12.4,7.93,4.48,4.48,0,0,0,11.087,4.752Z" transform="translate(-0.623 -0.581)" fill="#8d8d8d" fill-rule="evenodd"/>
  </g>
</svg>
