<svg id="Group_15483" data-name="Group 15483" xmlns="http://www.w3.org/2000/svg" xmlns:xlink="http://www.w3.org/1999/xlink" width="70" height="70" viewBox="0 0 70 70">
  <defs>
    <clipPath id="clip-path">
      <circle id="Ellipse_679" data-name="Ellipse 679" cx="30" cy="30" r="30" fill="none"/>
    </clipPath>
  </defs>
  <g id="Group_15449" data-name="Group 15449">
    <g id="Ellipse_674" data-name="Ellipse 674" fill="none" stroke="#8d8d8d" stroke-width="0.5">
      <circle cx="35" cy="35" r="35" stroke="none"/>
      <circle cx="35" cy="35" r="34.75" fill="none"/>
    </g>
    <g id="Mask_Group_888" data-name="Mask Group 888" transform="translate(5 5)" clip-path="url(#clip-path)">
      <g id="paypal-4" transform="translate(4.425 0)">
        <path id="Path_23944" data-name="Path 23944" d="M22.367,59.668l1.04-6.605-2.316-.054H10.03L17.717,4.271a.643.643,0,0,1,.215-.382.628.628,0,0,1,.41-.151h18.65c6.191,0,10.464,1.288,12.7,3.832a8.736,8.736,0,0,1,2.034,3.811,13.762,13.762,0,0,1,.014,5.257l-.024.153v1.344l1.046.592a7.336,7.336,0,0,1,2.117,1.615A7.517,7.517,0,0,1,56.591,24.2a16.3,16.3,0,0,1-.245,5.591,19.688,19.688,0,0,1-2.29,6.329,13.014,13.014,0,0,1-3.629,3.976A14.722,14.722,0,0,1,45.541,42.3,24.375,24.375,0,0,1,39.433,43H37.981a4.365,4.365,0,0,0-4.317,3.684l-.109.595L31.718,58.922l-.084.428a.367.367,0,0,1-.115.248.307.307,0,0,1-.191.07Z" transform="translate(-5.585 -1.614)" fill="#253b80"/>
        <path id="Path_23945" data-name="Path 23945" d="M51.411,16.858q-.086.548-.191,1.094C48.76,30.579,40.346,34.941,29.6,34.941H24.128A2.657,2.657,0,0,0,21.5,37.192L18.7,54.959,17.906,60a1.4,1.4,0,0,0,1.382,1.618h9.7A2.336,2.336,0,0,0,31.3,59.645l.1-.493,1.827-11.6.117-.636a2.334,2.334,0,0,1,2.306-1.972H37.1c9.4,0,16.763-3.818,18.914-14.864.9-4.615.433-8.468-1.945-11.178a9.278,9.278,0,0,0-2.656-2.048Z" transform="translate(-5.585 -1.614)" fill="#179bd7"/>
        <path id="Path_23946" data-name="Path 23946" d="M48.838,15.832q-.576-.167-1.161-.3-.612-.134-1.231-.233a30.393,30.393,0,0,0-4.824-.352H27a2.33,2.33,0,0,0-2.3,1.972l-3.11,19.7-.089.575a2.657,2.657,0,0,1,2.626-2.251H29.6c10.747,0,19.161-4.364,21.621-16.99.074-.374.135-.738.191-1.094A13.1,13.1,0,0,0,49.388,16q-.274-.091-.551-.173Z" transform="translate(-5.585 -1.614)" fill="#222d65"/>
        <path id="Path_23947" data-name="Path 23947" d="M24.7,16.921a2.332,2.332,0,0,1,2.3-1.97H41.622a30.393,30.393,0,0,1,4.824.352q.632.1,1.231.233t1.161.3c.187.056.372.113.553.171a13.3,13.3,0,0,1,2.022.853c.732-4.666-.006-7.844-2.529-10.721C46.1,2.97,41.081,1.614,34.657,1.614H16.007a2.665,2.665,0,0,0-2.634,2.253L5.6,53.106a1.6,1.6,0,0,0,1.581,1.853H18.7L21.59,36.617Z" transform="translate(-5.585 -1.614)" fill="#253b80"/>
      </g>
    </g>
  </g>
</svg>
