<svg id="Group_15580" data-name="Group 15580" xmlns="http://www.w3.org/2000/svg" width="220.019" height="263.717" viewBox="0 0 220.019 263.717">
  <path id="Path_24012" data-name="Path 24012" d="M150.55,127.033a61.459,61.459,0,0,0,44.912-18.609,61.457,61.457,0,0,0,18.607-44.91A61.467,61.467,0,0,0,195.459,18.6,61.472,61.472,0,0,0,150.55,0a61.457,61.457,0,0,0-44.91,18.607A61.461,61.461,0,0,0,87.031,63.515a61.457,61.457,0,0,0,18.611,44.912A61.473,61.473,0,0,0,150.55,127.033Zm0,0" transform="translate(-42.204)" fill="#f4f2f2"/>
  <path id="Path_24013" data-name="Path 24013" d="M219.486,322.716a156.881,156.881,0,0,0-2.137-16.663,131.294,131.294,0,0,0-4.1-16.754,82.753,82.753,0,0,0-6.887-15.625,58.962,58.962,0,0,0-10.386-13.535,45.791,45.791,0,0,0-14.919-9.374,51.559,51.559,0,0,0-19.046-3.447c-2.692,0-5.3,1.1-10.324,4.378-3.094,2.018-6.714,4.352-10.754,6.933a61.622,61.622,0,0,1-13.915,6.13,54.033,54.033,0,0,1-34.039,0,61.475,61.475,0,0,1-13.9-6.128c-4-2.557-7.623-4.891-10.764-6.937-5.022-3.274-7.627-4.378-10.319-4.378a51.493,51.493,0,0,0-19.043,3.451,45.753,45.753,0,0,0-14.921,9.374,58.967,58.967,0,0,0-10.382,13.533A82.913,82.913,0,0,0,6.76,289.3a131.6,131.6,0,0,0-4.1,16.752A156.331,156.331,0,0,0,.527,322.722C.177,327.768,0,333.005,0,338.295c0,13.766,4.376,24.911,13.006,33.129,8.523,8.11,19.8,12.225,33.514,12.225H173.5c13.714,0,24.987-4.112,33.512-12.225,8.631-8.213,13.008-19.359,13.008-33.131C220.017,332.979,219.838,327.738,219.486,322.716Zm0,0" transform="translate(0 -119.932)" fill="#f4f2f2"/>
</svg>
