<svg id="Group_2889" data-name="Group 2889" xmlns="http://www.w3.org/2000/svg" width="14" height="14" viewBox="0 0 14 14">
  <path id="Path_13937" data-name="Path 13937" d="M182.68,116.627a.414.414,0,0,0-.042.141.34.34,0,1,0,.677.056.691.691,0,0,1,.014-.155v-.155a3.728,3.728,0,0,0-.2-1.184,3.517,3.517,0,0,0-2.4-2.214,3.74,3.74,0,0,0-.888-.113,2.39,2.39,0,0,0-.31.014l-.3.042a.329.329,0,0,0,.113.649,1.386,1.386,0,0,1,.24-.028h.042c.07,0,.141-.014.211-.014a2.79,2.79,0,0,1,2,.832,2.841,2.841,0,0,1,.832,1.974v.155Z" transform="translate(-172.971 -109.255)" fill="#d3d3d3"/>
  <path id="Path_13938" data-name="Path 13938" d="M175.279,65.612a.34.34,0,1,0,.677.056c.014-.155.014-.31.014-.465a6.317,6.317,0,0,0-.071-.9,5.408,5.408,0,0,0-4.893-4.484c-.141-.014-.3-.014-.437-.014s-.31,0-.465.014-.31.028-.465.056a.329.329,0,1,0,.113.649l.282-.042c.042,0,.085-.014.127-.014.141-.014.282-.014.409-.014a4.859,4.859,0,0,1,1.368.2,4.687,4.687,0,0,1,1.988,1.184,4.843,4.843,0,0,1,1.057,1.593,4.765,4.765,0,0,1,.338,1.748v.141A1.152,1.152,0,0,0,175.279,65.612Z" transform="translate(-163.902 -57.871)" fill="#d3d3d3"/>
  <path id="Path_13939" data-name="Path 13939" d="M166.111,7.16A7.32,7.32,0,0,0,160.908,5c-.211,0-.423.014-.634.028a4.891,4.891,0,0,0-.634.085.329.329,0,0,0,.113.649l.282-.042a2.1,2.1,0,0,1,.3-.028c.2-.014.381-.028.578-.028a6.643,6.643,0,0,1,6.655,6.655v.31c0,.085-.014.169-.014.268a.34.34,0,1,0,.677.056c.014-.211.028-.423.028-.62A7.3,7.3,0,0,0,166.111,7.16Z" transform="translate(-154.255 -5.003)" fill="#d3d3d3"/>
  <path id="Path_13940" data-name="Path 13940" d="M13.49,29.361l-2.407-1.324c-.8-.446-.83-.153-1.673.767-.2.223-.585.808-1.034.7a9.87,9.87,0,0,1-3.264-2.286,7.8,7.8,0,0,1-1.455-2.244c-.027-.725,1.523-1.087,1.02-2.467L3.6,20.036C2.6,17.667-.218,21.458.013,23.228c.6,4.363,8.064,11.416,12.226,9.088C13.164,31.787,14.415,29.933,13.49,29.361Z" transform="translate(0 -18.776)" fill="#d3d3d3"/>
</svg>
