<svg xmlns="http://www.w3.org/2000/svg" xmlns:xlink="http://www.w3.org/1999/xlink" width="15" height="15" viewBox="0 0 15 15">
  <defs>
    <clipPath id="clip-path">
      <rect id="Rectangle_4612" data-name="Rectangle 4612" width="15" height="15" fill="none"/>
    </clipPath>
  </defs>
  <g id="Group_15516" data-name="Group 15516" transform="translate(-96 -778)">
    <g id="Mask_Group_893" data-name="Mask Group 893" transform="translate(96 778)" clip-path="url(#clip-path)">
      <g id="Layer_2" data-name="Layer 2" transform="translate(0.592 0)">
        <path id="Path_23967" data-name="Path 23967" d="M14.194,2.895a12.309,12.309,0,0,1-2.786-.63A12.265,12.265,0,0,1,9.042,1.132a1.244,1.244,0,0,0-1.291,0h0A12.277,12.277,0,0,1,5.385,2.265a12.311,12.311,0,0,1-2.785.63A1.238,1.238,0,0,0,1.488,4.127V7.808a7.621,7.621,0,0,0,3.918,6.658l2.388,1.327a1.229,1.229,0,0,0,1.2,0l2.389-1.327A7.621,7.621,0,0,0,15.3,7.808V4.127a1.238,1.238,0,0,0-1.111-1.232ZM11.216,7.148,8.559,9.982a.708.708,0,0,1-.987.045L5.977,8.61a.708.708,0,1,1,.941-1.059L8,8.509l2.185-2.33a.708.708,0,0,1,1.034.969Z" transform="translate(-1.488 -0.951)" fill="#388cff"/>
      </g>
    </g>
  </g>
</svg>
