<svg xmlns="http://www.w3.org/2000/svg" width="25.002" height="25.002" viewBox="0 0 25.002 25.002">
  <g id="Group_15473" data-name="Group 15473" transform="translate(-380.998 -72)">
    <g id="Group_15472" data-name="Group 15472">
      <g id="Group_15218" data-name="Group 15218" transform="translate(48 -285)">
        <g id="Group_15471" data-name="Group 15471">
          <path id="qr-code-9" d="M4.375,6.874H2.5A2.5,2.5,0,0,1,0,4.375V2.5A2.5,2.5,0,0,1,2.5,0H4.375a2.5,2.5,0,0,1,2.5,2.5V4.375A2.5,2.5,0,0,1,4.375,6.874Zm-1.875-5a.626.626,0,0,0-.625.625V4.375A.626.626,0,0,0,2.5,5H4.375A.626.626,0,0,0,5,4.375V2.5a.626.626,0,0,0-.625-.625Zm10,5H10.624a2.5,2.5,0,0,1-2.5-2.5V2.5a2.5,2.5,0,0,1,2.5-2.5H12.5A2.5,2.5,0,0,1,15,2.5V4.375A2.5,2.5,0,0,1,12.5,6.874Zm-1.875-5A.626.626,0,0,0,10,2.5V4.375A.626.626,0,0,0,10.624,5H12.5a.626.626,0,0,0,.625-.625V2.5a.626.626,0,0,0-.625-.625ZM4.375,15H2.5A2.5,2.5,0,0,1,0,12.5V10.624a2.5,2.5,0,0,1,2.5-2.5H4.375a2.5,2.5,0,0,1,2.5,2.5V12.5A2.5,2.5,0,0,1,4.375,15ZM2.5,10a.626.626,0,0,0-.625.625V12.5a.626.626,0,0,0,.625.625H4.375A.626.626,0,0,0,5,12.5V10.624A.626.626,0,0,0,4.375,10Zm8.124-.312V9.062a.938.938,0,0,0-.937-.937H9.062a.938.938,0,0,0-.937.937v.625a.938.938,0,0,0,.937.937h.625A.938.938,0,0,0,10.624,9.687ZM12.5,11.562a.937.937,0,1,0-.937.937A.938.938,0,0,0,12.5,11.562Zm-1.875,2.5v-.625a.938.938,0,0,0-.937-.937H9.062a.938.938,0,0,0-.937.937v.625A.938.938,0,0,0,9.062,15h.625A.938.938,0,0,0,10.624,14.061ZM15,9.687V9.062a.938.938,0,0,0-.937-.937h-.625a.938.938,0,0,0-.937.937v.625a.938.938,0,0,0,.937.937h.625A.938.938,0,0,0,15,9.687Z" transform="translate(338 362)" fill="#d3d3d3"/>
          <g id="Group_15216" data-name="Group 15216" transform="translate(332.998 357)">
            <path id="Path_23802" data-name="Path 23802" d="M5.334,2A3.334,3.334,0,0,0,2,5.334V8.667a.833.833,0,0,0,1.667,0V5.334A1.667,1.667,0,0,1,5.334,3.667H8.667A.833.833,0,0,0,8.667,2Z" transform="translate(-2 -2)" fill="#404040"/>
            <path id="Path_23803" data-name="Path 23803" d="M44.833,2a.833.833,0,0,0,0,1.667h3.334a1.667,1.667,0,0,1,1.667,1.667V8.667a.833.833,0,0,0,1.667,0V5.334A3.334,3.334,0,0,0,48.167,2Z" transform="translate(-26.499 -2)" fill="#404040"/>
            <path id="Path_23804" data-name="Path 23804" d="M3.667,44.833a.833.833,0,0,0-1.667,0v3.334A3.334,3.334,0,0,0,5.334,51.5H8.667a.833.833,0,0,0,0-1.667H5.334a1.667,1.667,0,0,1-1.667-1.667Z" transform="translate(-2 -26.499)" fill="#404040"/>
            <path id="Path_23805" data-name="Path 23805" d="M51.5,44.833a.833.833,0,0,0-1.667,0v3.334a1.667,1.667,0,0,1-1.667,1.667H44.833a.833.833,0,0,0,0,1.667h3.334A3.334,3.334,0,0,0,51.5,48.167Z" transform="translate(-26.499 -26.499)" fill="#404040"/>
          </g>
        </g>
      </g>
    </g>
    <path id="Path_15626" data-name="Path 15626" d="M21.23,15.042H3.521a.521.521,0,0,1,0-1.042H21.23a.521.521,0,1,1,0,1.042Z" transform="translate(381.123 72.543)" fill="#fc3434"/>
  </g>
</svg>
