<svg xmlns="http://www.w3.org/2000/svg" width="25.001" height="25.001" viewBox="0 0 25.001 25.001">
  <g id="Group_15208" data-name="Group 15208" transform="translate(-381 -72)">
    <g id="Group_4030" data-name="Group 4030" transform="translate(381 72)">
      <path id="Path_15620" data-name="Path 15620" d="M23.771,7.292a.521.521,0,0,1-.521-.521V2.6a1.564,1.564,0,0,0-1.563-1.563H17.521a.521.521,0,1,1,0-1.042h4.167a2.607,2.607,0,0,1,2.6,2.6V6.771A.521.521,0,0,1,23.771,7.292Z" transform="translate(0.709 0)" fill="#1d1d1d"/>
      <path id="Path_15621" data-name="Path 15621" d="M21.688,24.292H17.521a.521.521,0,1,1,0-1.042h4.167a1.564,1.564,0,0,0,1.563-1.563V17.521a.521.521,0,1,1,1.042,0v4.167A2.607,2.607,0,0,1,21.688,24.292Z" transform="translate(0.709 0.709)" fill="#1d1d1d"/>
      <path id="Path_15622" data-name="Path 15622" d="M6.771,24.292H2.6a2.607,2.607,0,0,1-2.6-2.6V17.521a.521.521,0,1,1,1.042,0v4.167A1.564,1.564,0,0,0,2.6,23.25H6.771a.521.521,0,0,1,0,1.042Z" transform="translate(0 0.709)" fill="#1d1d1d"/>
      <path id="Path_15623" data-name="Path 15623" d="M.521,7.292A.521.521,0,0,1,0,6.771V2.6A2.607,2.607,0,0,1,2.6,0H6.771a.521.521,0,1,1,0,1.042H2.6A1.564,1.564,0,0,0,1.042,2.6V6.771A.521.521,0,0,1,.521,7.292Z" fill="#1d1d1d"/>
      <path id="Path_15624" data-name="Path 15624" d="M18.022,19.209H6.563A1.564,1.564,0,0,1,5,17.646V14.521a.521.521,0,1,1,1.042,0v3.125a.522.522,0,0,0,.521.521H18.022a.522.522,0,0,0,.521-.521V14.521a.521.521,0,1,1,1.042,0v3.125A1.565,1.565,0,0,1,18.022,19.209Z" transform="translate(0.208 0.584)" fill="#1d1d1d"/>
      <path id="Path_15625" data-name="Path 15625" d="M19.063,11.25a.521.521,0,0,1-.521-.521V6.563a.522.522,0,0,0-.521-.521H6.563a.522.522,0,0,0-.521.521V10.73A.521.521,0,0,1,5,10.73V6.563A1.564,1.564,0,0,1,6.563,5H18.022a1.564,1.564,0,0,1,1.563,1.563V10.73A.521.521,0,0,1,19.063,11.25Z" transform="translate(0.208 0.209)" fill="#1d1d1d"/>
      <path id="Path_15626" data-name="Path 15626" d="M21.23,15.042H3.521a.521.521,0,0,1,0-1.042H21.23a.521.521,0,1,1,0,1.042Z" transform="translate(0.125 0.584)" fill="#fc3434"/>
    </g>
  </g>
</svg>
