<svg xmlns="http://www.w3.org/2000/svg" width="14" height="14" viewBox="0 0 14 14">
  <g id="Group_10807" data-name="Group 10807" transform="translate(-65)">
    <g id="Group_10756" data-name="Group 10756" transform="translate(65)">
      <path id="Subtraction_1" data-name="Subtraction 1" d="M.305,11.241a.3.3,0,0,1-.182-.063.338.338,0,0,1-.111-.353L.787,8.273A5.591,5.591,0,0,1,0,5.408,5.313,5.313,0,0,1,5.2,0a5.313,5.313,0,0,1,5.2,5.408,5.314,5.314,0,0,1-5.2,5.41,5.064,5.064,0,0,1-2.917-.926L.478,11.187A.278.278,0,0,1,.305,11.241Zm4.847-3.1a.666.666,0,1,0,.656.666A.652.652,0,0,0,5.152,8.145Zm.134-5.308A1.026,1.026,0,0,1,6.4,3.864c0,.5-.213.816-.815,1.194a1.672,1.672,0,0,0-.953,1.5v.118c0,.373.2.6.521.6.3,0,.47-.189.5-.548.024-.519.211-.78.833-1.162A1.964,1.964,0,0,0,5.331,1.887a2.1,2.1,0,0,0-2.05,1.146,1.384,1.384,0,0,0-.135.6.45.45,0,0,0,.482.506c.261,0,.407-.126.5-.434A1.109,1.109,0,0,1,5.286,2.837Z" transform="translate(0 2.758)" fill="#d3d3d3"/>
      <path id="Path_21380" data-name="Path 21380" d="M11.934,11.258a.3.3,0,0,1-.184.064.277.277,0,0,1-.171-.055L9.773,9.973l-.02.013a6.2,6.2,0,0,0,.469-2.376A5.937,5.937,0,0,0,4.41,1.564a5.512,5.512,0,0,0-1.277.148A5.047,5.047,0,0,1,6.857.079a5.314,5.314,0,0,1,5.2,5.409,5.574,5.574,0,0,1-.787,2.864l.775,2.554a.335.335,0,0,1-.11.352Z" transform="translate(0.79 0.557)" fill="#d3d3d3"/>
      <rect id="Rectangle_4714" data-name="Rectangle 4714" width="13.459" height="14" transform="translate(0.541)" fill="none"/>
    </g>
  </g>
</svg>
