<svg id="Group_7936" data-name="Group 7936" xmlns="http://www.w3.org/2000/svg" width="6.127" height="6.127" viewBox="0 0 6.127 6.127">
  <g id="Group_7935" data-name="Group 7935" transform="translate(0 0)">
    <path id="Ellipse_321" data-name="Ellipse 321" d="M3.063.411A2.653,2.653,0,0,0,1.188,4.939,2.653,2.653,0,1,0,4.939,1.188,2.635,2.635,0,0,0,3.063.411m0-.411A3.063,3.063,0,1,1,0,3.063,3.063,3.063,0,0,1,3.063,0Z" transform="translate(0 0)" fill="#555"/>
    <path id="Path_16096" data-name="Path 16096" d="M5.531-25.429a.222.222,0,0,1,.066.073.178.178,0,0,1,.025.089.149.149,0,0,1-.056.129.22.22,0,0,1-.135.041A.249.249,0,0,1,5.3-25.13a.517.517,0,0,1-.2-.228,1.073,1.073,0,0,1-.079-.465.369.369,0,0,0-.124-.307.5.5,0,0,0-.324-.1H3.731v.933a.207.207,0,0,1-.05.143.164.164,0,0,1-.129.056.245.245,0,0,1-.164-.058A.179.179,0,0,1,3.32-25.3V-27.8a.192.192,0,0,1,.058-.141A.192.192,0,0,1,3.519-28H4.685a.794.794,0,0,1,.411.11.826.826,0,0,1,.3.3.847.847,0,0,1,.112.433.809.809,0,0,1-.124.433.8.8,0,0,1-.319.3.611.611,0,0,1,.243.22.656.656,0,0,1,.1.328,2.3,2.3,0,0,0,.037.321A.179.179,0,0,0,5.531-25.429Zm-.854-1.145a.358.358,0,0,0,.2-.083.541.541,0,0,0,.151-.2.673.673,0,0,0,.058-.284.494.494,0,0,0-.122-.338.381.381,0,0,0-.3-.139H3.731v1.045Z" transform="translate(-1.422 29.62)" fill="#555"/>
  </g>
</svg>
