<svg xmlns="http://www.w3.org/2000/svg" width="142.61" height="12.22" viewBox="0 0 142.61 12.22">
  <path id="Path_19228" data-name="Path 19228" d="M-64.564-.7a.382.382,0,0,1,.195.325.4.4,0,0,1-.052.169.378.378,0,0,1-.143.143.387.387,0,0,1-.195.052.439.439,0,0,1-.221-.052,1.466,1.466,0,0,1-.585-.676,3.729,3.729,0,0,1-.221-1.5,1.483,1.483,0,0,0-.507-1.28,1.993,1.993,0,0,0-1.209-.37h-2.886v3.5a.392.392,0,0,1-.1.279A.358.358,0,0,1-70.765,0a.466.466,0,0,1-.312-.111.351.351,0,0,1-.13-.279V-8.71a.379.379,0,0,1,.11-.28.379.379,0,0,1,.28-.11h3.51a2.728,2.728,0,0,1,1.326.318,2.35,2.35,0,0,1,.917.878,2.425,2.425,0,0,1,.331,1.261,2.51,2.51,0,0,1-.436,1.462,2.2,2.2,0,0,1-1.137.865,1.993,1.993,0,0,1,.936.747,2.268,2.268,0,0,1,.377,1.28,4.74,4.74,0,0,0,.111,1.131A.746.746,0,0,0-64.564-.7Zm-2.7-3.9a1.775,1.775,0,0,0,.845-.3,1.886,1.886,0,0,0,.624-.7,2.135,2.135,0,0,0,.234-1.014,1.643,1.643,0,0,0-.5-1.228,1.793,1.793,0,0,0-1.307-.487h-3.016V-4.6Zm10.023-2.041a.368.368,0,0,1,.279.117.4.4,0,0,1,.111.286V-.39a.379.379,0,0,1-.111.279A.379.379,0,0,1-57.245,0a.379.379,0,0,1-.279-.111.379.379,0,0,1-.111-.279v-.871a2.724,2.724,0,0,1-.975.988,2.638,2.638,0,0,1-1.417.4,2.8,2.8,0,0,1-1.566-.455,3.127,3.127,0,0,1-1.092-1.248,3.927,3.927,0,0,1-.4-1.781,3.835,3.835,0,0,1,.4-1.775,3.088,3.088,0,0,1,1.1-1.228A2.814,2.814,0,0,1-60.04-6.8a2.8,2.8,0,0,1,1.43.377,2.483,2.483,0,0,1,.975.988V-6.24a.4.4,0,0,1,.111-.286A.368.368,0,0,1-57.245-6.643ZM-59.949-.6a2.151,2.151,0,0,0,1.215-.358,2.422,2.422,0,0,0,.845-.988,3.193,3.193,0,0,0,.306-1.41,3.091,3.091,0,0,0-.306-1.378,2.431,2.431,0,0,0-.845-.982,2.151,2.151,0,0,0-1.215-.358,2.18,2.18,0,0,0-1.215.351,2.393,2.393,0,0,0-.845.968,3.11,3.11,0,0,0-.306,1.4,3.251,3.251,0,0,0,.3,1.41,2.376,2.376,0,0,0,.838.988A2.173,2.173,0,0,0-59.949-.6Zm12.675-6.1a2.031,2.031,0,0,1,1.722.721A3.05,3.05,0,0,1-45-4.069V-.39a.379.379,0,0,1-.111.279A.379.379,0,0,1-45.389,0a.379.379,0,0,1-.279-.111.379.379,0,0,1-.111-.279V-4.03a2.249,2.249,0,0,0-.41-1.4,1.489,1.489,0,0,0-1.267-.54,2.165,2.165,0,0,0-1.034.26A2.138,2.138,0,0,0-49.277-5a1.713,1.713,0,0,0-.3.968V-.39a.379.379,0,0,1-.11.279.379.379,0,0,1-.28.111.379.379,0,0,1-.279-.111.379.379,0,0,1-.111-.279V-4.069a2.247,2.247,0,0,0-.39-1.372,1.42,1.42,0,0,0-1.222-.526,2.066,2.066,0,0,0-1.007.26,2.156,2.156,0,0,0-.767.7,1.658,1.658,0,0,0-.292.943V-.39a.379.379,0,0,1-.111.279A.379.379,0,0,1-54.424,0,.379.379,0,0,1-54.7-.111a.379.379,0,0,1-.111-.279V-6.214a.379.379,0,0,1,.111-.28.379.379,0,0,1,.279-.11.379.379,0,0,1,.279.11.379.379,0,0,1,.111.28v.754a2.826,2.826,0,0,1,.949-.884,2.453,2.453,0,0,1,1.261-.351,2.289,2.289,0,0,1,1.3.364,1.987,1.987,0,0,1,.78,1.066,2.409,2.409,0,0,1,1-1A2.867,2.867,0,0,1-47.274-6.695Zm9.711.052a.368.368,0,0,1,.279.117.4.4,0,0,1,.111.286V-.39a.379.379,0,0,1-.111.279A.379.379,0,0,1-37.563,0a.379.379,0,0,1-.279-.111.379.379,0,0,1-.111-.279v-.871a2.724,2.724,0,0,1-.975.988,2.638,2.638,0,0,1-1.417.4,2.8,2.8,0,0,1-1.566-.455A3.127,3.127,0,0,1-43-1.573a3.927,3.927,0,0,1-.4-1.781A3.835,3.835,0,0,1-43-5.128a3.088,3.088,0,0,1,1.1-1.228,2.814,2.814,0,0,1,1.54-.442,2.8,2.8,0,0,1,1.43.377,2.483,2.483,0,0,1,.975.988V-6.24a.4.4,0,0,1,.111-.286A.368.368,0,0,1-37.563-6.643ZM-40.267-.6a2.151,2.151,0,0,0,1.215-.358,2.422,2.422,0,0,0,.845-.988,3.193,3.193,0,0,0,.306-1.41,3.091,3.091,0,0,0-.306-1.378,2.431,2.431,0,0,0-.845-.982,2.151,2.151,0,0,0-1.215-.358,2.18,2.18,0,0,0-1.215.351,2.393,2.393,0,0,0-.845.968,3.11,3.11,0,0,0-.306,1.4,3.251,3.251,0,0,0,.3,1.41,2.376,2.376,0,0,0,.838.988A2.173,2.173,0,0,0-40.267-.6Zm10.66-6.045a.368.368,0,0,1,.279.117.4.4,0,0,1,.111.286V-.39a.379.379,0,0,1-.111.279A.379.379,0,0,1-29.607,0a.379.379,0,0,1-.28-.111A.379.379,0,0,1-30-.39v-.871a2.724,2.724,0,0,1-.975.988,2.638,2.638,0,0,1-1.417.4,2.8,2.8,0,0,1-1.566-.455,3.127,3.127,0,0,1-1.092-1.248,3.927,3.927,0,0,1-.4-1.781,3.835,3.835,0,0,1,.4-1.775,3.088,3.088,0,0,1,1.1-1.228A2.814,2.814,0,0,1-32.4-6.8a2.8,2.8,0,0,1,1.43.377A2.483,2.483,0,0,1-30-5.434V-6.24a.4.4,0,0,1,.111-.286A.368.368,0,0,1-29.607-6.643ZM-32.311-.6A2.151,2.151,0,0,0-31.1-.956a2.422,2.422,0,0,0,.845-.988,3.193,3.193,0,0,0,.306-1.41,3.091,3.091,0,0,0-.306-1.378,2.431,2.431,0,0,0-.845-.982,2.151,2.151,0,0,0-1.216-.358,2.18,2.18,0,0,0-1.215.351,2.393,2.393,0,0,0-.845.968,3.11,3.11,0,0,0-.306,1.4,3.251,3.251,0,0,0,.3,1.41,2.376,2.376,0,0,0,.838.988A2.173,2.173,0,0,0-32.311-.6Zm9.3-.13a.369.369,0,0,1,.273.1.353.353,0,0,1,.1.26.353.353,0,0,1-.1.26.369.369,0,0,1-.273.1h-4.225a.34.34,0,0,1-.273-.123.391.391,0,0,1-.1-.253.434.434,0,0,1,.117-.3l3.848-5.33h-3.263a.375.375,0,0,1-.267-.1.342.342,0,0,1-.111-.26.342.342,0,0,1,.111-.26.375.375,0,0,1,.267-.1h3.991a.333.333,0,0,1,.26.117.4.4,0,0,1,.1.273.484.484,0,0,1-.1.286l-3.861,5.33ZM-13.5-9.1a3.481,3.481,0,0,1,2.1.617,3.735,3.735,0,0,1,1.274,1.651A5.975,5.975,0,0,1-9.7-4.55a6.033,6.033,0,0,1-.422,2.314A3.656,3.656,0,0,1-11.4-.6a3.534,3.534,0,0,1-2.1.6h-3.315a.379.379,0,0,1-.279-.111.379.379,0,0,1-.111-.279V-8.71a.379.379,0,0,1,.111-.28.379.379,0,0,1,.279-.11Zm-.13,8.333A2.7,2.7,0,0,0-11.3-1.814a4.519,4.519,0,0,0,.767-2.736,5.305,5.305,0,0,0-.325-1.9,2.972,2.972,0,0,0-1.021-1.365,2.864,2.864,0,0,0-1.748-.513h-2.756V-.767ZM-7.3-.39a.379.379,0,0,1-.111.279A.379.379,0,0,1-7.689,0a.379.379,0,0,1-.28-.111.379.379,0,0,1-.11-.279V-6.37a.379.379,0,0,1,.11-.28.379.379,0,0,1,.28-.11.379.379,0,0,1,.28.11.379.379,0,0,1,.111.28Zm-.39-7.241a.6.6,0,0,1-.4-.123.447.447,0,0,1-.143-.358v-.13A.437.437,0,0,1-8.086-8.6a.624.624,0,0,1,.41-.123q.52,0,.52.481v.13a.457.457,0,0,1-.136.358A.572.572,0,0,1-7.689-7.631Zm8.034.988a.379.379,0,0,1,.28.11.4.4,0,0,1,.11.293V-.611A3.377,3.377,0,0,1,.312,1.124a2.8,2.8,0,0,1-1.157,1.1A3.635,3.635,0,0,1-2.529,2.6a4.2,4.2,0,0,1-.955-.117,3.805,3.805,0,0,1-.858-.3Q-4.7,2-4.752,1.807A.286.286,0,0,1-4.842,1.6a.239.239,0,0,1,.117-.208.211.211,0,0,1,.13-.039,1.008,1.008,0,0,1,.3.091l.273.117a4.192,4.192,0,0,0,1.508.312A2.451,2.451,0,0,0-.7,1.215,2.4,2.4,0,0,0-.045-.559v-.806a2.4,2.4,0,0,1-1.027,1.1,2.945,2.945,0,0,1-1.469.4A3,3,0,0,1-4.16-.318,3.152,3.152,0,0,1-5.3-1.56a3.775,3.775,0,0,1-.416-1.781A3.747,3.747,0,0,1-5.3-5.109,3.152,3.152,0,0,1-4.16-6.351,2.98,2.98,0,0,1-2.555-6.8a2.864,2.864,0,0,1,1.5.41,2.743,2.743,0,0,1,1.008.981V-6.24a.4.4,0,0,1,.11-.286A.368.368,0,0,1,.344-6.643ZM-2.477-.6A2.412,2.412,0,0,0-1.2-.942a2.355,2.355,0,0,0,.884-.975A3.113,3.113,0,0,0,.007-3.341,3.073,3.073,0,0,0-.312-4.758,2.364,2.364,0,0,0-1.2-5.727a2.412,2.412,0,0,0-1.28-.345,2.323,2.323,0,0,0-1.267.358,2.456,2.456,0,0,0-.884.982,3.015,3.015,0,0,0-.318,1.391,3.044,3.044,0,0,0,.318,1.4,2.456,2.456,0,0,0,.884.982A2.323,2.323,0,0,0-2.477-.6ZM3.543-.39a.379.379,0,0,1-.11.279A.379.379,0,0,1,3.153,0a.379.379,0,0,1-.28-.111A.379.379,0,0,1,2.763-.39V-6.37a.379.379,0,0,1,.111-.28.379.379,0,0,1,.28-.11.379.379,0,0,1,.28.11.379.379,0,0,1,.11.28Zm-.39-7.241a.6.6,0,0,1-.4-.123.447.447,0,0,1-.143-.358v-.13A.437.437,0,0,1,2.756-8.6a.624.624,0,0,1,.41-.123q.52,0,.52.481v.13a.457.457,0,0,1-.137.358A.572.572,0,0,1,3.153-7.631ZM6.871-5.889v4.355a.931.931,0,0,0,.182.67.664.664,0,0,0,.481.175.756.756,0,0,0,.2-.033.733.733,0,0,1,.182-.032.258.258,0,0,1,.2.1A.337.337,0,0,1,8.2-.429a.357.357,0,0,1-.208.305A.95.95,0,0,1,7.495,0a2.706,2.706,0,0,1-.624-.065.991.991,0,0,1-.527-.39A1.7,1.7,0,0,1,6.091-1.5V-5.889H5.142a.375.375,0,0,1-.266-.1.342.342,0,0,1-.11-.26.342.342,0,0,1,.11-.26.375.375,0,0,1,.266-.1h.949V-8.06A.379.379,0,0,1,6.2-8.34a.379.379,0,0,1,.28-.11.379.379,0,0,1,.28.11.379.379,0,0,1,.11.28v1.443h1.3a.34.34,0,0,1,.253.117.37.37,0,0,1,.111.26.332.332,0,0,1-.1.253.365.365,0,0,1-.26.1Zm8.5-.754a.368.368,0,0,1,.28.117.4.4,0,0,1,.111.286V-.39a.379.379,0,0,1-.111.279.379.379,0,0,1-.28.111.379.379,0,0,1-.28-.111.379.379,0,0,1-.111-.279v-.871a2.724,2.724,0,0,1-.975.988,2.638,2.638,0,0,1-1.417.4,2.8,2.8,0,0,1-1.567-.455A3.127,3.127,0,0,1,9.932-1.573a3.927,3.927,0,0,1-.4-1.781,3.835,3.835,0,0,1,.4-1.775,3.088,3.088,0,0,1,1.1-1.228,2.814,2.814,0,0,1,1.54-.442,2.8,2.8,0,0,1,1.43.377,2.483,2.483,0,0,1,.975.988V-6.24a.4.4,0,0,1,.111-.286A.368.368,0,0,1,15.373-6.643ZM12.669-.6a2.151,2.151,0,0,0,1.215-.358,2.422,2.422,0,0,0,.845-.988,3.193,3.193,0,0,0,.306-1.41,3.091,3.091,0,0,0-.306-1.378,2.431,2.431,0,0,0-.845-.982,2.151,2.151,0,0,0-1.215-.358,2.18,2.18,0,0,0-1.215.351,2.393,2.393,0,0,0-.845.968,3.11,3.11,0,0,0-.306,1.4,3.251,3.251,0,0,0,.3,1.41,2.376,2.376,0,0,0,.839.988A2.173,2.173,0,0,0,12.669-.6Zm5.993.208a.379.379,0,0,1-.111.279A.379.379,0,0,1,18.272,0a.379.379,0,0,1-.28-.111.379.379,0,0,1-.111-.279V-9.23a.379.379,0,0,1,.111-.28.379.379,0,0,1,.28-.11.379.379,0,0,1,.279.11.379.379,0,0,1,.111.28ZM29.4-4.836a2.375,2.375,0,0,1,1.274.78,2.277,2.277,0,0,1,.494,1.521,2.294,2.294,0,0,1-.786,1.9A3.028,3.028,0,0,1,28.425,0h-3.5a.379.379,0,0,1-.279-.111.379.379,0,0,1-.111-.279V-8.71a.379.379,0,0,1,.111-.28.379.379,0,0,1,.279-.11h3.445a2.354,2.354,0,0,1,1.71.6A2.174,2.174,0,0,1,30.7-6.864a2.3,2.3,0,0,1-.338,1.235A1.935,1.935,0,0,1,29.4-4.836ZM29.868-6.8a1.493,1.493,0,0,0-.423-1.125,1.62,1.62,0,0,0-1.177-.409h-2.9v3.25h2.9a1.615,1.615,0,0,0,1.151-.455A1.692,1.692,0,0,0,29.868-6.8ZM28.386-.767a2.155,2.155,0,0,0,1.41-.442,1.614,1.614,0,0,0,.54-1.326,1.589,1.589,0,0,0-.552-1.339A2.254,2.254,0,0,0,28.36-4.3H25.37V-.767ZM38.2-6.643a.368.368,0,0,1,.279.117.4.4,0,0,1,.111.286V-.39a.379.379,0,0,1-.111.279A.379.379,0,0,1,38.2,0a.379.379,0,0,1-.279-.111.379.379,0,0,1-.111-.279v-.871a2.724,2.724,0,0,1-.975.988,2.638,2.638,0,0,1-1.417.4,2.8,2.8,0,0,1-1.566-.455A3.127,3.127,0,0,1,32.76-1.573a3.927,3.927,0,0,1-.4-1.781,3.835,3.835,0,0,1,.4-1.775,3.088,3.088,0,0,1,1.1-1.228,2.814,2.814,0,0,1,1.54-.442,2.8,2.8,0,0,1,1.43.377,2.483,2.483,0,0,1,.975.988V-6.24a.4.4,0,0,1,.111-.286A.368.368,0,0,1,38.2-6.643ZM35.5-.6a2.151,2.151,0,0,0,1.215-.358,2.422,2.422,0,0,0,.845-.988,3.193,3.193,0,0,0,.306-1.41,3.091,3.091,0,0,0-.306-1.378,2.431,2.431,0,0,0-.845-.982A2.151,2.151,0,0,0,35.5-6.071a2.18,2.18,0,0,0-1.215.351,2.393,2.393,0,0,0-.845.968,3.11,3.11,0,0,0-.306,1.4,3.251,3.251,0,0,0,.3,1.41,2.376,2.376,0,0,0,.838.988A2.173,2.173,0,0,0,35.5-.6Zm8.268-6.2a2.134,2.134,0,0,1,1.775.708A2.924,2.924,0,0,1,46.1-4.212V-.39a.368.368,0,0,1-.117.279A.385.385,0,0,1,45.715,0a.379.379,0,0,1-.279-.111.379.379,0,0,1-.111-.279V-4.173A2.124,2.124,0,0,0,44.9-5.544,1.575,1.575,0,0,0,43.6-6.071a2.267,2.267,0,0,0-1.06.26,2.267,2.267,0,0,0-.812.7,1.586,1.586,0,0,0-.312.942V-.39a.379.379,0,0,1-.111.279A.379.379,0,0,1,41.021,0a.379.379,0,0,1-.279-.111.379.379,0,0,1-.111-.279V-6.214a.379.379,0,0,1,.111-.28.379.379,0,0,1,.279-.11.379.379,0,0,1,.279.11.379.379,0,0,1,.111.28V-5.5a2.758,2.758,0,0,1,1.007-.93A2.706,2.706,0,0,1,43.764-6.8ZM53.41-.689a.434.434,0,0,1,.117.3.345.345,0,0,1-.137.279A.416.416,0,0,1,53.138,0a.357.357,0,0,1-.286-.143L49.979-3.185,49-2.353V-.39a.379.379,0,0,1-.11.279.379.379,0,0,1-.28.111.379.379,0,0,1-.279-.111.379.379,0,0,1-.111-.279V-9.23a.379.379,0,0,1,.111-.28.379.379,0,0,1,.279-.11.379.379,0,0,1,.28.11.379.379,0,0,1,.11.28V-3.3L52.76-6.539a.357.357,0,0,1,.273-.13.352.352,0,0,1,.26.124.382.382,0,0,1,.117.266.423.423,0,0,1-.143.3L50.59-3.7Zm2.444.3a.379.379,0,0,1-.11.279.379.379,0,0,1-.28.111.379.379,0,0,1-.279-.111.379.379,0,0,1-.111-.279V-6.37a.379.379,0,0,1,.111-.28.379.379,0,0,1,.279-.11.379.379,0,0,1,.28.11.379.379,0,0,1,.11.28Zm-.39-7.241a.6.6,0,0,1-.4-.123.447.447,0,0,1-.143-.358v-.13a.437.437,0,0,1,.149-.358.624.624,0,0,1,.41-.123q.52,0,.52.481v.13a.457.457,0,0,1-.137.358A.572.572,0,0,1,55.465-7.631Zm5.551.832a2.134,2.134,0,0,1,1.775.708,2.924,2.924,0,0,1,.565,1.878V-.39a.368.368,0,0,1-.117.279A.385.385,0,0,1,62.966,0a.379.379,0,0,1-.279-.111.379.379,0,0,1-.111-.279V-4.173a2.124,2.124,0,0,0-.423-1.371,1.575,1.575,0,0,0-1.306-.527,2.267,2.267,0,0,0-1.06.26,2.267,2.267,0,0,0-.812.7,1.586,1.586,0,0,0-.312.942V-.39a.379.379,0,0,1-.111.279A.379.379,0,0,1,58.273,0a.379.379,0,0,1-.279-.111.379.379,0,0,1-.111-.279V-6.214a.379.379,0,0,1,.111-.28.379.379,0,0,1,.279-.11.379.379,0,0,1,.279.11.379.379,0,0,1,.111.28V-5.5a2.758,2.758,0,0,1,1.007-.93A2.706,2.706,0,0,1,61.016-6.8Zm10,.156a.379.379,0,0,1,.28.11.4.4,0,0,1,.11.293V-.611a3.377,3.377,0,0,1-.423,1.735,2.8,2.8,0,0,1-1.157,1.1,3.635,3.635,0,0,1-1.684.377,4.2,4.2,0,0,1-.955-.117,3.806,3.806,0,0,1-.858-.3q-.358-.182-.41-.377a.286.286,0,0,1-.091-.208.239.239,0,0,1,.117-.208.211.211,0,0,1,.13-.039,1.008,1.008,0,0,1,.3.091l.273.117a4.192,4.192,0,0,0,1.508.312,2.451,2.451,0,0,0,1.813-.656,2.4,2.4,0,0,0,.657-1.775v-.806A2.4,2.4,0,0,1,69.6-.266a2.945,2.945,0,0,1-1.469.4,3,3,0,0,1-1.618-.448A3.152,3.152,0,0,1,65.37-1.56a3.775,3.775,0,0,1-.416-1.781,3.747,3.747,0,0,1,.416-1.768,3.152,3.152,0,0,1,1.137-1.241A2.98,2.98,0,0,1,68.114-6.8a2.864,2.864,0,0,1,1.5.41,2.743,2.743,0,0,1,1.007.981V-6.24a.4.4,0,0,1,.111-.286A.368.368,0,0,1,71.012-6.643ZM68.191-.6a2.412,2.412,0,0,0,1.281-.345,2.355,2.355,0,0,0,.884-.975,3.113,3.113,0,0,0,.318-1.424,3.073,3.073,0,0,0-.318-1.417,2.364,2.364,0,0,0-.884-.969,2.412,2.412,0,0,0-1.281-.345,2.323,2.323,0,0,0-1.268.358,2.456,2.456,0,0,0-.884.982,3.015,3.015,0,0,0-.319,1.391,3.044,3.044,0,0,0,.319,1.4,2.456,2.456,0,0,0,.884.982A2.323,2.323,0,0,0,68.191-.6Z" transform="translate(71.207 9.62)"/>
</svg>
