<svg xmlns="http://www.w3.org/2000/svg" width="96.117" height="11.889" viewBox="0 0 96.117 11.889">
  <path id="Path_16119" data-name="Path 16119" d="M7.657-33.909a1.212,1.212,0,0,1,.8.269.8.8,0,0,1,.325.634.982.982,0,0,1-.254.737.836.836,0,0,1-.6.246,1.582,1.582,0,0,1-.539-.111q-.048-.016-.214-.063a1.293,1.293,0,0,0-.357-.048,1.409,1.409,0,0,0-.793.254,1.851,1.851,0,0,0-.626.769,2.831,2.831,0,0,0-.246,1.229v3.757a.951.951,0,0,1-.269.69.91.91,0,0,1-.682.277.91.91,0,0,1-.682-.277.951.951,0,0,1-.269-.69v-6.547a.951.951,0,0,1,.269-.69A.91.91,0,0,1,4.2-33.75a.91.91,0,0,1,.682.277.951.951,0,0,1,.269.69v.206A2.4,2.4,0,0,1,6.2-33.568,3.217,3.217,0,0,1,7.657-33.909Zm9.543,0a.924.924,0,0,1,.682.269.944.944,0,0,1,.269.7v6.705a.951.951,0,0,1-.269.69.91.91,0,0,1-.682.277.9.9,0,0,1-.674-.269,1,1,0,0,1-.277-.682,3.253,3.253,0,0,1-1.07.785,3.225,3.225,0,0,1-1.419.325,3.624,3.624,0,0,1-1.981-.563,3.945,3.945,0,0,1-1.4-1.561A4.872,4.872,0,0,1,9.86-29.5a4.984,4.984,0,0,1,.507-2.275,3.9,3.9,0,0,1,1.387-1.569,3.53,3.53,0,0,1,1.942-.563,3.672,3.672,0,0,1,1.427.277,3.746,3.746,0,0,1,1.125.705v-.016a.951.951,0,0,1,.269-.69A.91.91,0,0,1,17.2-33.909ZM14-26.855a2.117,2.117,0,0,0,1.68-.753,2.8,2.8,0,0,0,.65-1.894,2.826,2.826,0,0,0-.65-1.9A2.107,2.107,0,0,0,14-32.165a2.091,2.091,0,0,0-1.664.761,2.826,2.826,0,0,0-.65,1.9,2.817,2.817,0,0,0,.642,1.894A2.093,2.093,0,0,0,14-26.855Zm16.391-7.054a2.36,2.36,0,0,1,2.172.959,4.977,4.977,0,0,1,.6,2.655v4.058a.951.951,0,0,1-.269.69.91.91,0,0,1-.682.277.91.91,0,0,1-.682-.277.951.951,0,0,1-.269-.69v-4.058a2.4,2.4,0,0,0-.341-1.371,1.345,1.345,0,0,0-1.2-.5,1.811,1.811,0,0,0-1.387.531,1.878,1.878,0,0,0-.5,1.339v4.058a.951.951,0,0,1-.269.69.91.91,0,0,1-.682.277.91.91,0,0,1-.682-.277.951.951,0,0,1-.269-.69v-4.058a2.4,2.4,0,0,0-.341-1.371,1.345,1.345,0,0,0-1.2-.5,1.811,1.811,0,0,0-1.387.531,1.878,1.878,0,0,0-.5,1.339v4.058a.951.951,0,0,1-.269.69.91.91,0,0,1-.682.277.91.91,0,0,1-.682-.277.951.951,0,0,1-.269-.69v-6.547a.951.951,0,0,1,.269-.69.91.91,0,0,1,.682-.277.91.91,0,0,1,.682.277.951.951,0,0,1,.269.69v.254A3.871,3.871,0,0,1,23.6-33.5a2.745,2.745,0,0,1,1.466-.4,2.4,2.4,0,0,1,2.552,1.744,3.733,3.733,0,0,1,1.1-1.2A2.762,2.762,0,0,1,30.388-33.909Zm12.095,0a.924.924,0,0,1,.682.269.944.944,0,0,1,.269.7v6.705a.951.951,0,0,1-.269.69.91.91,0,0,1-.682.277.9.9,0,0,1-.674-.269,1,1,0,0,1-.277-.682,3.253,3.253,0,0,1-1.07.785,3.225,3.225,0,0,1-1.419.325,3.624,3.624,0,0,1-1.981-.563,3.945,3.945,0,0,1-1.4-1.561,4.872,4.872,0,0,1-.515-2.267,4.984,4.984,0,0,1,.507-2.275,3.9,3.9,0,0,1,1.387-1.569,3.53,3.53,0,0,1,1.942-.563,3.672,3.672,0,0,1,1.427.277,3.747,3.747,0,0,1,1.125.705v-.016a.951.951,0,0,1,.269-.69A.91.91,0,0,1,42.483-33.909Zm-3.2,7.054a2.117,2.117,0,0,0,1.68-.753,2.8,2.8,0,0,0,.65-1.894,2.826,2.826,0,0,0-.65-1.9,2.107,2.107,0,0,0-1.68-.761,2.091,2.091,0,0,0-1.664.761,2.826,2.826,0,0,0-.65,1.9,2.817,2.817,0,0,0,.642,1.894A2.093,2.093,0,0,0,39.281-26.855Zm13.632-7.054a.924.924,0,0,1,.682.269.944.944,0,0,1,.269.7v6.705a.951.951,0,0,1-.269.69.91.91,0,0,1-.682.277.9.9,0,0,1-.674-.269,1,1,0,0,1-.277-.682,3.253,3.253,0,0,1-1.07.785,3.225,3.225,0,0,1-1.419.325,3.624,3.624,0,0,1-1.981-.563,3.945,3.945,0,0,1-1.4-1.561,4.872,4.872,0,0,1-.515-2.267,4.984,4.984,0,0,1,.507-2.275,3.9,3.9,0,0,1,1.387-1.569,3.53,3.53,0,0,1,1.942-.563,3.672,3.672,0,0,1,1.427.277,3.746,3.746,0,0,1,1.125.705v-.016a.951.951,0,0,1,.269-.69A.91.91,0,0,1,52.913-33.909Zm-3.2,7.054a2.117,2.117,0,0,0,1.68-.753,2.8,2.8,0,0,0,.65-1.894,2.826,2.826,0,0,0-.65-1.9,2.107,2.107,0,0,0-1.68-.761,2.091,2.091,0,0,0-1.664.761,2.826,2.826,0,0,0-.65,1.9,2.817,2.817,0,0,0,.642,1.894A2.093,2.093,0,0,0,49.711-26.855Zm12.016-.159a.875.875,0,0,1,.634.246.834.834,0,0,1,.254.626.841.841,0,0,1-.254.618.86.86,0,0,1-.634.254h-5.1a.8.8,0,0,1-.61-.262.81.81,0,0,1-.246-.563,1.388,1.388,0,0,1,.063-.452,1.671,1.671,0,0,1,.238-.42l3.773-4.882H56.765a.86.86,0,0,1-.634-.254.86.86,0,0,1-.254-.634.815.815,0,0,1,.254-.61.875.875,0,0,1,.634-.246h4.882a.81.81,0,0,1,.594.246.829.829,0,0,1,.246.61,1.488,1.488,0,0,1-.048.4,1.2,1.2,0,0,1-.222.388l-3.8,4.93Zm9.265-5.437v5.31a1.135,1.135,0,0,0,.222.816.809.809,0,0,0,.587.214.921.921,0,0,0,.238-.04.894.894,0,0,1,.222-.04.315.315,0,0,1,.246.119.41.41,0,0,1,.1.277.435.435,0,0,1-.254.373,1.158,1.158,0,0,1-.6.151,3.3,3.3,0,0,1-.761-.079,1.208,1.208,0,0,1-.642-.476,2.071,2.071,0,0,1-.309-1.268v-5.358H68.884a.457.457,0,0,1-.325-.127.417.417,0,0,1-.135-.317.417.417,0,0,1,.135-.317.457.457,0,0,1,.325-.127h1.157V-35.1a.462.462,0,0,1,.135-.341.462.462,0,0,1,.341-.135.462.462,0,0,1,.341.135.462.462,0,0,1,.135.341v1.76h1.585a.414.414,0,0,1,.309.143.452.452,0,0,1,.135.317.4.4,0,0,1-.127.309.446.446,0,0,1-.317.119Zm10.954,2.663a.431.431,0,0,1-.143.325.47.47,0,0,1-.333.135H75.478a3.663,3.663,0,0,0,.388,1.7,2.934,2.934,0,0,0,1.11,1.189,3.231,3.231,0,0,0,1.7.436,2.882,2.882,0,0,0,1.363-.317,2.808,2.808,0,0,0,.967-.808.536.536,0,0,1,.333-.143.394.394,0,0,1,.285.127.394.394,0,0,1,.127.285.47.47,0,0,1-.159.333,3.989,3.989,0,0,1-1.276,1.015,3.5,3.5,0,0,1-1.625.4,4.342,4.342,0,0,1-2.156-.523A3.708,3.708,0,0,1,75.082-27.1a4.42,4.42,0,0,1-.523-2.18,4.8,4.8,0,0,1,.515-2.275,3.715,3.715,0,0,1,1.371-1.49,3.477,3.477,0,0,1,1.823-.515,3.733,3.733,0,0,1,1.783.444,3.511,3.511,0,0,1,1.355,1.3A3.92,3.92,0,0,1,81.946-29.787Zm-3.678-2.853a2.656,2.656,0,0,0-1.7.634,2.938,2.938,0,0,0-1.007,1.823h5.405v-.127a2.5,2.5,0,0,0-.476-1.244,2.581,2.581,0,0,0-.991-.808A2.874,2.874,0,0,0,78.268-32.641Zm9.543-.919a5.514,5.514,0,0,1,1.387.166,3.01,3.01,0,0,1,1.03.452.788.788,0,0,1,.388.618.483.483,0,0,1-.119.317.368.368,0,0,1-.293.143.492.492,0,0,1-.262-.063,1.312,1.312,0,0,1-.23-.19,1.573,1.573,0,0,0-.4-.3,2.635,2.635,0,0,0-.626-.182,4.607,4.607,0,0,0-.832-.071,2.98,2.98,0,0,0-1.593.444,3.148,3.148,0,0,0-1.133,1.2,3.47,3.47,0,0,0-.412,1.68,3.65,3.65,0,0,0,.4,1.712,3.012,3.012,0,0,0,1.1,1.2A3,3,0,0,0,87.827-26a3.51,3.51,0,0,0,.911-.1,3.448,3.448,0,0,0,.674-.269,3.378,3.378,0,0,0,.38-.285,1.5,1.5,0,0,1,.222-.166.4.4,0,0,1,.206-.055.392.392,0,0,1,.3.119.435.435,0,0,1,.111.309.824.824,0,0,1-.38.579,3.325,3.325,0,0,1-1.046.531,4.641,4.641,0,0,1-1.474.222,3.9,3.9,0,0,1-2.061-.547,3.732,3.732,0,0,1-1.4-1.514,4.662,4.662,0,0,1-.5-2.172,4.455,4.455,0,0,1,.507-2.116A3.934,3.934,0,0,1,85.7-32.99,3.915,3.915,0,0,1,87.811-33.56Zm8.734.127a2.525,2.525,0,0,1,2.124.9,3.644,3.644,0,0,1,.7,2.306v4.486a.462.462,0,0,1-.135.341.462.462,0,0,1-.341.135.462.462,0,0,1-.341-.135.462.462,0,0,1-.135-.341v-4.486a2.676,2.676,0,0,0-.491-1.672,1.813,1.813,0,0,0-1.538-.642,2.64,2.64,0,0,0-1.26.317,2.66,2.66,0,0,0-.959.848,1.991,1.991,0,0,0-.365,1.149v4.486a.462.462,0,0,1-.135.341.462.462,0,0,1-.341.135.462.462,0,0,1-.341-.135.462.462,0,0,1-.135-.341V-36.524a.462.462,0,0,1,.135-.341A.462.462,0,0,1,93.327-37a.462.462,0,0,1,.341.135.462.462,0,0,1,.135.341v4.645A3.32,3.32,0,0,1,94.992-33,3.091,3.091,0,0,1,96.545-33.433Z" transform="translate(-3.25 37)" fill="#404040"/>
</svg>
