<svg xmlns="http://www.w3.org/2000/svg" width="144.207" height="71.673" viewBox="0 0 144.207 71.673">
  <path id="Path_19227" data-name="Path 19227" d="M-41.523-47.1a7.231,7.231,0,0,1,4.3,1.29,3.82,3.82,0,0,1,1.816,3.2A4.726,4.726,0,0,1-36.6-39.125a3.966,3.966,0,0,1-2.915,1.195A9.1,9.1,0,0,1-42.1-38.5a10.728,10.728,0,0,0-3.154-.669,9.718,9.718,0,0,0-5.782,2.055,15.041,15.041,0,0,0-4.587,5.638,17.789,17.789,0,0,0-1.768,7.98V-.469a4.508,4.508,0,0,1-1.29,3.249,4.381,4.381,0,0,1-3.3,1.338,4.307,4.307,0,0,1-3.249-1.29,4.558,4.558,0,0,1-1.242-3.3v-40.9a4.508,4.508,0,0,1,1.29-3.249,4.268,4.268,0,0,1,3.2-1.338,4.381,4.381,0,0,1,3.3,1.338,4.508,4.508,0,0,1,1.29,3.249V-36.5a18.091,18.091,0,0,1,6.307-7.6A16.924,16.924,0,0,1-41.523-47.1ZM11.516-66.6a4.465,4.465,0,0,1,3.3,1.29,4.465,4.465,0,0,1,1.29,3.3V-.469a4.508,4.508,0,0,1-1.29,3.249,4.381,4.381,0,0,1-3.3,1.338,4.307,4.307,0,0,1-3.249-1.29,4.558,4.558,0,0,1-1.242-3.3V-3.145A19.332,19.332,0,0,1,.287,2.684,19.049,19.049,0,0,1-9.031,5.073,21.436,21.436,0,0,1-20.785,1.729,23.417,23.417,0,0,1-29.1-7.589a29.032,29.032,0,0,1-3.058-13.427,29.412,29.412,0,0,1,3.01-13.427,23.076,23.076,0,0,1,8.266-9.318A21.107,21.107,0,0,1-9.317-47.1,21.034,21.034,0,0,1,.048-45a20.023,20.023,0,0,1,6.976,5.447V-62.013a4.558,4.558,0,0,1,1.242-3.3A4.307,4.307,0,0,1,11.516-66.6ZM-7.979-3.336A14.2,14.2,0,0,0,0-5.63a15.5,15.5,0,0,0,5.447-6.307,20.431,20.431,0,0,0,1.959-9.079,20.515,20.515,0,0,0-1.959-9.031A15.437,15.437,0,0,0,0-36.4,14.2,14.2,0,0,0-7.979-38.7a14.2,14.2,0,0,0-7.98,2.294,15.437,15.437,0,0,0-5.447,6.355,20.515,20.515,0,0,0-1.959,9.031,20.431,20.431,0,0,0,1.959,9.079A15.5,15.5,0,0,0-15.959-5.63,14.2,14.2,0,0,0-7.979-3.336ZM54.711-47.1A21.436,21.436,0,0,1,66.465-43.76a23.147,23.147,0,0,1,8.266,9.27,29.117,29.117,0,0,1,3.01,13.379,29.709,29.709,0,0,1-3.01,13.475,23.008,23.008,0,0,1-8.266,9.365A21.107,21.107,0,0,1,54.9,5.073a20.076,20.076,0,0,1-9.27-2.2,21.625,21.625,0,0,1-6.976-5.447V.2a4.508,4.508,0,0,1-1.29,3.249,4.381,4.381,0,0,1-3.3,1.338,4.347,4.347,0,0,1-3.2-1.29A4.465,4.465,0,0,1,29.577.2V-62.013a4.558,4.558,0,0,1,1.242-3.3,4.307,4.307,0,0,1,3.249-1.29,4.381,4.381,0,0,1,3.3,1.338,4.508,4.508,0,0,1,1.29,3.249V-38.7a19.141,19.141,0,0,1,6.69-5.925A18.737,18.737,0,0,1,54.711-47.1ZM53.66-3.336a14.049,14.049,0,0,0,7.932-2.341,15.649,15.649,0,0,0,5.495-6.4,20.515,20.515,0,0,0,1.959-9.031,20.208,20.208,0,0,0-1.959-8.983A15.375,15.375,0,0,0,61.592-36.4,14.261,14.261,0,0,0,53.66-38.7,14.426,14.426,0,0,0,45.632-36.4a15.442,15.442,0,0,0-5.495,6.259,20.126,20.126,0,0,0-1.959,9.031,20.431,20.431,0,0,0,1.959,9.079,15.717,15.717,0,0,0,5.495,6.355A14.211,14.211,0,0,0,53.66-3.336Z" transform="translate(66.465 66.6)"/>
</svg>
