<svg xmlns="http://www.w3.org/2000/svg" width="20" height="20" viewBox="0 0 20 20">
  <g id="Group_15476" data-name="Group 15476" transform="translate(-168 -553)">
    <g id="add-post" transform="translate(168 553)">
      <path id="Path_23800" data-name="Path 23800" d="M15.333,2V5.333A2.667,2.667,0,0,0,18,8h3.992q.008.1.008.2v8.464A5.333,5.333,0,0,1,16.667,22H7.333A5.333,5.333,0,0,1,2,16.667V7.333A5.333,5.333,0,0,1,7.333,2Z" transform="translate(-2 -2)" fill="#404040" fill-rule="evenodd"/>
      <path id="Path_23801" data-name="Path 23801" d="M46,2.742V5.827A1.333,1.333,0,0,0,47.333,7.16h3.512a2.665,2.665,0,0,0-.36-.414L46.7,3.212A2.665,2.665,0,0,0,46,2.742Z" transform="translate(-31.331 -2.495)" fill="#404040"/>
    </g>
    <g id="Group_15232" data-name="Group 15232" transform="translate(174.947 559.254)">
      <path id="arrow-button" d="M10.578,13.087a.359.359,0,0,0,.509,0l2.544-2.544a.36.36,0,0,0-.509-.509l-1.93,1.93V6.36a.36.36,0,1,0-.72,0v5.6l-1.93-1.93a.36.36,0,0,0-.509.509Z" transform="translate(-7.779 -5.852)" fill="#fcfcfc" fill-rule="evenodd"/>
      <path id="arrow-button_-_Outline" data-name="arrow-button - Outline" d="M10.833,13.342a.509.509,0,0,0,.36-.149l2.544-2.544a.51.51,0,1,0-.721-.721L11.343,11.6V6.36a.51.51,0,1,0-1.019,0V11.6L8.649,9.928a.51.51,0,0,0-.721.721l2.544,2.544A.506.506,0,0,0,10.833,13.342Zm2.544-3.264a.21.21,0,0,1,.148.358l-2.544,2.544a.211.211,0,0,1-.033.027.214.214,0,0,1-.264-.027L8.14,10.437a.21.21,0,0,1,.3-.3l2.186,2.186V6.36a.21.21,0,1,1,.42,0v5.966l2.186-2.186A.208.208,0,0,1,13.377,10.078Z" transform="translate(-7.779 -5.85)" fill="#fcfcfc"/>
    </g>
  </g>
</svg>
