<svg xmlns="http://www.w3.org/2000/svg" width="16" height="16" viewBox="0 0 16 16">
  <g id="Group_15210" data-name="Group 15210" transform="translate(-24 -659)">
    <g id="Group_15143" data-name="Group 15143" transform="translate(24 659)">
      <path id="refund" d="M16.374,5.513c-.23-.261-.445-.994-.89-.735-.352.347.264.72.386,1.048a.3.3,0,1,0,.5-.313Zm.766,1.951c-.155-.315-.173-1.075-.67-.94a.3.3,0,0,0-.158.389c.2.291.146,1.009.63.922a.3.3,0,0,0,.2-.37Zm.236,2.084c-.069-.343.111-1.086-.4-1.082a.3.3,0,0,0-.253.334c.115.333-.12,1,.361,1.054a.3.3,0,0,0,.3-.306Zm-.31,2.073c.023-.352.387-1.017-.111-1.15-.495,0-.32.691-.466,1.015a.3.3,0,0,0,.577.135Zm-1.1,2.08c.387-.06.439-.62.614-.909a.3.3,0,1,0-.549-.224C15.946,12.91,15.33,13.586,15.968,13.7Zm-1.475,1.078a.3.3,0,0,0,.216.5c.344-.068.521-.493.751-.73a.3.3,0,1,0-.472-.358,7.436,7.436,0,0,1-.5.588Zm-1.407,1.7a2.817,2.817,0,0,0,.837-.52.3.3,0,0,0,.052-.417c-.347-.352-.718.264-1.046.387a.3.3,0,0,0,.157.549Zm-1.877.735c.31-.106,1.195-.219,1.025-.684-.244-.43-.76.068-1.111.1a.3.3,0,0,0,.086.581ZM1.376,9.4a8.262,8.262,0,0,0,8.3,8,.3.3,0,0,0,0-.594A7.662,7.662,0,0,1,1.968,9.4a7.386,7.386,0,0,1,12.41-5.432H13.2a.3.3,0,0,0,0,.594h1.878a.307.307,0,0,0,.3-.315V2.483a.3.3,0,1,0-.593,0V3.542A7.977,7.977,0,0,0,1.376,9.4Z" transform="translate(-1.376 -1.403)" fill="#ff7600"/>
      <g id="box" transform="translate(4.724 4.331)">
        <path id="Path_22816" data-name="Path 22816" d="M7.641,1.071H2.661a.787.787,0,0,0-.786.786V7.624a.787.787,0,0,0,.786.786h4.98a.787.787,0,0,0,.786-.786V1.858A.787.787,0,0,0,7.641,1.071Zm.524,6.553a.524.524,0,0,1-.524.524H2.661a.524.524,0,0,1-.524-.524V1.858a.524.524,0,0,1,.524-.524H3.972v2a.4.4,0,0,0,.569.353l.553-.277a.132.132,0,0,1,.115,0l.553.274a.392.392,0,0,0,.569-.351v-2H7.641a.524.524,0,0,1,.524.524Z" transform="translate(-1.875 -1.071)" fill="#1d1d1d"/>
        <path id="Path_22817" data-name="Path 22817" d="M5.984,10.446H4.411a.394.394,0,0,0-.393.393v1.225a.393.393,0,0,0,.393.393H5.984a.393.393,0,0,0,.393-.393V10.84A.394.394,0,0,0,5.984,10.446ZM4.542,11.715a.131.131,0,0,1,.131-.131H5.722a.131.131,0,1,1,0,.262H4.673A.131.131,0,0,1,4.542,11.715Zm1.179-.393H4.673a.131.131,0,1,1,0-.262H5.722a.131.131,0,1,1,0,.262Z" transform="translate(-2.969 -5.86)" fill="#1d1d1d"/>
        <path id="Path_22818" data-name="Path 22818" d="M11.2,14.023H9.745a.131.131,0,1,0,0,.262H11.2a.131.131,0,1,0,0-.262Z" transform="translate(-5.828 -7.686)" fill="#1d1d1d"/>
        <path id="Path_22819" data-name="Path 22819" d="M11.626,12.77H10.577a.131.131,0,1,0,0,.262h1.048a.131.131,0,1,0,0-.262Z" transform="translate(-6.253 -7.046)" fill="#1d1d1d"/>
      </g>
    </g>
  </g>
</svg>
