<svg xmlns="http://www.w3.org/2000/svg" xmlns:xlink="http://www.w3.org/1999/xlink" width="20" height="20" viewBox="0 0 20 20">
  <defs>
    <clipPath id="clip-path">
      <rect id="Rectangle_4561" data-name="Rectangle 4561" width="20" height="20" fill="none"/>
    </clipPath>
  </defs>
  <g id="Mask_Group_194" data-name="Mask Group 194" clip-path="url(#clip-path)">
    <g id="dollar" transform="translate(0.398 0.042)">
      <g id="Group_7904" data-name="Group 7904">
        <g id="Group_7903" data-name="Group 7903">
          <path id="Path_19173" data-name="Path 19173" d="M18.937,7.173a.425.425,0,0,0-.425.425c0,.309-.016.614-.046.913s-.077.6-.136.887a8.513,8.513,0,0,1-.219.856c-.088.279-.188.554-.3.82s-.238.527-.377.782-.286.5-.447.737-.333.467-.513.687-.374.432-.577.634-.414.395-.634.577-.449.354-.688.514-.484.31-.736.447-.514.263-.781.375-.542.213-.819.3-.566.16-.857.219-.587.1-.885.136a9.367,9.367,0,0,1-1.827,0c-.3-.031-.6-.077-.887-.136a8.513,8.513,0,0,1-.856-.219c-.279-.088-.554-.188-.82-.3s-.528-.239-.781-.375-.5-.287-.737-.449-.467-.333-.687-.513-.432-.374-.634-.577-.395-.414-.577-.634-.353-.449-.513-.687c-.069-.1-.128-.21-.191-.315H4.479a.425.425,0,0,0,0-.85h-3.4a.425.425,0,0,0-.425.425v3.4a.425.425,0,1,0,.85,0V13.108c.168.246.344.484.533.712s.409.474.63.694.452.431.694.631.492.387.753.562.529.339.807.491.562.287.856.412.591.233.9.329.619.175.937.241a9.807,9.807,0,0,0,.972.148,9.692,9.692,0,0,0,1,.052c.337,0,.67-.018,1-.051s.652-.083.97-.148.63-.146.939-.241.606-.206.9-.33.578-.261.856-.412.546-.314.805-.489.512-.364.753-.564.474-.409.694-.63.431-.452.631-.694.387-.492.562-.753.339-.53.489-.806a9.46,9.46,0,0,0,.413-.856q.185-.438.329-.9t.241-.937a9.807,9.807,0,0,0,.148-.972c.032-.328.05-.662.05-1A.425.425,0,0,0,18.937,7.173Z" transform="translate(0.198 2.18)" fill="#fcfcfc"/>
          <path id="Path_19174" data-name="Path 19174" d="M.9,8.867c.031-.3.077-.6.136-.887a8.514,8.514,0,0,1,.219-.856c.087-.279.187-.554.3-.82s.239-.528.376-.781.287-.5.449-.737.333-.467.512-.687.374-.432.577-.634.414-.395.634-.577.45-.354.688-.514.484-.31.736-.447.515-.263.781-.376.542-.213.819-.3.566-.16.857-.219.587-.1.885-.136a9.367,9.367,0,0,1,1.827,0c.3.031.6.077.887.136a8.514,8.514,0,0,1,.856.219c.279.088.554.188.82.3s.528.239.781.375.5.287.737.449.467.333.687.513.432.374.634.577.395.414.577.634.354.449.514.688c.069.1.127.21.191.315H14.883a.425.425,0,1,0,0,.85h3.4a.425.425,0,0,0,.425-.425v-3.4a.425.425,0,1,0-.85,0V4.27c-.168-.246-.344-.484-.533-.712s-.409-.474-.63-.694-.452-.432-.695-.632-.492-.387-.753-.562-.529-.339-.807-.491-.562-.287-.856-.412-.591-.233-.9-.329S12.068.264,11.75.2A9.806,9.806,0,0,0,10.778.05a10.077,10.077,0,0,0-2,0c-.328.033-.652.083-.97.148s-.628.145-.936.241-.606.206-.9.329-.578.261-.856.412-.545.315-.805.49-.511.364-.753.564-.474.409-.695.63-.431.452-.631.695-.387.492-.562.752-.34.529-.491.808-.287.562-.412.855-.233.592-.328.9S.265,7.491.2,7.809a9.806,9.806,0,0,0-.148.972,9.922,9.922,0,0,0-.051,1,.425.425,0,1,0,.85,0C.85,9.471.867,9.165.9,8.867Z" transform="translate(0 -0.001)" fill="#fcfcfc"/>
        </g>
      </g>
    </g>
  </g>
</svg>
