<svg xmlns="http://www.w3.org/2000/svg" xmlns:xlink="http://www.w3.org/1999/xlink" width="25" height="25" viewBox="0 0 25 25">
  <defs>
    <clipPath id="clip-path">
      <rect id="Rectangle_6657" data-name="Rectangle 6657" width="25" height="25" transform="translate(0.172 0.311)" fill="none"/>
    </clipPath>
  </defs>
  <g id="Group_15493" data-name="Group 15493" transform="translate(-203 -841)">
    <g id="Mask_Group_876" data-name="Mask Group 876" transform="translate(202.828 840.689)" clip-path="url(#clip-path)">
      <g id="paper-plane" transform="translate(1.259 0.116)">
        <path id="Path_23899" data-name="Path 23899" d="M26.484,2.7c.027.215-1.3,16.154-1.723,16.547-.478.444-2.02-.658-3.923-2.02-.568-.407-1.169-.836-1.783-1.254-.861-.587-1.7-1.164-2.42-1.66l-.53-.367.53-.574.821-.889.821-.889L19.1,10.7l.821-.889.821-.889.821-.889.821-.889.821-.889.821-.889.821-.889Zm-12.2,19.338c-.049.073-.085.132-.106.174A.981.981,0,0,0,14.281,22.036Zm-2.44-7.8c.149-.092.7-.523,1.511-1.169.47-.375,1.027-.823,1.642-1.319l.821-.663,1.209-.977,0,0h0C18.5,8.914,20.1,7.62,21.56,6.451L22.38,5.8l.821-.653c.286-.227.561-.443.821-.647.294-.23.569-.444.821-.639A10.705,10.705,0,0,1,26.484,2.7C26.076,1.9,4.084,13.576,3.876,13.943s7.965.3,7.965.3Z" transform="translate(-3.753 -2.54)" fill="#8d8d8d" fill-rule="evenodd"/>
        <path id="Path_23900" data-name="Path 23900" d="M15.954,13.78c-.079.474-.178,1.045-.291,1.664-.235,1.29-.529,2.786-.821,4.035a13.528,13.528,0,0,1-.713,2.395c.142-.214.393-.555.713-.973,1.092-1.431,2.983-3.773,4.062-5.092-.861-.587-1.7-1.164-2.42-1.66Z" transform="translate(-3.602 -2.376)" fill="#fff"/>
        <path id="Path_23901" data-name="Path 23901" d="M15.7,15.606c.113-.619.212-1.19.291-1.664l.53-.574.821-.889.821-.889.821-.889.821-.889.821-.889.821-.889.821-.889.821-.889.821-.889.821-.889L26.369,2.7a10.705,10.705,0,0,0-1.641,1.159c-.252.194-.527.408-.821.639-.26.2-.534.42-.821.647l-.821.653-.821.656c-1.458,1.168-3.059,2.463-4.534,3.657h0l0,0-1.209.977-.821.663c-.615.5-1.171.944-1.642,1.319-.809.646-1.362,1.077-1.511,1.169.214,1.156.534,2.738.877,4.193.209.886.427,1.724.634,2.39.32,1.026.617,1.641.822,1.388.022-.042.058-.1.106-.174a13.528,13.528,0,0,0,.713-2.395c.292-1.249.586-2.745.821-4.035Z" transform="translate(-3.637 -2.539)" fill="#fff"/>
        <g id="Group_15374" data-name="Group 15374">
          <path id="Path_23902" data-name="Path 23902" d="M3.97,14.019h0ZM4.1,13.93l.127-.079c.171-.1.417-.247.727-.424.621-.352,1.5-.835,2.546-1.4,2.1-1.133,4.877-2.6,7.664-4.033s5.579-2.827,7.7-3.815c1.061-.494,1.951-.885,2.587-1.127.2-.077.379-.139.525-.184l-.066.047a12.567,12.567,0,0,0-1.182.849c-.208.2-.432.372-.669.557-.01,0-.152.049-.152.115v0l-.7.548H23.2a.119.119,0,0,0-.117.1l-.723.575a.119.119,0,0,0-.09.072l-.763.61a.119.119,0,0,0-.041.032c-1.453,1.165-3.047,2.454-4.516,3.642h0l0,0-.007.006-1.156.935a.119.119,0,0,0-.076.062l-.763.616a.12.12,0,0,0-.047.038c-.583.471-1.114.9-1.567,1.259a.119.119,0,0,0-.089.071c-.389.31-.716.569-.966.763-.231.179-.39.3-.471.352H11.75l-.259,0-.923,0c-.763,0-1.777,0-2.785-.015s-2.008-.039-2.742-.084c-.368-.022-.665-.049-.862-.082L4.1,13.93Zm7.878.365c.214,1.147.526,2.69.861,4.11.209.885.425,1.72.632,2.382a6.717,6.717,0,0,0,.444,1.151.6.6,0,0,0,.157.205l.005,0,0,0c.024-.044.059-.1.1-.166a13.594,13.594,0,0,0,.7-2.362c.291-1.246.585-2.74.82-4.029.113-.618.212-1.189.291-1.662L16,13.89l9.75-10.564c-.234.173-.513.384-.828.627-.252.194-.526.408-.82.638-.26.2-.534.42-.82.647l-.82.652-.821.656C20.178,7.714,18.578,9.008,17.1,10.2h0l0,0,0,0-1.2.974-.821.663c-.615.5-1.172.944-1.642,1.32-.4.323-.746.593-1,.793-.2.154-.353.27-.45.338ZM26.349,3.023l-10.061,10.9.417.289c.718.5,1.559,1.074,2.42,1.66.615.419,1.217.849,1.785,1.256h0c.954.682,1.809,1.294,2.486,1.68a3.727,3.727,0,0,0,.851.384c.225.058.356.034.431-.03v0a.312.312,0,0,0,.015-.037,1.532,1.532,0,0,0,.043-.154c.032-.134.067-.322.105-.558.076-.471.162-1.125.254-1.9.183-1.551.388-3.586.579-5.616s.367-4.054.495-5.585c.064-.765.115-1.407.149-1.863.013-.167.023-.309.031-.423ZM24.674,19.167h0ZM16.193,14.15l.376.26c.689.476,1.49,1.026,2.313,1.588-1.09,1.336-2.916,3.6-3.982,4.995l-.205.271c.135-.443.276-.992.416-1.593.292-1.251.587-2.75.822-4.04C16.032,15.089,16.12,14.585,16.193,14.15ZM14.386,22.1c.141-.211.388-.546.7-.961,1.068-1.4,2.9-3.671,3.99-5,.581.4,1.15.8,1.691,1.191l.005,0c.947.678,1.812,1.3,2.5,1.69a3.948,3.948,0,0,0,.909.408.683.683,0,0,0,.658-.091.226.226,0,0,0,.045-.062.552.552,0,0,0,.028-.066,1.775,1.775,0,0,0,.051-.179c.034-.143.07-.337.109-.575.077-.476.164-1.134.255-1.911.184-1.554.388-3.591.579-5.622s.367-4.056.495-5.587c.064-.765.115-1.408.15-1.865.017-.229.03-.412.039-.541,0-.065.007-.116.009-.154,0-.019,0-.034,0-.047a.282.282,0,0,0,0-.039l0-.021-.01-.019a.18.18,0,0,0-.1-.085.316.316,0,0,0-.105-.018,1.063,1.063,0,0,0-.248.033,6.354,6.354,0,0,0-.777.254c-.645.245-1.541.639-2.6,1.134-2.124.989-4.92,2.386-7.708,3.819s-5.57,2.9-7.668,4.036c-1.049.567-1.928,1.05-2.551,1.4-.311.177-.56.321-.734.428-.087.053-.157.1-.207.132-.025.017-.047.033-.064.047L3.8,13.85a.17.17,0,0,0-.029.036.145.145,0,0,0-.018.092.15.15,0,0,0,.037.078.251.251,0,0,0,.1.062,1.261,1.261,0,0,0,.253.061c.21.034.517.062.886.084.74.045,1.744.07,2.753.084s2.025.017,2.789.015l.924,0,.251,0c.214,1.147.526,2.684.86,4.1.209.887.427,1.729.636,2.4a6.92,6.92,0,0,0,.464,1.2.8.8,0,0,0,.239.292.242.242,0,0,0,.174.037.259.259,0,0,0,.152-.1,1.077,1.077,0,0,0,.117-.189Zm-3.744-5.061a.119.119,0,0,1,0,.169l-2.2,2.127a.119.119,0,1,1-.166-.171l2.2-2.127A.119.119,0,0,1,10.641,17.037ZM21.057,20a.119.119,0,0,1,.05.161l-2.835,5.372a.119.119,0,1,1-.211-.111L20.9,20.048a.119.119,0,0,1,.161-.05Zm-10.424.015a.119.119,0,0,1,.013.168l-.255.3c-.787.921-2.8,3.275-3.7,4.256a.119.119,0,1,1-.175-.162c.9-.977,2.906-3.325,3.695-4.248l.257-.3a.119.119,0,0,1,.168-.013Zm6.388,1.138a.119.119,0,0,1,.061.157c-.018.041-.07.134-.144.261s-.179.3-.3.513l-.518.864-.448.747c-.759,1.268-1.689,2.831-2.435,4.154a.119.119,0,0,1-.208-.117c.747-1.326,1.679-2.892,2.438-4.16l.448-.747.517-.863c.125-.209.227-.382.3-.511s.121-.211.132-.238a.119.119,0,0,1,.157-.061Z" transform="translate(-3.754 -2.541)" fill-rule="evenodd"/>
        </g>
      </g>
    </g>
  </g>
</svg>
