<svg xmlns="http://www.w3.org/2000/svg" xmlns:xlink="http://www.w3.org/1999/xlink" width="40" height="40" viewBox="0 0 40 40">
  <defs>
    <clipPath id="clip-path">
      <rect id="Rectangle_4609" data-name="Rectangle 4609" width="40" height="40" transform="translate(0 0.311)" fill="none"/>
    </clipPath>
  </defs>
  <g id="Group_15494" data-name="Group 15494" transform="translate(-195 -122)">
    <g id="Mask_Group_874" data-name="Mask Group 874" transform="translate(195 121.689)" clip-path="url(#clip-path)">
      <g id="paper-plane" transform="translate(2.001 0.001)">
        <path id="Path_23868" data-name="Path 23868" d="M39.8,2.72c.043.341-2.067,25.67-2.738,26.294-.759.706-3.209-1.046-6.233-3.209-.9-.646-1.858-1.329-2.834-1.993-1.368-.932-2.7-1.85-3.846-2.639l-.842-.583.842-.912,1.3-1.413,1.3-1.413,1.3-1.413,1.3-1.413,1.3-1.413,1.3-1.413,1.3-1.413,1.3-1.413,1.3-1.413,1.3-1.413ZM20.412,33.45c-.078.117-.135.21-.169.276A1.558,1.558,0,0,0,20.412,33.45ZM16.535,21.06c.237-.146,1.116-.831,2.4-1.857.747-.6,1.632-1.308,2.609-2.1l1.3-1.053L24.77,14.5l0,0h0c2.345-1.9,4.888-3.954,7.205-5.811l1.3-1.043q.673-.537,1.3-1.037c.455-.361.891-.7,1.3-1.028.467-.366.9-.706,1.3-1.015A17.012,17.012,0,0,1,39.8,2.72C39.157,1.458,4.21,20.007,3.878,20.59s12.657.469,12.657.469Z" transform="translate(-3.682 -2.469)" fill="#37ef9a" fill-rule="evenodd"/>
        <path id="Path_23869" data-name="Path 23869" d="M17.029,13.78c-.125.753-.283,1.661-.462,2.644-.374,2.05-.841,4.427-1.3,6.411A21.5,21.5,0,0,1,14.13,26.64c.226-.34.625-.881,1.133-1.546C17,22.82,20,19.1,21.717,17c-1.368-.932-2.7-1.85-3.846-2.639Z" transform="translate(2.6 4.341)" fill="#fff"/>
        <path id="Path_23870" data-name="Path 23870" d="M18.039,23.211c.179-.983.337-1.891.462-2.644l.842-.912,1.3-1.413,1.3-1.413,1.3-1.413L24.561,14l1.3-1.413,1.3-1.413,1.3-1.413,1.3-1.413,1.3-1.413,1.3-1.413L34.995,2.7a17.012,17.012,0,0,0-2.608,1.842c-.4.308-.837.649-1.3,1.015-.413.324-.849.668-1.3,1.028q-.63.5-1.3,1.037l-1.3,1.043c-2.317,1.856-4.86,3.914-7.205,5.811h0l0,0-1.921,1.553-1.3,1.053c-.977.788-1.861,1.5-2.609,2.1-1.286,1.026-2.164,1.712-2.4,1.857.34,1.836.848,4.351,1.393,6.663.332,1.408.678,2.74,1.008,3.8.509,1.63.98,2.608,1.307,2.206.034-.066.092-.159.169-.276a21.5,21.5,0,0,0,1.133-3.805c.463-1.984.931-4.361,1.3-6.411Z" transform="translate(1.127 -2.446)" fill="#fff"/>
        <g id="Group_15327" data-name="Group 15327" transform="translate(0 0)">
          <path id="Path_23871" data-name="Path 23871" d="M4.1,20.78h0Zm.2-.141q.085-.055.2-.126c.272-.166.662-.393,1.156-.673.987-.56,2.38-1.326,4.047-2.227,3.332-1.8,7.75-4.134,12.179-6.409s8.866-4.493,12.235-6.062c1.685-.785,3.1-1.406,4.112-1.791.323-.123.6-.221.835-.292l-.106.075a19.969,19.969,0,0,0-1.878,1.35c-.331.314-.687.591-1.063.885-.017,0-.241.078-.241.182v.007q-.529.415-1.1.871h-.01a.189.189,0,0,0-.186.156L33.324,7.5a.19.19,0,0,0-.143.114l-1.213.969a.19.19,0,0,0-.064.052c-2.31,1.851-4.842,3.9-7.177,5.788h0l0,0-.012.009L22.873,15.92a.19.19,0,0,0-.121.1L21.539,17a.191.191,0,0,0-.075.06c-.927.748-1.77,1.426-2.49,2a.189.189,0,0,0-.141.112c-.618.493-1.138.9-1.535,1.212-.367.284-.62.474-.748.559H16.46l-.411,0c-.354,0-.86,0-1.466,0-1.212,0-2.824,0-4.426-.025s-3.191-.063-4.358-.134c-.584-.036-1.057-.078-1.37-.13L4.3,20.639Zm12.518.581c.339,1.822.836,4.274,1.369,6.531.332,1.406.676,2.733,1,3.785a10.674,10.674,0,0,0,.706,1.829.954.954,0,0,0,.249.326l.008,0,.006-.005c.038-.071.094-.16.162-.263a21.6,21.6,0,0,0,1.113-3.753c.462-1.98.929-4.354,1.3-6.4.179-.982.337-1.889.462-2.641l.009-.056L38.7,3.788c-.372.275-.815.61-1.315,1-.4.308-.836.648-1.3,1.014-.412.323-.848.667-1.3,1.028q-.629.5-1.3,1.036l-1.3,1.042c-2.316,1.856-4.859,3.913-7.2,5.809h0l0,0-.006,0L23.04,16.272l-1.3,1.053c-.977.788-1.862,1.5-2.609,2.1-.643.513-1.185.942-1.6,1.261-.316.245-.56.43-.714.537ZM39.659,3.307,23.67,20.631l.663.459c1.141.788,2.477,1.706,3.845,2.638.978.666,1.934,1.35,2.836,2h0c1.515,1.084,2.875,2.056,3.95,2.67a5.922,5.922,0,0,0,1.352.61c.358.092.566.054.684-.048l0,0a.5.5,0,0,0,.024-.059,2.434,2.434,0,0,0,.069-.245c.051-.213.107-.512.168-.887.121-.749.258-1.788.4-3.021.291-2.465.616-5.7.919-8.925s.584-6.443.786-8.874c.1-1.216.183-2.235.237-2.961.02-.265.037-.491.049-.673ZM37,28.96h0ZM23.521,20.988l.6.413c1.094.756,2.367,1.631,3.676,2.523-1.732,2.122-4.633,5.718-6.328,7.937l-.326.43c.214-.7.438-1.576.661-2.531.464-1.989.932-4.369,1.306-6.42C23.264,22.481,23.4,21.679,23.521,20.988Zm-2.873,12.63c.224-.335.616-.868,1.119-1.527,1.7-2.223,4.611-5.834,6.341-7.953.924.632,1.828,1.278,2.687,1.893l.008.006c1.506,1.077,2.88,2.06,3.974,2.685a6.274,6.274,0,0,0,1.445.648,1.085,1.085,0,0,0,1.045-.145.359.359,0,0,0,.072-.1.877.877,0,0,0,.045-.105,2.82,2.82,0,0,0,.081-.285c.054-.227.112-.536.173-.914.122-.757.26-1.8.406-3.037.292-2.47.617-5.707.92-8.934s.584-6.445.786-8.878c.1-1.216.183-2.237.238-2.964.027-.363.048-.654.062-.86.007-.1.012-.185.014-.244,0-.03,0-.055,0-.075a.448.448,0,0,0,0-.062l0-.033-.015-.03a.286.286,0,0,0-.156-.135.5.5,0,0,0-.167-.029,1.69,1.69,0,0,0-.394.052,10.1,10.1,0,0,0-1.235.4c-1.025.39-2.449,1.016-4.137,1.8C30.58,6.37,26.138,8.59,21.708,10.867S12.856,15.478,9.522,17.28c-1.667.9-3.063,1.669-4.053,2.231-.495.281-.89.51-1.167.679-.138.084-.249.155-.329.21-.04.027-.074.053-.1.075s-.028.023-.04.036a.27.27,0,0,0-.045.058.231.231,0,0,0-.029.147.239.239,0,0,0,.058.125.4.4,0,0,0,.151.1,2,2,0,0,0,.4.1c.333.054.821.1,1.408.134,1.176.072,2.772.112,4.375.134s3.218.026,4.431.025c.607,0,1.113,0,1.468,0l.4,0c.34,1.823.835,4.265,1.366,6.516.332,1.41.679,2.747,1.011,3.811a11,11,0,0,0,.737,1.9,1.269,1.269,0,0,0,.38.464.384.384,0,0,0,.276.058.411.411,0,0,0,.241-.154,1.712,1.712,0,0,0,.186-.3ZM14.7,25.575a.189.189,0,0,1,0,.268l-3.5,3.379a.189.189,0,1,1-.263-.272l3.5-3.379A.189.189,0,0,1,14.7,25.575ZM31.25,30.282a.189.189,0,0,1,.079.256l-4.506,8.537a.189.189,0,1,1-.335-.177l4.506-8.537a.189.189,0,0,1,.256-.079Zm-16.565.024a.189.189,0,0,1,.021.267l-.406.475c-1.251,1.464-4.445,5.2-5.883,6.763a.189.189,0,1,1-.278-.257C9.571,36,12.757,32.271,14.01,30.8l.408-.478a.189.189,0,0,1,.267-.021Zm10.151,1.809a.189.189,0,0,1,.1.25c-.029.065-.112.212-.229.414s-.284.483-.482.815c-.232.388-.51.853-.823,1.373l-.712,1.187c-1.206,2.014-2.684,4.5-3.869,6.6a.189.189,0,0,1-.33-.186c1.187-2.107,2.667-4.6,3.874-6.61l.712-1.188c.312-.52.591-.984.822-1.372.2-.332.361-.607.48-.812s.192-.336.21-.377a.189.189,0,0,1,.25-.1Z" transform="translate(-3.754 -2.541)" fill-rule="evenodd"/>
        </g>
      </g>
    </g>
  </g>
</svg>
