<svg xmlns="http://www.w3.org/2000/svg" width="20" height="20" viewBox="0 0 20 20">
  <g id="Group_15477" data-name="Group 15477" transform="translate(-330 -72)">
    <g id="Group_15220" data-name="Group 15220" transform="translate(162 -481)">
      <g id="add-post" transform="translate(168 553)">
        <path id="Path_23800" data-name="Path 23800" d="M15.333,2V5.333A2.667,2.667,0,0,0,18,8h3.992q.008.1.008.2v8.464A5.333,5.333,0,0,1,16.666,22H7.333A5.333,5.333,0,0,1,2,16.666V7.333A5.333,5.333,0,0,1,7.333,2Z" transform="translate(-2 -2)" fill="#404040" fill-rule="evenodd"/>
        <path id="Path_23801" data-name="Path 23801" d="M46,2.742V5.828a1.333,1.333,0,0,0,1.333,1.333h3.513a2.665,2.665,0,0,0-.361-.414L46.7,3.212A2.666,2.666,0,0,0,46,2.742Z" transform="translate(-31.334 -2.495)" fill="#404040"/>
      </g>
      <path id="arrow-button" d="M10.58,6.105a.36.36,0,0,1,.509,0l2.545,2.545a.36.36,0,1,1-.509.509L11.194,7.229v5.606a.36.36,0,0,1-.72,0V7.229L8.543,9.16a.36.36,0,0,1-.509-.509Z" transform="translate(167.166 553.402)" fill="#fcfcfc" fill-rule="evenodd"/>
      <path id="arrow-button_-_Outline" data-name="arrow-button - Outline" d="M10.834,5.85A.509.509,0,0,1,11.195,6L13.74,8.545a.51.51,0,0,1-.721.721L11.344,7.591v5.244a.51.51,0,0,1-1.02,0V7.591L8.65,9.266a.51.51,0,1,1-.721-.721L10.474,6A.507.507,0,0,1,10.834,5.85ZM13.38,9.115a.21.21,0,0,0,.148-.358L10.983,6.212a.211.211,0,0,0-.033-.027.214.214,0,0,0-.264.027L8.14,8.757a.21.21,0,0,0,.3.3l2.187-2.187v5.968a.21.21,0,0,0,.42,0V6.867l2.187,2.187A.209.209,0,0,0,13.38,9.115Z" transform="translate(167.166 553.402)" fill="#fcfcfc"/>
    </g>
  </g>
</svg>
