<svg id="Group_15481" data-name="Group 15481" xmlns="http://www.w3.org/2000/svg" xmlns:xlink="http://www.w3.org/1999/xlink" width="70" height="70" viewBox="0 0 70 70">
  <defs>
    <clipPath id="clip-path">
      <circle id="Ellipse_678" data-name="Ellipse 678" cx="30" cy="30" r="30" fill="none"/>
    </clipPath>
  </defs>
  <g id="Group_15451" data-name="Group 15451">
    <g id="Ellipse_673" data-name="Ellipse 673" fill="none" stroke="#8d8d8d" stroke-width="0.5">
      <circle cx="35" cy="35" r="35" stroke="none"/>
      <circle cx="35" cy="35" r="34.75" fill="none"/>
    </g>
    <g id="Mask_Group_886" data-name="Mask Group 886" transform="translate(5 5)" clip-path="url(#clip-path)">
      <path id="shein-1" d="M9.359,9.047a2.469,2.469,0,0,1-.312,1.248,3.377,3.377,0,0,1-.884,1.04,3.755,3.755,0,0,1-1.352.728,5.935,5.935,0,0,1-1.716.26,12.179,12.179,0,0,1-1.508-.1,9.565,9.565,0,0,1-1.3-.26,7.487,7.487,0,0,1-1.143-.468C.78,11.283.416,11.022,0,10.763L1.82,9.151a4.571,4.571,0,0,0,1.56.832,5.508,5.508,0,0,0,1.612.26,2.63,2.63,0,0,0,.676-.1,1.923,1.923,0,0,0,.572-.26A2.449,2.449,0,0,0,6.6,9.515a.84.84,0,0,0,.156-.468,1.534,1.534,0,0,0-.1-.52.8.8,0,0,0-.416-.416A4.1,4.1,0,0,0,5.407,7.7a9.933,9.933,0,0,0-1.352-.468c-.468-.156-.936-.312-1.4-.52a4.823,4.823,0,0,1-1.144-.728,2.863,2.863,0,0,1-.78-.988A2.886,2.886,0,0,1,.364,3.535a3.1,3.1,0,0,1,.312-1.4A3.09,3.09,0,0,1,1.612,1.04,4.7,4.7,0,0,1,2.964.364,5.861,5.861,0,0,1,4.627.1,7.34,7.34,0,0,1,7.175.468a5.713,5.713,0,0,1,1.82,1.04L7.227,3.12a3.873,3.873,0,0,0-1.092-.676,3.987,3.987,0,0,0-1.4-.208,2.627,2.627,0,0,0-.676.1,1.468,1.468,0,0,0-.572.26,1.406,1.406,0,0,0-.364.416.84.84,0,0,0-.156.468A.879.879,0,0,0,3.12,4c.052.156.208.26.416.416a4.1,4.1,0,0,0,.832.416,11.979,11.979,0,0,0,1.3.468,8.477,8.477,0,0,1,1.664.676,4.991,4.991,0,0,1,1.144.832,3.046,3.046,0,0,1,.676.988A3.147,3.147,0,0,1,9.359,9.047Zm14.61,3.12H21.421v-5.2H16.69v5.2H14.142V.364H16.69V5.044h4.732V.364h2.547Zm14.09,0H28.752V.364h9.307V2.236H31.248V5.044h6.291v1.82H31.248v3.223h6.811Zm7.539,0H43.05V.364H45.6ZM60,.364V12.478L52.877,6.291v5.771h-2.5V0L57.5,6.187V.364Z" transform="translate(0 23.762)"/>
    </g>
  </g>
</svg>
