<svg xmlns="http://www.w3.org/2000/svg" width="14.997" height="14.997" viewBox="0 0 14.997 14.997">
  <g id="Group_15493" data-name="Group 15493" transform="translate(-278 -232)">
    <g id="bar-chart" transform="translate(278 232)">
      <path id="Path_15848" data-name="Path 15848" d="M3.076,451.689a.439.439,0,0,0-.439-.439H.439a.439.439,0,0,0-.439.439v3.544a.439.439,0,0,0,.439.439h2.2a.439.439,0,0,0,.439-.439Zm0,0" transform="translate(0 -440.676)" fill="#fcfcfc"/>
      <path id="Path_15849" data-name="Path 15849" d="M172.636,338.75h-2.2a.439.439,0,0,0-.439.439v6.18a.439.439,0,0,0,.439.439h2.2a.439.439,0,0,0,.439-.439v-6.18A.439.439,0,0,0,172.636,338.75Zm0,0" transform="translate(-166.016 -330.812)" fill="#fcfcfc"/>
      <path id="Path_15851" data-name="Path 15851" d="M511.386,151.25h-2.2a.439.439,0,0,0-.439.439v10.574a.439.439,0,0,0,.439.439h2.2a.439.439,0,0,0,.439-.439V151.689A.439.439,0,0,0,511.386,151.25Zm0,0" transform="translate(-496.829 -147.706)" fill="#fcfcfc"/>
      <g id="Group_15479" data-name="Group 15479">
        <g id="Group_15478" data-name="Group 15478">
          <path id="Path_15850" data-name="Path 15850" d="M341.386,301.25h-2.2a.439.439,0,0,0-.439.439v7.059a.439.439,0,0,0,.439.439h2.2a.439.439,0,0,0,.439-.439v-7.059A.439.439,0,0,0,341.386,301.25Zm0,0" transform="translate(-330.813 -294.191)" fill="#fcfcfc"/>
          <path id="Path_15852" data-name="Path 15852" d="M11.943,9.666a1.32,1.32,0,0,0,1.318-1.318,1.3,1.3,0,0,0-.054-.354l1.712-1.208a1.309,1.309,0,0,0,2.059-.9l1.753-.369a1.315,1.315,0,0,0,2.34-1.181l2.1-1.869a1.3,1.3,0,0,0,.632.169,1.323,1.323,0,1,0-1.219-.822l-2.1,1.869a1.3,1.3,0,0,0-.632-.169,1.316,1.316,0,0,0-1.3,1.143L16.8,5.027a1.315,1.315,0,0,0-2.439.685,1.3,1.3,0,0,0,.054.354L12.7,7.274a1.317,1.317,0,1,0-.759,2.392Zm0,0" transform="translate(-10.377)" fill="#fcfcfc"/>
        </g>
      </g>
    </g>
  </g>
</svg>
