<svg xmlns="http://www.w3.org/2000/svg" xmlns:xlink="http://www.w3.org/1999/xlink" width="16" height="16" viewBox="0 0 16 16">
  <defs>
    <clipPath id="clip-path">
      <rect id="Rectangle_4561" data-name="Rectangle 4561" width="16" height="16" fill="none"/>
    </clipPath>
  </defs>
  <g id="Group_15492" data-name="Group 15492" transform="translate(-303 -591)">
    <g id="Mask_Group_760" data-name="Mask Group 760" transform="translate(303 591)" clip-path="url(#clip-path)">
      <path id="claim" d="M1.143,10.339a.231.231,0,0,1-.446.12,7.976,7.976,0,1,1,5.21,5.51.231.231,0,0,1,.145-.439,7.512,7.512,0,1,0-4.909-5.191ZM11.068,6.06a.656.656,0,0,1,.909.947l-3.86,3.706a.656.656,0,0,1-.9,0L4.84,8.48a.656.656,0,1,1,.9-.955L7.659,9.333ZM5.586,11.413a.231.231,0,0,1-.329-.324l.329-.334a.231.231,0,0,1,.329.324ZM4.2,10.908a.231.231,0,0,1-.447-.116l.118-.454a.231.231,0,0,1,.447.116Zm1.7,2a.231.231,0,1,1-.123-.445l.452-.125a.231.231,0,1,1,.123.445ZM2.643,15.046,1.408,16.28a.165.165,0,0,1-.233,0l-.739-.739a.165.165,0,0,1,0-.233L1.67,14.074l-.783-.432a.165.165,0,0,1,.023-.3l3.563-1.31a.165.165,0,0,1,.212.212l-1.31,3.563a.165.165,0,0,1-.3.023Z" transform="translate(-0.388 -0.388)" fill="#388cff" fill-rule="evenodd"/>
    </g>
  </g>
</svg>
