<svg xmlns="http://www.w3.org/2000/svg" xmlns:xlink="http://www.w3.org/1999/xlink" width="150" height="150" viewBox="0 0 150 150">
  <defs>
    <clipPath id="clip-path">
      <rect id="Rectangle_4612" data-name="Rectangle 4612" width="150" height="150" transform="translate(-0.359 -0.295)" fill="none"/>
    </clipPath>
  </defs>
  <g id="Mask_Group_907" data-name="Mask Group 907" transform="translate(0.359 0.295)" clip-path="url(#clip-path)">
    <path id="high-quality" d="M83.32,3.844l9.329,6.983a14.858,14.858,0,0,0,8.419,3.064l11.635.647a15.3,15.3,0,0,1,14.216,11.929l2.658,11.346a14.854,14.854,0,0,0,4.48,7.759l8.5,7.975a15.3,15.3,0,0,1,3.223,18.276l-5.257,10.4a14.857,14.857,0,0,0-1.556,8.823l1.383,11.571a15.3,15.3,0,0,1-9.279,16.072l-10.712,4.588a14.854,14.854,0,0,0-6.863,5.759l-6.378,9.752a15.3,15.3,0,0,1-17.439,6.347l-11.154-3.371a14.855,14.855,0,0,0-8.959,0l-11.154,3.371a15.3,15.3,0,0,1-17.439-6.347l-6.378-9.752a14.857,14.857,0,0,0-6.863-5.759l-10.713-4.588a15.3,15.3,0,0,1-9.279-16.072L9.119,91.045a14.857,14.857,0,0,0-1.556-8.823l-5.257-10.4A15.3,15.3,0,0,1,5.529,53.547l8.5-7.975a14.854,14.854,0,0,0,4.479-7.759l2.658-11.346A15.3,15.3,0,0,1,35.379,14.538l11.635-.647a14.855,14.855,0,0,0,8.419-3.064l9.329-6.983a15.3,15.3,0,0,1,18.558,0ZM68.09,77.261,57.966,67.137a6.72,6.72,0,1,0-9.5,9.5l14.89,14.89a6.721,6.721,0,0,0,9.5,0C81.831,82.556,90.7,73.479,99.639,64.463a6.707,6.707,0,1,0-9.518-9.453Zm5.951-54.042a50.046,50.046,0,1,0,35.388,14.658A49.889,49.889,0,0,0,74.041,23.219Zm31.926,18.12A45.151,45.151,0,1,0,119.19,73.265,45.009,45.009,0,0,0,105.966,41.339Z" transform="translate(0.126 3.474)" fill="#388cff" fill-rule="evenodd"/>
  </g>
</svg>
