<svg xmlns="http://www.w3.org/2000/svg" xmlns:xlink="http://www.w3.org/1999/xlink" width="50" height="50" viewBox="0 0 50 50">
  <defs>
    <clipPath id="clip-path">
      <rect id="Rectangle_4612" data-name="Rectangle 4612" width="37.884" height="37.884" transform="translate(0 0)" fill="none"/>
    </clipPath>
  </defs>
  <g id="Group_16006" data-name="Group 16006" transform="translate(-202.249 -625.75)">
    <g id="Group_16002" data-name="Group 16002" transform="translate(202.249 625.75)">
      <g id="Mask_Group_981" data-name="Mask Group 981" transform="translate(6.06 6.058)" clip-path="url(#clip-path)">
        <g id="switches" transform="translate(0 0.685)">
          <g id="Group_15995" data-name="Group 15995">
            <g id="Group_15994" data-name="Group 15994">
              <path id="Path_24630" data-name="Path 24630" d="M29.067,0H8.083a8.083,8.083,0,0,0,0,16.166H29.067A8.083,8.083,0,0,0,29.067,0ZM8.083,13.989a5.906,5.906,0,1,1,5.906-5.906A5.913,5.913,0,0,1,8.083,13.989Z" fill="#c3c3c3"/>
            </g>
          </g>
          <g id="Group_15997" data-name="Group 15997" transform="translate(0 20.984)">
            <g id="Group_15996" data-name="Group 15996">
              <path id="Path_24631" data-name="Path 24631" d="M29.067,14.121H8.083a8.083,8.083,0,0,0,0,16.166H29.067a8.083,8.083,0,0,0,0-16.166Zm0,13.989A5.906,5.906,0,1,1,34.973,22.2,5.913,5.913,0,0,1,29.067,28.11Z" transform="translate(0 -14.121)" fill="#1d1d1d"/>
            </g>
          </g>
        </g>
      </g>
      <path id="Path_23996" data-name="Path 23996" d="M24.75-.25h0A143.278,143.278,0,0,1,39.96.563a10.876,10.876,0,0,1,8.979,8.975,142.949,142.949,0,0,1,0,30.421,10.879,10.879,0,0,1-8.975,8.979,143.3,143.3,0,0,1-15.213.813,143.283,143.283,0,0,1-15.209-.813A10.879,10.879,0,0,1,.563,39.963a142.951,142.951,0,0,1,0-30.421A10.879,10.879,0,0,1,9.537.563,143.284,143.284,0,0,1,24.75-.25Zm0,49.02a142.291,142.291,0,0,0,15.1-.807,9.974,9.974,0,0,0,8.11-8.113,141.95,141.95,0,0,0,0-30.2,9.972,9.972,0,0,0-8.114-8.109,141.73,141.73,0,0,0-30.2,0,9.974,9.974,0,0,0-8.11,8.113,141.95,141.95,0,0,0,0,30.2A9.974,9.974,0,0,0,9.65,47.963,142.281,142.281,0,0,0,24.751,48.77Z" transform="translate(0.249 0.25)" fill="#1d1d1d"/>
    </g>
  </g>
</svg>
