<svg id="Group_15484" data-name="Group 15484" xmlns="http://www.w3.org/2000/svg" xmlns:xlink="http://www.w3.org/1999/xlink" width="70" height="70" viewBox="0 0 70 70">
  <defs>
    <clipPath id="clip-path">
      <circle id="Ellipse_679" data-name="Ellipse 679" cx="30" cy="30" r="30" fill="none"/>
    </clipPath>
  </defs>
  <g id="Group_15448" data-name="Group 15448">
    <g id="Ellipse_674" data-name="Ellipse 674" fill="none" stroke="#8d8d8d" stroke-width="0.5">
      <circle cx="35" cy="35" r="35" stroke="none"/>
      <circle cx="35" cy="35" r="34.75" fill="none"/>
    </g>
    <g id="Mask_Group_889" data-name="Mask Group 889" transform="translate(5 5)" clip-path="url(#clip-path)">
      <g id="syriatel-1" transform="translate(0 25.035)">
        <path id="Path_23948" data-name="Path 23948" d="M59.27,3.247,60,7.02l-.684.158H54.158l-.533-.336v.336h-5.57L47.484,6.9v.281H35.858l-.626-.336v.384H29.345V4.932h2.63V3.293h2.95V4.855h9.221V3.338h3.3V4.93h2.95V3.274h2.95v1.61h2.95V3.274Zm-40.615,0,.571,3.886-1.272.094H13.733l-.8-.5v.523H7.778v1.9L7.1,9.511H.984L.336,8.34,0,6.533V5.287H2.424l.355.665V7.207H5.112L4.464,0H6.907l.581,4.932h2.546V3.322h2.95V4.9H15.6V3.322Z" transform="translate(0 0)" fill="#767776"/>
        <path id="Path_23949" data-name="Path 23949" d="M9.454,2.33h2.882V1.61H9.454Zm5.9-1.039L18.206,0l.019.355L15.36,1.649ZM16.634,8.93h2.882V8.21H16.634ZM32.03,8.9h2.882v-.72H32.03Z" transform="translate(0 0)" fill="#767776"/>
        <path id="Path_23950" data-name="Path 23950" d="M27.763,4.906l.132.4h.422l-.336.252.122.394-.338-.242-.329.242.122-.394-.336-.252h.422Zm.065,1.553.132.4h.422l-.336.252.122.4-.336-.252-.338.252.132-.4-.336-.252h.422Z" transform="translate(0 0)" fill="#00a651"/>
        <path id="Path_23951" data-name="Path 23951" d="M25.807,9.586l.029.139h.814l.2-.038.233-.065.187-.055.178-.055.346-.158.374-.235.281-.233.29-.29.1-.113.142-.187.113-.149.122-.206.132-.355.1-.355v-2.5L29.422,4.6l-.038-.139-.074-.187-.132-.29-.139-.3L28.822,3.3H27.427l.439.516.271.384.262.413.233.487.122.365.084.319.038.3.01.31-.029.326-.055.31-.046.262-.048.149-.055.178-.065.168-.084.132-.094.139-.1.142-.1.142-.132.149-.187.2-.1.113-.094.084-.1.094-.113.084-.226.139-.132.074-.122.065-.094.038-.149.055-.122.038-.132.029-.178.029Z" transform="translate(0 0)"/>
        <path id="Path_23952" data-name="Path 23952" d="M26.35,3.324,24.394,3.3l.346.449.271.394.262.4.187.31.149.31.122.336.065.271.074.439.029.29-.01.4-.01.122-.019.1-.038.158-.046.168-.029.113-.038.065-.055.074-.132.149-.262.233-.3.168-.365.158-.319.084-.384.074-.216.029h-.338l-.4-.029-.326-.055-.271-.074-.319-.094-.31-.132-.516-.278-.329-.2-.506-.326-.787-.571-.506-.4-.744-.607-.514-.43-.665-.542-.514-.449-.468-.422-.415-.422-.458-.542-.422-.506-.449-.6-.533-.694-.168.168.226.581.581,1.058.581.936.506.768.842,1.02,1.236,1.226,1.582,1.226,1.068.823.346.187.3.151.31.149.439.149.607.158.4.058.607.048,1.675-.019.1-.01.139-.029.149-.038.149-.055.206-.094.226-.122.122-.074.1-.094.1-.1.158-.158.206-.262L26.8,8.7l.132-.206.158-.3.113-.262.094-.329.065-.281.048-.355.01-.422-.038-.5-.029-.233-.084-.3-.142-.487-.065-.2-.094-.29-.132-.319-.168-.413-.187-.3Z" transform="translate(0 0)" fill="#ed1d24"/>
      </g>
    </g>
  </g>
</svg>
