<svg id="_20x20" data-name="20x20" xmlns="http://www.w3.org/2000/svg" xmlns:xlink="http://www.w3.org/1999/xlink" width="18" height="18" viewBox="0 0 18 18">
  <defs>
    <clipPath id="clip-path">
      <rect id="Rectangle_4612" data-name="Rectangle 4612" width="18" height="18" fill="none"/>
    </clipPath>
  </defs>
  <g id="Mask_Group_901" data-name="Mask Group 901" clip-path="url(#clip-path)">
    <g id="signature-with-a-pen">
      <path id="Path_23985" data-name="Path 23985" d="M13.172,6.966l2.712,1L13.628,14.1a7,7,0,0,1-2.153,2.753l-.193.528a.332.332,0,0,1-.31.217.342.342,0,0,1-.114-.02.331.331,0,0,1-.2-.425l.183-.5a7.233,7.233,0,0,1,.075-3.55ZM17.1.469a1.577,1.577,0,0,0-1.868.973l-1.633,4.45,2.711.995,1.631-4.449A1.73,1.73,0,0,0,17.1.469ZM12.19,6.736a.661.661,0,0,0,.85-.39L14.763,1.7a.662.662,0,0,0-1.241-.459L11.8,5.887A.661.661,0,0,0,12.19,6.736ZM9.415,15.453a2.572,2.572,0,0,0-.758-.537,1.98,1.98,0,0,0-.794-.143H7.791a1.028,1.028,0,0,0-.8-.675,1.615,1.615,0,0,0-1.246.331c.026-.148.069-.324.1-.45a2.9,2.9,0,0,0,.128-1.225.705.705,0,0,0-.643-.567,3.414,3.414,0,0,0-2.079.794c-.62.419-1.017.668-1.413.527-.483-.172-.531-1.478-.3-2.641.208-1.048.594-3,1.583-3.886.333-.3.816-.621,1.213-.464A2.241,2.241,0,0,1,5.275,8.38a.7.7,0,1,0,1.4-.132A3.458,3.458,0,0,0,4.852,5.2a2.492,2.492,0,0,0-2.666.727C.948,7.037.491,8.916.16,10.59c-.166.836-.571,3.609,1.208,4.241a2.9,2.9,0,0,0,2.67-.687c.129-.087.257-.173.381-.25a1.88,1.88,0,0,0,.117,1.516c.459.691,1.109.766,1.929.226.032-.02.068-.044.1-.068a.955.955,0,0,0,.454.454,1.86,1.86,0,0,0,.806.158,1.117,1.117,0,0,1,.256.022,1.222,1.222,0,0,1,.362.274,4.475,4.475,0,0,0,.387.335.7.7,0,0,0,.843-1.126A3.324,3.324,0,0,1,9.415,15.453Z" fill="#8d8d8d"/>
    </g>
  </g>
</svg>
