<svg xmlns="http://www.w3.org/2000/svg" width="25" height="25" viewBox="0 0 25 25">
  <g id="Group_12972" data-name="Group 12972" transform="translate(-333 -261)">
    <path id="Path_22466_-_Outline" data-name="Path 22466 - Outline" d="M12.5.625A11.875,11.875,0,1,0,24.375,12.5,11.888,11.888,0,0,0,12.5.625M12.5,0A12.5,12.5,0,1,1,0,12.5,12.5,12.5,0,0,1,12.5,0Z" transform="translate(333 261)" fill="#a2a0a0"/>
    <path id="arrow-button" d="M12.261,6.172a.588.588,0,0,1,.832,0l4.159,4.159a.588.588,0,0,1-.832.832L13.265,8.008v9.16a.588.588,0,0,1-1.176,0V8.008L8.933,11.163a.588.588,0,0,1-.832-.832Z" transform="translate(336.994 261.621)" fill="#a2a0a0" fill-rule="evenodd"/>
    <path id="arrow-button-2" data-name="arrow-button" d="M12.261,17.584a.588.588,0,0,0,.832,0l4.159-4.159a.588.588,0,0,0-.832-.832l-3.155,3.155V6.588a.588.588,0,0,0-1.176,0v9.16L8.933,12.593a.588.588,0,1,0-.832.832Z" transform="translate(328.658 261.621)" fill="#a2a0a0" fill-rule="evenodd"/>
  </g>
</svg>
