<svg id="_25x25_Back" data-name="25x25 Back" xmlns="http://www.w3.org/2000/svg" xmlns:xlink="http://www.w3.org/1999/xlink" width="25" height="25" viewBox="0 0 25 25">
  <defs>
    <clipPath id="clip-path">
      <rect id="Rectangle_4609" data-name="Rectangle 4609" width="25" height="25" fill="none"/>
    </clipPath>
  </defs>
  <g id="Mask_Group_874" data-name="Mask Group 874" clip-path="url(#clip-path)">
    <g id="paper-plane" transform="translate(-2.514 -2.541)">
      <path id="Path_23868" data-name="Path 23868" d="M26.157,2.7c.026.212-1.282,15.92-1.7,16.307-.471.438-1.99-.649-3.866-1.99-.56-.4-1.152-.824-1.757-1.236-.849-.578-1.677-1.147-2.385-1.636l-.522-.362.522-.566.809-.876.809-.876.809-.876.809-.876.809-.876.809-.876.809-.876.809-.876.809-.876.809-.876ZM14.13,21.755c-.048.072-.084.13-.1.171A.967.967,0,0,0,14.13,21.755Zm-2.4-7.685c.147-.09.692-.515,1.489-1.152.463-.37,1.012-.811,1.618-1.3l.809-.653L16.832,10l0,0h0c1.454-1.176,3.032-2.452,4.469-3.6l.809-.647.809-.643c.282-.224.553-.437.809-.638.29-.227.561-.438.809-.629A10.55,10.55,0,0,1,26.157,2.7c-.4-.783-22.075,10.721-22.281,11.083s7.85.291,7.85.291Z" fill="#388cff" fill-rule="evenodd"/>
      <path id="Path_23869" data-name="Path 23869" d="M15.928,13.78c-.078.467-.176,1.03-.287,1.64-.232,1.271-.521,2.745-.809,3.976a13.332,13.332,0,0,1-.7,2.36c.14-.211.388-.546.7-.959,1.076-1.41,2.94-3.718,4-5.019-.849-.578-1.677-1.147-2.385-1.636l-.522-.362Z" fill="#fff"/>
      <path id="Path_23870" data-name="Path 23870" d="M15.641,15.419c.111-.61.209-1.172.287-1.64l.522-.566.809-.876.809-.876.809-.876.809-.876.809-.876.809-.876.809-.876.809-.876.809-.876.809-.876L26.157,2.7A10.55,10.55,0,0,0,24.539,3.84c-.248.191-.519.4-.809.629-.256.2-.527.414-.809.638l-.809.643L21.3,6.4c-1.437,1.151-3.014,2.427-4.469,3.6h0l0,0-1.191.963-.809.653c-.606.489-1.154.93-1.618,1.3-.8.637-1.342,1.062-1.489,1.152.211,1.139.526,2.7.864,4.132.206.873.42,1.7.625,2.355.315,1.011.608,1.617.81,1.368.021-.041.057-.1.1-.171a13.332,13.332,0,0,0,.7-2.36c.287-1.231.577-2.7.809-3.976Z" fill="#fff"/>
      <g id="Group_15327" data-name="Group 15327">
        <path id="Path_23871" data-name="Path 23871" d="M3.967,13.853h0Zm.124-.087.125-.078c.168-.1.411-.244.717-.418.612-.347,1.476-.823,2.51-1.381C9.51,10.772,12.25,9.325,15,7.914s5.5-2.787,7.588-3.76c1.045-.487,1.922-.872,2.55-1.111.2-.076.374-.137.518-.181l-.066.046a12.385,12.385,0,0,0-1.165.837c-.205.195-.426.366-.659.549-.01,0-.15.048-.15.113v0l-.685.54h-.006a.118.118,0,0,0-.116.1l-.713.567A.118.118,0,0,0,22,5.686l-.752.6a.118.118,0,0,0-.04.032c-1.432,1.148-3,2.418-4.451,3.589h0l0,0-.007.006-1.14.922a.118.118,0,0,0-.075.061l-.752.607a.118.118,0,0,0-.046.037c-.575.464-1.1.884-1.544,1.241a.117.117,0,0,0-.087.07c-.383.306-.706.561-.952.752-.227.176-.384.294-.464.347h-.056l-.255,0-.909,0c-.752,0-1.752,0-2.745-.015s-1.979-.039-2.7-.083c-.362-.022-.655-.049-.85-.08l-.081-.015Zm7.764.36c.211,1.13.519,2.651.849,4.051.206.872.419,1.7.623,2.347a6.62,6.62,0,0,0,.438,1.134.591.591,0,0,0,.154.2l0,0,0,0c.024-.044.058-.1.1-.163a13.4,13.4,0,0,0,.69-2.328c.287-1.228.576-2.7.808-3.97.111-.609.209-1.171.286-1.638l.006-.035L25.427,3.315c-.231.17-.505.379-.816.618-.248.191-.519.4-.808.629-.256.2-.526.414-.808.637l-.809.643-.809.646c-1.437,1.151-3.014,2.427-4.468,3.6h0l0,0,0,0-1.188.96-.809.653c-.606.489-1.155.93-1.618,1.3-.4.318-.735.584-.99.782-.2.152-.348.266-.443.333ZM26.022,3.016,16.106,13.76l.411.284c.708.489,1.536,1.058,2.384,1.636.606.413,1.2.837,1.759,1.237h0c.94.672,1.783,1.275,2.45,1.656a3.673,3.673,0,0,0,.838.379c.222.057.351.034.425-.03v0a.307.307,0,0,0,.015-.037,1.509,1.509,0,0,0,.043-.152c.031-.132.066-.318.1-.55.075-.464.16-1.109.25-1.873.181-1.529.382-3.534.57-5.535s.362-4,.487-5.5c.063-.754.113-1.386.147-1.836.012-.165.023-.3.03-.417Zm-1.65,15.909h0Zm-8.358-4.944.37.256c.679.469,1.468,1.011,2.28,1.565-1.074,1.316-2.874,3.546-3.924,4.922l-.2.267c.133-.436.272-.978.41-1.57.288-1.233.578-2.71.81-3.982C15.854,14.908,15.941,14.41,16.013,13.982Zm-1.782,7.833c.139-.208.382-.538.694-.947,1.052-1.378,2.86-3.618,3.932-4.932.573.392,1.133.793,1.666,1.174l.005,0c.934.668,1.786,1.278,2.465,1.665a3.891,3.891,0,0,0,.9.4.673.673,0,0,0,.648-.09.223.223,0,0,0,.045-.061.544.544,0,0,0,.028-.065,1.75,1.75,0,0,0,.05-.177c.033-.141.069-.332.107-.567.076-.469.161-1.118.252-1.883C25.2,14.8,25.4,12.8,25.59,10.8s.362-4,.488-5.506c.063-.754.113-1.387.147-1.838.017-.225.03-.406.038-.533,0-.064.007-.115.009-.151,0-.018,0-.034,0-.046a.278.278,0,0,0,0-.038l0-.021-.009-.018a.178.178,0,0,0-.1-.084.311.311,0,0,0-.1-.018,1.048,1.048,0,0,0-.244.033,6.262,6.262,0,0,0-.766.25c-.636.242-1.519.63-2.565,1.117-2.094.975-4.849,2.352-7.6,3.764s-5.49,2.86-7.557,3.977c-1.034.559-1.9,1.035-2.514,1.383-.307.174-.552.316-.724.421-.086.052-.155.1-.2.13-.025.017-.046.033-.063.046l-.025.022a.168.168,0,0,0-.028.036.143.143,0,0,0-.018.091.148.148,0,0,0,.036.077.248.248,0,0,0,.094.061,1.243,1.243,0,0,0,.249.06c.207.034.509.061.873.083.729.044,1.719.069,2.714.083s2,.016,2.748.015l.91,0,.248,0c.211,1.131.518,2.645.847,4.041.206.874.421,1.7.627,2.363a6.82,6.82,0,0,0,.457,1.179.787.787,0,0,0,.236.288.238.238,0,0,0,.171.036.255.255,0,0,0,.149-.1,1.062,1.062,0,0,0,.115-.186Zm-3.69-4.988a.117.117,0,0,1,0,.166l-2.169,2.1a.117.117,0,1,1-.163-.169l2.169-2.1A.117.117,0,0,1,10.542,16.827Zm10.265,2.919a.117.117,0,0,1,.049.159L18.062,25.2a.117.117,0,1,1-.208-.11l2.794-5.295a.117.117,0,0,1,.159-.049Zm-10.273.015a.117.117,0,0,1,.013.166l-.252.294c-.776.908-2.757,3.227-3.649,4.194a.117.117,0,1,1-.173-.159c.888-.963,2.864-3.277,3.641-4.186l.253-.3a.117.117,0,0,1,.166-.013Zm6.3,1.122a.117.117,0,0,1,.06.155c-.018.04-.069.132-.142.257s-.176.3-.3.506l-.51.852-.441.736c-.748,1.249-1.665,2.79-2.4,4.094a.117.117,0,0,1-.2-.115c.736-1.307,1.654-2.85,2.4-4.1l.442-.737.51-.851c.123-.206.224-.376.3-.5s.119-.208.13-.234a.117.117,0,0,1,.155-.06Z" fill-rule="evenodd"/>
      </g>
    </g>
  </g>
</svg>
