<svg xmlns="http://www.w3.org/2000/svg" width="96.681" height="30.004" viewBox="0 0 96.681 30.004">
  <g id="Group_15488" data-name="Group 15488" transform="translate(-167 -121.998)">
    <g id="Group_13790" data-name="Group 13790" transform="translate(23 -321.002)">
      <path id="Path_23326" data-name="Path 23326" d="M11.142-46.586a1.056,1.056,0,0,1,.811.431,1.692,1.692,0,0,1,.366,1.133,1.706,1.706,0,0,1-.938,1.452,3.885,3.885,0,0,1-2.114.591,6.144,6.144,0,0,1-3.322-.846q-1.351-.846-1.351-3.591v-8.81H3.13a1.722,1.722,0,0,1-1.272-.511,1.736,1.736,0,0,1-.509-1.277,1.645,1.645,0,0,1,.509-1.229,1.751,1.751,0,0,1,1.272-.495H4.593V-61.78a1.889,1.889,0,0,1,.556-1.389,1.874,1.874,0,0,1,1.383-.559,1.784,1.784,0,0,1,1.335.559,1.918,1.918,0,0,1,.54,1.389v2.043h2.257a1.722,1.722,0,0,1,1.272.511,1.736,1.736,0,0,1,.509,1.277,1.645,1.645,0,0,1-.509,1.229,1.751,1.751,0,0,1-1.272.495H8.408v8.65a1.224,1.224,0,0,0,.35.974,1.407,1.407,0,0,0,.954.3,2.719,2.719,0,0,0,.7-.128A1.893,1.893,0,0,1,11.142-46.586Zm13.8-13.789a2.425,2.425,0,0,1,1.606.543,1.62,1.62,0,0,1,.652,1.277,1.982,1.982,0,0,1-.509,1.484,1.674,1.674,0,0,1-1.208.495A3.161,3.161,0,0,1,24.4-56.8q-.1-.032-.429-.128a2.583,2.583,0,0,0-.715-.1,2.818,2.818,0,0,0-1.59.511,3.723,3.723,0,0,0-1.256,1.548,5.719,5.719,0,0,0-.493,2.474v7.565a1.918,1.918,0,0,1-.54,1.389,1.822,1.822,0,0,1-1.367.559,1.822,1.822,0,0,1-1.367-.559,1.918,1.918,0,0,1-.54-1.389V-58.109a1.918,1.918,0,0,1,.54-1.389,1.822,1.822,0,0,1,1.367-.559,1.822,1.822,0,0,1,1.367.559,1.918,1.918,0,0,1,.54,1.389v.415a4.825,4.825,0,0,1,2.1-1.995A6.43,6.43,0,0,1,24.94-60.376Zm17.74.319a1.821,1.821,0,0,1,1.367.559,1.918,1.918,0,0,1,.54,1.389v13.566q0,4.15-2.225,6.049a8.849,8.849,0,0,1-5.945,1.9,14.365,14.365,0,0,1-2.21-.176,8.261,8.261,0,0,1-1.828-.463q-1.558-.67-1.558-1.851a1.646,1.646,0,0,1,.1-.511,1.98,1.98,0,0,1,.652-1.069,1.575,1.575,0,0,1,1-.367,1.89,1.89,0,0,1,.6.1q.223.1.779.319a8,8,0,0,0,1.176.367,5.687,5.687,0,0,0,1.288.144,4.81,4.81,0,0,0,3.322-.974A4.366,4.366,0,0,0,40.8-44.416v-.319a6.188,6.188,0,0,1-5.15,2.075,5.47,5.47,0,0,1-2.925-.782,5.274,5.274,0,0,1-1.971-2.171,6.965,6.965,0,0,1-.7-3.176v-9.321A1.918,1.918,0,0,1,30.6-59.5a1.822,1.822,0,0,1,1.367-.559,1.822,1.822,0,0,1,1.367.559,1.918,1.918,0,0,1,.54,1.389v8.171a3.986,3.986,0,0,0,.874,2.889,3.46,3.46,0,0,0,2.559.878,3.324,3.324,0,0,0,2.559-.974,3.951,3.951,0,0,0,.906-2.793v-8.171a1.918,1.918,0,0,1,.54-1.389A1.822,1.822,0,0,1,42.68-60.056ZM62.455-66.6a.594.594,0,0,1,.461.192.642.642,0,0,1,.175.447v22.344a.614.614,0,0,1-.191.447.609.609,0,0,1-.445.192.594.594,0,0,1-.461-.192.642.642,0,0,1-.175-.447V-46.65A6.88,6.88,0,0,1,59.4-43.809a6.314,6.314,0,0,1-3.688,1.149,6.711,6.711,0,0,1-3.752-1.1,7.644,7.644,0,0,1-2.655-3.016,9.333,9.333,0,0,1-.97-4.277,9.333,9.333,0,0,1,.97-4.277,7.525,7.525,0,0,1,2.655-3,6.783,6.783,0,0,1,3.752-1.085A6.487,6.487,0,0,1,59.371-58.3a6.487,6.487,0,0,1,2.448,2.9V-65.962a.642.642,0,0,1,.175-.447A.594.594,0,0,1,62.455-66.6ZM55.779-43.873a5.63,5.63,0,0,0,3.179-.926,6.278,6.278,0,0,0,2.194-2.57,8.36,8.36,0,0,0,.795-3.687,8.257,8.257,0,0,0-.795-3.671,6.255,6.255,0,0,0-2.21-2.554,5.653,5.653,0,0,0-3.163-.926,5.6,5.6,0,0,0-3.132.926,6.347,6.347,0,0,0-2.225,2.57,8.15,8.15,0,0,0-.811,3.655,8.122,8.122,0,0,0,.811,3.671,6.537,6.537,0,0,0,2.21,2.57A5.509,5.509,0,0,0,55.779-43.873Zm27.31-7.15a8.88,8.88,0,0,1-1.017,4.261,7.733,7.733,0,0,1-2.814,3,7.484,7.484,0,0,1-3.99,1.1,7.484,7.484,0,0,1-3.99-1.1,7.82,7.82,0,0,1-2.83-3.016,8.8,8.8,0,0,1-1.033-4.245A8.862,8.862,0,0,1,68.448-55.3a7.861,7.861,0,0,1,2.814-3.016,7.46,7.46,0,0,1,4.006-1.1,7.484,7.484,0,0,1,3.99,1.1A7.7,7.7,0,0,1,82.071-55.3,8.974,8.974,0,0,1,83.089-51.023Zm-1.272,0a7.868,7.868,0,0,0-.843-3.671,6.507,6.507,0,0,0-2.337-2.57,6.189,6.189,0,0,0-3.37-.942,6.212,6.212,0,0,0-3.354.942,6.584,6.584,0,0,0-2.369,2.57,7.748,7.748,0,0,0-.858,3.671,7.68,7.68,0,0,0,.858,3.639,6.583,6.583,0,0,0,2.369,2.57,6.212,6.212,0,0,0,3.354.942,6.268,6.268,0,0,0,3.37-.926,6.367,6.367,0,0,0,2.337-2.57A7.9,7.9,0,0,0,81.817-51.023Zm4.705,5.49a1.189,1.189,0,0,1-.223-.606.531.531,0,0,1,.254-.415.519.519,0,0,1,.381-.16.6.6,0,0,1,.509.255,5.923,5.923,0,0,0,5.15,2.649,5.214,5.214,0,0,0,2.957-.846,2.615,2.615,0,0,0,1.272-2.282,2.463,2.463,0,0,0-1.113-2.2,9.9,9.9,0,0,0-3.052-1.213A11.751,11.751,0,0,1,88.6-52.061a3.505,3.505,0,0,1-1.478-3.016,3.859,3.859,0,0,1,1.494-3.112,5.858,5.858,0,0,1,3.847-1.229,6.978,6.978,0,0,1,2.591.511A6.472,6.472,0,0,1,97.4-57.279a.575.575,0,0,1,.223.447.7.7,0,0,1-.223.511.987.987,0,0,1-.413.128.481.481,0,0,1-.381-.192,5.494,5.494,0,0,0-4.26-1.819,4.764,4.764,0,0,0-2.845.83,2.669,2.669,0,0,0-1.16,2.3,2.62,2.62,0,0,0,1.256,2.123,11.862,11.862,0,0,0,3.418,1.325,15.739,15.739,0,0,1,2.686.91,4.224,4.224,0,0,1,1.7,1.389A3.932,3.932,0,0,1,98.031-47a3.767,3.767,0,0,1-1.542,3.176,6.5,6.5,0,0,1-4.022,1.165A7.306,7.306,0,0,1,86.522-45.533Z" transform="translate(142.65 509.6)" fill="#1d1d1d"/>
    </g>
  </g>
</svg>
