<svg id="_15x15_photo_back" data-name="15x15 photo back" xmlns="http://www.w3.org/2000/svg" xmlns:xlink="http://www.w3.org/1999/xlink" width="14" height="14" viewBox="0 0 14 14">
  <defs>
    <clipPath id="clip-path">
      <rect id="Rectangle_4561" data-name="Rectangle 4561" width="14" height="14" fill="none"/>
    </clipPath>
  </defs>
  <g id="Mask_Group_915" data-name="Mask Group 915" clip-path="url(#clip-path)">
    <g id="_x31_11" transform="translate(-1.748 -1.748)">
      <g id="Group_15548" data-name="Group 15548">
        <path id="Path_24011" data-name="Path 24011" d="M15.5,12.391,10.43,3.24a1.919,1.919,0,0,0-3.359,0l-5.08,9.151a1.925,1.925,0,0,0,1.686,2.858H13.819A1.925,1.925,0,0,0,15.5,12.391Zm-6.76.857a.878.878,0,1,1,.881-.881A.874.874,0,0,1,8.744,13.248ZM9.9,6.862,9.543,9.906a.8.8,0,0,1-1.592,0L7.6,6.862a.8.8,0,0,1,.793-.892H9.1A.8.8,0,0,1,9.9,6.862Z" fill="#1d1d1d"/>
      </g>
    </g>
  </g>
</svg>
